<svg width="56" height="27" viewBox="0 0 56 27" fill="none" xmlns="http://www.w3.org/2000/svg">
<rect x="41" y="7.57507" width="7.42489" height="7.42489" rx="1.89378" fill="#FF7D16"/>
<path d="M44.6136 12.6273C44.452 12.6273 44.2905 12.6115 44.1289 12.5798C43.9673 12.5481 43.8279 12.5038 43.7107 12.4468C43.6093 12.3993 43.5381 12.3406 43.4969 12.2709C43.4589 12.2013 43.443 12.13 43.4494 12.0571C43.4557 11.9842 43.481 11.9193 43.5254 11.8623C43.5729 11.8053 43.6331 11.7672 43.706 11.7482C43.782 11.7261 43.8675 11.7356 43.9626 11.7767C44.0798 11.8274 44.1875 11.8623 44.2857 11.8813C44.3839 11.9003 44.4821 11.9098 44.5803 11.9098C44.6944 11.9098 44.7894 11.8971 44.8654 11.8718C44.9415 11.8464 44.9985 11.8084 45.0365 11.7577C45.0745 11.7039 45.0935 11.6374 45.0935 11.5582C45.0935 11.4473 45.0539 11.3665 44.9747 11.3158C44.8987 11.262 44.7862 11.235 44.6373 11.235H44.3807C44.2604 11.235 44.1685 11.2049 44.1051 11.1447C44.0418 11.0846 44.0101 10.999 44.0101 10.8881C44.0101 10.7773 44.0418 10.6917 44.1051 10.6315C44.1685 10.5713 44.2604 10.5412 44.3807 10.5412H44.5518C44.6437 10.5412 44.7213 10.5286 44.7847 10.5032C44.8512 10.4779 44.9019 10.4415 44.9367 10.3939C44.9716 10.3432 44.989 10.2815 44.989 10.2086C44.989 10.1041 44.951 10.0249 44.8749 9.97102C44.8021 9.91716 44.6928 9.89023 44.5471 9.89023C44.4584 9.89023 44.3681 9.89974 44.2762 9.91874C44.1843 9.93775 44.0861 9.97102 43.9816 10.0185C43.8992 10.0534 43.8232 10.0613 43.7535 10.0423C43.687 10.0233 43.6315 9.98686 43.5872 9.933C43.546 9.87598 43.5206 9.8142 43.5111 9.74767C43.5016 9.67798 43.5127 9.60987 43.5444 9.54334C43.5761 9.47681 43.6363 9.42138 43.725 9.37702C43.858 9.3105 44.0022 9.25981 44.1574 9.22496C44.3158 9.19011 44.4742 9.17269 44.6326 9.17269C44.8829 9.17269 45.0967 9.20912 45.2741 9.28199C45.4515 9.35485 45.5861 9.46097 45.678 9.60036C45.7731 9.73659 45.8206 9.90132 45.8206 10.0946C45.8206 10.2213 45.7968 10.3385 45.7493 10.4462C45.7018 10.5539 45.6321 10.6442 45.5402 10.7171C45.4483 10.7868 45.3406 10.8375 45.2171 10.8691V10.8026C45.4388 10.8375 45.6115 10.9309 45.735 11.083C45.8618 11.2319 45.9251 11.4188 45.9251 11.6437C45.9251 11.8464 45.8728 12.0223 45.7683 12.1712C45.6638 12.3201 45.5133 12.4341 45.3169 12.5133C45.1205 12.5893 44.886 12.6273 44.6136 12.6273Z" fill="white"/>
<rect x="48.5747" y="7.57507" width="7.42489" height="7.42489" rx="1.89378" fill="#00A9FF"/>
<path d="M51.5468 12.5751C51.4074 12.5751 51.306 12.5434 51.2427 12.48C51.1825 12.4135 51.1524 12.3169 51.1524 12.1902C51.1524 12.1015 51.1714 12.0223 51.2094 11.9526C51.2506 11.8829 51.3028 11.8148 51.3662 11.7482L52.1978 10.8786C52.3213 10.7456 52.4085 10.6315 52.4591 10.5365C52.513 10.4415 52.5399 10.3464 52.5399 10.2514C52.5399 10.131 52.5003 10.0407 52.4211 9.98052C52.3419 9.92033 52.2279 9.89023 52.079 9.89023C52.003 9.89023 51.9222 9.90132 51.8366 9.9235C51.7511 9.9425 51.6592 9.97735 51.561 10.028C51.4755 10.0661 51.3979 10.0771 51.3282 10.0613C51.2617 10.0455 51.2046 10.0106 51.1571 9.95676C51.1128 9.9029 51.0843 9.84113 51.0716 9.77143C51.0621 9.70174 51.0732 9.63363 51.1048 9.5671C51.1365 9.49741 51.1936 9.44038 51.2759 9.39603C51.4216 9.31683 51.5721 9.25981 51.7274 9.22496C51.8858 9.19011 52.0441 9.17269 52.2025 9.17269C52.4623 9.17269 52.6793 9.21071 52.8536 9.28674C53.031 9.36277 53.1656 9.47365 53.2575 9.61937C53.3493 9.76193 53.3953 9.93934 53.3953 10.1516C53.3953 10.2846 53.3747 10.4145 53.3335 10.5412C53.2955 10.668 53.2321 10.7947 53.1434 10.9214C53.0579 11.0481 52.9423 11.1828 52.7965 11.3253L52.0267 12.0856V11.867H53.2005C53.3177 11.867 53.4064 11.8971 53.4666 11.9573C53.5299 12.0175 53.5616 12.1046 53.5616 12.2187C53.5616 12.3327 53.5299 12.4214 53.4666 12.4848C53.4064 12.545 53.3177 12.5751 53.2005 12.5751H51.5468Z" fill="white"/>
<rect x="44.7881" width="7.42489" height="7.42489" rx="1.89378" fill="#D816FF"/>
<path d="M47.8219 5C47.7047 5 47.6144 4.9699 47.5511 4.90971C47.4909 4.84635 47.4608 4.75765 47.4608 4.64361C47.4608 4.52956 47.4909 4.44244 47.5511 4.38225C47.6144 4.32206 47.7047 4.29196 47.8219 4.29196H48.2496V2.34842H48.6488L47.9597 2.77134C47.8774 2.82203 47.7998 2.84262 47.7269 2.83312C47.654 2.82045 47.5923 2.78877 47.5416 2.73808C47.4909 2.68739 47.4576 2.62562 47.4418 2.55276C47.4259 2.47989 47.4323 2.40703 47.4608 2.33417C47.4893 2.2613 47.5463 2.19953 47.6319 2.14884L48.2876 1.74018C48.3573 1.69582 48.4286 1.66256 48.5015 1.64039C48.5775 1.61821 48.6567 1.60712 48.7391 1.60712C48.8594 1.60712 48.9529 1.6388 49.0194 1.70216C49.0859 1.76235 49.1192 1.85105 49.1192 1.96827V4.29196H49.4994C49.6166 4.29196 49.7053 4.32206 49.7655 4.38225C49.8288 4.44244 49.8605 4.52956 49.8605 4.64361C49.8605 4.75765 49.8288 4.84635 49.7655 4.90971C49.7053 4.9699 49.6166 5 49.4994 5H47.8219Z" fill="white"/>
<path d="M3.22451 14.1484C2.36104 14.1484 1.72244 13.919 1.30869 13.4603C0.903943 12.9926 0.701567 12.2911 0.701567 11.3556V5.58119C0.701567 5.18543 0.805004 4.88412 1.01188 4.67725C1.21875 4.47038 1.51107 4.36694 1.88884 4.36694C2.2756 4.36694 2.57241 4.47038 2.77929 4.67725C2.99515 4.88412 3.10309 5.18543 3.10309 5.58119V11.2747C3.10309 11.6075 3.16605 11.8503 3.29197 12.0032C3.42689 12.1561 3.59778 12.2326 3.80465 12.2326C3.86762 12.2326 3.93058 12.2281 3.99354 12.2191C4.06549 12.2011 4.14195 12.1876 4.2229 12.1786C4.3758 12.1786 4.48823 12.2371 4.56019 12.354C4.64114 12.4709 4.68161 12.7093 4.68161 13.0691C4.68161 13.3839 4.61865 13.6222 4.49273 13.7841C4.36681 13.937 4.17343 14.036 3.91259 14.081C3.84063 14.0899 3.7372 14.1034 3.60228 14.1214C3.46736 14.1394 3.34144 14.1484 3.22451 14.1484ZM7.79355 14.1214C7.41579 14.1214 7.12347 14.009 6.91659 13.7841C6.70972 13.5593 6.60629 13.2355 6.60629 12.8127V8.54936C6.60629 8.12662 6.70972 7.80282 6.91659 7.57796C7.12347 7.3531 7.41579 7.24067 7.79355 7.24067C8.18032 7.24067 8.47713 7.3531 8.684 7.57796C8.89987 7.80282 9.00781 8.12662 9.00781 8.54936V12.8127C9.00781 13.2355 8.90437 13.5593 8.6975 13.7841C8.49062 14.009 8.18931 14.1214 7.79355 14.1214ZM7.79355 6.28276C7.37081 6.28276 7.04252 6.18382 6.80866 5.98594C6.5838 5.78806 6.47137 5.50024 6.47137 5.12247C6.47137 4.7537 6.5838 4.47038 6.80866 4.2725C7.04252 4.07462 7.37081 3.97568 7.79355 3.97568C8.23428 3.97568 8.56708 4.07462 8.79194 4.2725C9.0168 4.47038 9.12923 4.7537 9.12923 5.12247C9.12923 5.50024 9.0168 5.78806 8.79194 5.98594C8.56708 6.18382 8.23428 6.28276 7.79355 6.28276ZM15.0959 14.1484C14.4213 14.1484 13.8637 14.045 13.423 13.8381C12.9912 13.6312 12.6674 13.3209 12.4516 12.9072C12.2357 12.4844 12.1278 11.9583 12.1278 11.3286V9.1295H11.669C11.3812 9.1295 11.1564 9.05305 10.9945 8.90014C10.8415 8.74724 10.7651 8.52687 10.7651 8.23905C10.7651 7.95123 10.8415 7.73536 10.9945 7.59145C11.1564 7.43855 11.3812 7.36209 11.669 7.36209H12.1278V6.52561C12.1278 6.12985 12.2312 5.82854 12.4381 5.62167C12.6449 5.41479 12.9418 5.31136 13.3285 5.31136C13.7153 5.31136 14.0121 5.41479 14.219 5.62167C14.4258 5.82854 14.5293 6.12985 14.5293 6.52561V7.36209H15.6356C15.9324 7.36209 16.1573 7.43855 16.3102 7.59145C16.4721 7.73536 16.553 7.95123 16.553 8.23905C16.553 8.52687 16.4721 8.74724 16.3102 8.90014C16.1573 9.05305 15.9324 9.1295 15.6356 9.1295H14.5293V11.2477C14.5293 11.5805 14.6057 11.8278 14.7586 11.9897C14.9205 12.1426 15.1724 12.2191 15.5142 12.2191C15.6401 12.2191 15.7615 12.2056 15.8784 12.1786C15.9954 12.1516 16.1033 12.1381 16.2022 12.1381C16.3462 12.1292 16.4631 12.1741 16.553 12.2731C16.643 12.363 16.6879 12.5744 16.6879 12.9072C16.6879 13.177 16.6475 13.4064 16.5665 13.5952C16.4856 13.7751 16.3417 13.9056 16.1348 13.9865C16.0089 14.0315 15.838 14.0675 15.6221 14.0944C15.4062 14.1304 15.2308 14.1484 15.0959 14.1484ZM21.4486 14.1484C20.774 14.1484 20.2164 14.045 19.7756 13.8381C19.3439 13.6312 19.0201 13.3209 18.8042 12.9072C18.5884 12.4844 18.4804 11.9583 18.4804 11.3286V9.1295H18.0217C17.7339 9.1295 17.509 9.05305 17.3471 8.90014C17.1942 8.74724 17.1178 8.52687 17.1178 8.23905C17.1178 7.95123 17.1942 7.73536 17.3471 7.59145C17.509 7.43855 17.7339 7.36209 18.0217 7.36209H18.4804V6.52561C18.4804 6.12985 18.5839 5.82854 18.7907 5.62167C18.9976 5.41479 19.2944 5.31136 19.6812 5.31136C20.068 5.31136 20.3648 5.41479 20.5717 5.62167C20.7785 5.82854 20.882 6.12985 20.882 6.52561V7.36209H21.9883C22.2851 7.36209 22.51 7.43855 22.6629 7.59145C22.8248 7.73536 22.9057 7.95123 22.9057 8.23905C22.9057 8.52687 22.8248 8.74724 22.6629 8.90014C22.51 9.05305 22.2851 9.1295 21.9883 9.1295H20.882V11.2477C20.882 11.5805 20.9584 11.8278 21.1113 11.9897C21.2732 12.1426 21.5251 12.2191 21.8669 12.2191C21.9928 12.2191 22.1142 12.2056 22.2311 12.1786C22.3481 12.1516 22.456 12.1381 22.5549 12.1381C22.6988 12.1292 22.8158 12.1741 22.9057 12.2731C22.9957 12.363 23.0406 12.5744 23.0406 12.9072C23.0406 13.177 23.0002 13.4064 22.9192 13.5952C22.8383 13.7751 22.6943 13.9056 22.4875 13.9865C22.3615 14.0315 22.1907 14.0675 21.9748 14.0944C21.7589 14.1304 21.5835 14.1484 21.4486 14.1484ZM27.6866 14.1484C26.8231 14.1484 26.1845 13.919 25.7708 13.4603C25.366 12.9926 25.1637 12.2911 25.1637 11.3556V5.58119C25.1637 5.18543 25.2671 4.88412 25.474 4.67725C25.6809 4.47038 25.9732 4.36694 26.3509 4.36694C26.7377 4.36694 27.0345 4.47038 27.2414 4.67725C27.4573 4.88412 27.5652 5.18543 27.5652 5.58119V11.2747C27.5652 11.6075 27.6282 11.8503 27.7541 12.0032C27.889 12.1561 28.0599 12.2326 28.2668 12.2326C28.3297 12.2326 28.3927 12.2281 28.4556 12.2191C28.5276 12.2011 28.6041 12.1876 28.685 12.1786C28.8379 12.1786 28.9503 12.2371 29.0223 12.354C29.1032 12.4709 29.1437 12.7093 29.1437 13.0691C29.1437 13.3839 29.0808 13.6222 28.9548 13.7841C28.8289 13.937 28.6355 14.036 28.3747 14.081C28.3027 14.0899 28.1993 14.1034 28.0644 14.1214C27.9295 14.1394 27.8035 14.1484 27.6866 14.1484ZM34.6183 14.1484C33.8088 14.1484 33.1072 14.009 32.5136 13.7302C31.9289 13.4423 31.4792 13.0376 31.1644 12.5159C30.8496 11.9942 30.6922 11.3781 30.6922 10.6676C30.6922 9.98398 30.8406 9.38584 31.1374 8.87316C31.4432 8.35148 31.857 7.94673 32.3787 7.65891C32.9093 7.36209 33.512 7.21368 34.1865 7.21368C34.6812 7.21368 35.131 7.29463 35.5357 7.45653C35.9405 7.60944 36.2868 7.8388 36.5746 8.14461C36.8624 8.44143 37.0783 8.80121 37.2222 9.22394C37.3751 9.64668 37.4515 10.1189 37.4515 10.6406C37.4515 10.8205 37.4021 10.9554 37.3031 11.0453C37.2042 11.1263 37.0468 11.1667 36.8309 11.1667H32.7025V10.0334H35.6976L35.4818 10.2088C35.4818 9.87604 35.4368 9.60621 35.3468 9.39934C35.2569 9.19246 35.122 9.03506 34.9421 8.92713C34.7712 8.81919 34.5553 8.76523 34.2945 8.76523C34.0157 8.76523 33.7728 8.83269 33.5659 8.9676C33.3681 9.09352 33.2151 9.28241 33.1072 9.53425C32.9993 9.7861 32.9453 10.1009 32.9453 10.4787V10.6001C32.9453 11.2387 33.0847 11.6974 33.3636 11.9762C33.6514 12.2461 34.0921 12.381 34.6857 12.381C34.8836 12.381 35.1085 12.3585 35.3603 12.3135C35.6212 12.2596 35.8685 12.1876 36.1024 12.0977C36.3362 12.0077 36.5386 11.9942 36.7095 12.0572C36.8804 12.1112 37.0108 12.2101 37.1008 12.354C37.1997 12.4889 37.2537 12.6463 37.2627 12.8262C37.2716 12.9971 37.2312 13.168 37.1412 13.3389C37.0513 13.5008 36.9029 13.6267 36.696 13.7167C36.3812 13.8606 36.0439 13.9685 35.6841 14.0405C35.3333 14.1124 34.9781 14.1484 34.6183 14.1484Z" fill="white"/>
<path d="M1.88884 25.1214C1.51107 25.1214 1.21875 25.018 1.01188 24.8111C0.805004 24.6042 0.701567 24.3029 0.701567 23.9072V16.5812C0.701567 16.1854 0.805004 15.8841 1.01188 15.6772C1.21875 15.4704 1.51107 15.3669 1.88884 15.3669C2.2756 15.3669 2.57241 15.4704 2.77929 15.6772C2.99515 15.8841 3.10309 16.1854 3.10309 16.5812V19.5224H2.88722C3.10309 19.0996 3.4089 18.7758 3.80465 18.551C4.2094 18.3261 4.66812 18.2137 5.18081 18.2137C5.71148 18.2137 6.14771 18.3171 6.4895 18.524C6.83129 18.7219 7.08763 19.0367 7.25853 19.4684C7.42942 19.8911 7.51487 20.4263 7.51487 21.0739V23.9072C7.51487 24.3029 7.41143 24.6042 7.20456 24.8111C6.99769 25.018 6.70087 25.1214 6.31411 25.1214C5.92735 25.1214 5.63053 25.018 5.42366 24.8111C5.21678 24.6042 5.11335 24.3029 5.11335 23.9072V21.1684C5.11335 20.7636 5.04139 20.4758 4.89748 20.3049C4.76256 20.134 4.56019 20.0486 4.29035 20.0486C3.93058 20.0486 3.64275 20.1655 3.42689 20.3993C3.21102 20.6242 3.10309 20.93 3.10309 21.3168V23.9072C3.10309 24.7167 2.69834 25.1214 1.88884 25.1214ZM12.243 25.1484C11.5054 25.1484 10.8623 25.009 10.3137 24.7302C9.76499 24.4513 9.33775 24.0511 9.03194 23.5294C8.72613 23.0077 8.57323 22.3916 8.57323 21.681C8.57323 21.1414 8.65867 20.6602 8.82957 20.2374C9.00046 19.8057 9.24781 19.4414 9.57161 19.1446C9.89541 18.8388 10.2822 18.6094 10.7319 18.4565C11.1816 18.2946 11.6853 18.2137 12.243 18.2137C12.9805 18.2137 13.6236 18.3531 14.1723 18.6319C14.7209 18.9108 15.1437 19.311 15.4405 19.8327C15.7463 20.3454 15.8992 20.9615 15.8992 21.681C15.8992 22.2117 15.8138 22.6929 15.6429 23.1247C15.472 23.5564 15.2246 23.9252 14.9008 24.231C14.586 24.5278 14.1993 24.7571 13.7405 24.919C13.2908 25.072 12.7916 25.1484 12.243 25.1484ZM12.243 23.381C12.4858 23.381 12.7017 23.3225 12.8906 23.2056C13.0794 23.0797 13.2234 22.8953 13.3223 22.6524C13.4302 22.4006 13.4842 22.0768 13.4842 21.681C13.4842 21.0784 13.3673 20.6467 13.1334 20.3858C12.8996 20.116 12.6027 19.9811 12.243 19.9811C12.0001 19.9811 11.7842 20.0396 11.5954 20.1565C11.4065 20.2734 11.2581 20.4578 11.1501 20.7096C11.0422 20.9525 10.9882 21.2763 10.9882 21.681C10.9882 22.2747 11.1052 22.7064 11.339 22.9762C11.5729 23.2461 11.8742 23.381 12.243 23.381ZM18.2274 25.1214C17.8316 25.1214 17.5258 25.018 17.3099 24.8111C17.1031 24.6042 16.9996 24.3029 16.9996 23.9072V19.4414C16.9996 19.0547 17.0986 18.7578 17.2964 18.551C17.5033 18.3441 17.7956 18.2407 18.1734 18.2407C18.5512 18.2407 18.839 18.3441 19.0369 18.551C19.2347 18.7578 19.3337 19.0547 19.3337 19.4414V19.9946H19.1988C19.2887 19.4549 19.5181 19.0277 19.8868 18.7129C20.2646 18.3981 20.7323 18.2317 21.29 18.2137C21.5508 18.2047 21.7442 18.2721 21.8701 18.4161C22.005 18.551 22.077 18.8073 22.086 19.1851C22.086 19.5089 22.0185 19.7652 21.8836 19.9541C21.7487 20.143 21.4924 20.2554 21.1146 20.2914L20.8043 20.3184C20.3276 20.3634 19.9813 20.4983 19.7654 20.7231C19.5496 20.939 19.4416 21.2628 19.4416 21.6945V23.9072C19.4416 24.3029 19.3382 24.6042 19.1313 24.8111C18.9244 25.018 18.6231 25.1214 18.2274 25.1214ZM24.0368 25.1214C23.659 25.1214 23.3667 25.009 23.1598 24.7841C22.953 24.5593 22.8495 24.2355 22.8495 23.8127V19.5494C22.8495 19.1266 22.953 18.8028 23.1598 18.578C23.3667 18.3531 23.659 18.2407 24.0368 18.2407C24.4236 18.2407 24.7204 18.3531 24.9273 18.578C25.1431 18.8028 25.2511 19.1266 25.2511 19.5494V23.8127C25.2511 24.2355 25.1476 24.5593 24.9407 24.7841C24.7339 25.009 24.4326 25.1214 24.0368 25.1214ZM24.0368 17.2828C23.6141 17.2828 23.2858 17.1838 23.0519 16.9859C22.827 16.7881 22.7146 16.5002 22.7146 16.1225C22.7146 15.7537 22.827 15.4704 23.0519 15.2725C23.2858 15.0746 23.6141 14.9757 24.0368 14.9757C24.4775 14.9757 24.8103 15.0746 25.0352 15.2725C25.26 15.4704 25.3725 15.7537 25.3725 16.1225C25.3725 16.5002 25.26 16.7881 25.0352 16.9859C24.8103 17.1838 24.4775 17.2828 24.0368 17.2828ZM27.3726 25C27.1298 25 26.9319 24.9415 26.779 24.8246C26.6261 24.6987 26.5226 24.5413 26.4687 24.3524C26.4147 24.1635 26.4147 23.9611 26.4687 23.7453C26.5316 23.5204 26.6486 23.3135 26.8195 23.1247L29.9495 19.5898V20.1295H27.2782C26.9904 20.1295 26.77 20.053 26.6171 19.9001C26.4642 19.7472 26.3877 19.5269 26.3877 19.2391C26.3877 18.9512 26.4642 18.7354 26.6171 18.5915C26.77 18.4385 26.9904 18.3621 27.2782 18.3621H31.0963C31.3662 18.3621 31.5865 18.4251 31.7574 18.551C31.9283 18.6679 32.0407 18.8208 32.0947 19.0097C32.1577 19.1986 32.1622 19.401 32.1082 19.6168C32.0542 19.8327 31.9418 20.0351 31.7709 20.2239L28.5599 23.8532V23.2326H31.4336C32.0362 23.2326 32.3376 23.5249 32.3376 24.1095C32.3376 24.3974 32.2611 24.6177 32.1082 24.7706C31.9553 24.9235 31.7304 25 31.4336 25H27.3726ZM36.4463 25.1484C35.7088 25.1484 35.0657 25.009 34.517 24.7302C33.9683 24.4513 33.5411 24.0511 33.2353 23.5294C32.9295 23.0077 32.7766 22.3916 32.7766 21.681C32.7766 21.1414 32.862 20.6602 33.0329 20.2374C33.2038 19.8057 33.4512 19.4414 33.775 19.1446C34.0988 18.8388 34.4855 18.6094 34.9352 18.4565C35.385 18.2946 35.8886 18.2137 36.4463 18.2137C37.1838 18.2137 37.827 18.3531 38.3756 18.6319C38.9243 18.9108 39.347 19.311 39.6438 19.8327C39.9496 20.3454 40.1025 20.9615 40.1025 21.681C40.1025 22.2117 40.0171 22.6929 39.8462 23.1247C39.6753 23.5564 39.428 23.9252 39.1042 24.231C38.7894 24.5278 38.4026 24.7571 37.9439 24.919C37.4942 25.072 36.995 25.1484 36.4463 25.1484ZM36.4463 23.381C36.6892 23.381 36.905 23.3225 37.0939 23.2056C37.2828 23.0797 37.4267 22.8953 37.5256 22.6524C37.6336 22.4006 37.6875 22.0768 37.6875 21.681C37.6875 21.0784 37.5706 20.6467 37.3368 20.3858C37.1029 20.116 36.8061 19.9811 36.4463 19.9811C36.2035 19.9811 35.9876 20.0396 35.7987 20.1565C35.6098 20.2734 35.4614 20.4578 35.3535 20.7096C35.2455 20.9525 35.1916 21.2763 35.1916 21.681C35.1916 22.2747 35.3085 22.7064 35.5424 22.9762C35.7762 23.2461 36.0775 23.381 36.4463 23.381ZM42.3902 25.1214C42.0125 25.1214 41.7201 25.018 41.5133 24.8111C41.3064 24.6042 41.203 24.3029 41.203 23.9072V19.4414C41.203 19.0547 41.3019 18.7578 41.4998 18.551C41.7067 18.3441 41.999 18.2407 42.3767 18.2407C42.7545 18.2407 43.0423 18.3441 43.2402 18.551C43.4381 18.7578 43.537 19.0547 43.537 19.4414V20.0755L43.3886 19.5224C43.6045 19.0996 43.9103 18.7758 44.3061 18.551C44.7108 18.3261 45.1695 18.2137 45.6822 18.2137C46.2129 18.2137 46.6491 18.3171 46.9909 18.524C47.3327 18.7219 47.589 19.0367 47.7599 19.4684C47.9308 19.8911 48.0163 20.4263 48.0163 21.0739V23.9072C48.0163 24.3029 47.9128 24.6042 47.706 24.8111C47.4991 25.018 47.2023 25.1214 46.8155 25.1214C46.4287 25.1214 46.1319 25.018 45.9251 24.8111C45.7182 24.6042 45.6147 24.3029 45.6147 23.9072V21.1684C45.6147 20.7636 45.5428 20.4758 45.3989 20.3049C45.264 20.134 45.0616 20.0486 44.7918 20.0486C44.432 20.0486 44.1442 20.1655 43.9283 20.3993C43.7124 20.6242 43.6045 20.93 43.6045 21.3168V23.9072C43.6045 24.7167 43.1997 25.1214 42.3902 25.1214ZM52.0293 25.1484C51.6335 25.1484 51.2288 25.1169 50.815 25.054C50.4103 25 50.0415 24.8966 49.7087 24.7437C49.4839 24.6537 49.322 24.5323 49.223 24.3794C49.1331 24.2265 49.0881 24.0646 49.0881 23.8937C49.0971 23.7228 49.1466 23.5699 49.2365 23.435C49.3355 23.2911 49.4614 23.1921 49.6143 23.1381C49.7762 23.0752 49.9561 23.0797 50.154 23.1516C50.5317 23.2866 50.869 23.3855 51.1658 23.4485C51.4716 23.5024 51.764 23.5294 52.0428 23.5294C52.3756 23.5294 52.6139 23.4844 52.7578 23.3945C52.9018 23.2956 52.9737 23.1696 52.9737 23.0167C52.9737 22.8818 52.9242 22.7784 52.8253 22.7064C52.7354 22.6345 52.6049 22.585 52.434 22.558L50.9365 22.3152C50.3788 22.2162 49.9471 22.0138 49.6413 21.708C49.3355 21.3932 49.1826 20.984 49.1826 20.4803C49.1826 20.0126 49.313 19.6123 49.5738 19.2795C49.8436 18.9377 50.2079 18.6769 50.6666 18.497C51.1343 18.3081 51.6695 18.2137 52.2721 18.2137C52.6769 18.2137 53.0457 18.2452 53.3785 18.3081C53.7113 18.3621 54.0351 18.4655 54.3499 18.6184C54.5477 18.6994 54.6872 18.8163 54.7681 18.9692C54.8491 19.1221 54.8805 19.284 54.8626 19.4549C54.8446 19.6168 54.7861 19.7697 54.6872 19.9136C54.5972 20.0486 54.4713 20.143 54.3094 20.197C54.1475 20.2419 53.9586 20.2284 53.7427 20.1565C53.4459 20.0396 53.1806 19.9541 52.9467 19.9001C52.7219 19.8462 52.5105 19.8192 52.3126 19.8192C51.9439 19.8192 51.683 19.8687 51.5301 19.9676C51.3772 20.0665 51.3007 20.1925 51.3007 20.3454C51.3007 20.4623 51.3412 20.5612 51.4222 20.6422C51.5031 20.7141 51.629 20.7636 51.7999 20.7906L53.2975 21.0469C53.8732 21.1369 54.3139 21.3348 54.6197 21.6406C54.9345 21.9374 55.0919 22.3421 55.0919 22.8548C55.0919 23.5834 54.8131 24.15 54.2554 24.5548C53.6978 24.9505 52.9557 25.1484 52.0293 25.1484Z" fill="white"/>
</svg>
