<svg width="647" height="228" viewBox="0 0 647 228" fill="none" xmlns="http://www.w3.org/2000/svg">
<circle cx="50" cy="50" r="42" transform="matrix(1 0 0 -1 0.00012207 201)" fill="#6AD4FF" stroke="black" stroke-width="16"/>
<circle cx="50" cy="50" r="42" transform="matrix(1 0 0 -1 0.00012207 151)" fill="#1ABCFE" stroke="black" stroke-width="16"/>
<circle cx="50" cy="50" r="42" transform="matrix(1 0 0 -1 0.00012207 101)" fill="#007AFF"/>
<circle cx="50" cy="50" r="42" transform="matrix(1 0 0 -1 0.00012207 101)" stroke="black" stroke-width="16"/>
<circle cx="50" cy="50" r="42" transform="matrix(1 0 0 -1 0.00012207 101)" stroke="black" stroke-width="16"/>
<mask id="path-4-outside-1_412_30" maskUnits="userSpaceOnUse" x="114" y="-4" width="538" height="240" fill="black">
<rect fill="white" x="114" y="-4" width="538" height="240"/>
<path d="M167.104 98V62.672C167.104 59.7707 166.251 57.5093 164.544 55.888C162.838 54.1813 160.662 53.328 158.016 53.328C156.224 53.328 154.603 53.712 153.152 54.48C151.787 55.248 150.72 56.3147 149.952 57.68C149.184 59.0453 148.8 60.7093 148.8 62.672L140.096 58.576C140.096 53.5413 141.206 49.232 143.424 45.648C145.643 41.9787 148.672 39.1627 152.512 37.2C156.438 35.152 160.875 34.128 165.824 34.128C170.347 34.128 174.358 35.1947 177.856 37.328C181.44 39.376 184.256 42.1493 186.304 45.648C188.352 49.1467 189.376 53.1147 189.376 57.552V98H167.104ZM126.528 98V35.408H148.8V98H126.528ZM224.321 99.408C217.58 99.408 211.564 98 206.273 95.184C201.068 92.2827 196.929 88.3573 193.857 83.408C190.785 78.3733 189.249 72.7413 189.249 66.512C189.249 60.2827 190.743 54.736 193.729 49.872C196.801 44.9227 200.983 41.04 206.273 38.224C211.564 35.3227 217.537 33.872 224.193 33.872C230.849 33.872 236.78 35.3227 241.985 38.224C247.276 41.04 251.457 44.9227 254.529 49.872C257.601 54.736 259.137 60.2827 259.137 66.512C259.137 72.7413 257.601 78.3733 254.529 83.408C251.543 88.3573 247.404 92.2827 242.113 95.184C236.908 98 230.977 99.408 224.321 99.408ZM224.193 79.568C226.668 79.568 228.801 79.056 230.593 78.032C232.471 76.9227 233.921 75.3867 234.945 73.424C235.969 71.4613 236.481 69.2 236.481 66.64C236.481 64.08 235.927 61.8613 234.817 59.984C233.793 58.0213 232.385 56.528 230.593 55.504C228.801 54.3947 226.668 53.84 224.193 53.84C221.804 53.84 219.671 54.3947 217.793 55.504C215.916 56.6133 214.465 58.1493 213.441 60.112C212.417 61.9893 211.905 64.208 211.905 66.768C211.905 69.2427 212.417 71.4613 213.441 73.424C214.465 75.3867 215.916 76.9227 217.793 78.032C219.671 79.056 221.804 79.568 224.193 79.568ZM287.173 99.28C281.115 99.28 275.781 97.872 271.173 95.056C266.565 92.24 262.939 88.4 260.293 83.536C257.733 78.5867 256.453 72.9973 256.453 66.768C256.453 60.4533 257.733 54.8213 260.293 49.872C262.939 44.9227 266.523 41.0827 271.045 38.352C275.653 35.536 281.029 34.128 287.173 34.128C291.099 34.128 294.768 34.8533 298.181 36.304C301.595 37.6693 304.453 39.632 306.757 42.192C309.061 44.752 310.427 47.6533 310.853 50.896V81.488C310.427 84.7307 309.061 87.7173 306.757 90.448C304.453 93.1787 301.595 95.3547 298.181 96.976C294.768 98.512 291.099 99.28 287.173 99.28ZM291.141 79.44C293.616 79.44 295.749 78.928 297.541 77.904C299.333 76.7947 300.741 75.3013 301.765 73.424C302.875 71.4613 303.429 69.2 303.429 66.64C303.429 64.1653 302.917 61.9893 301.893 60.112C300.869 58.2347 299.419 56.7413 297.541 55.632C295.749 54.5227 293.659 53.968 291.269 53.968C288.88 53.968 286.747 54.5227 284.869 55.632C283.077 56.7413 281.627 58.2773 280.517 60.24C279.493 62.1173 278.981 64.2507 278.981 66.64C278.981 69.1147 279.493 71.3333 280.517 73.296C281.541 75.1733 282.992 76.6667 284.869 77.776C286.747 78.8853 288.837 79.44 291.141 79.44ZM324.421 98H302.533V81.232L305.733 65.872L302.149 50.768V4.688H324.421V98ZM361.354 99.408C354.357 99.408 348.17 98.0427 342.794 95.312C337.418 92.496 333.194 88.6133 330.122 83.664C327.05 78.7147 325.514 73.04 325.514 66.64C325.514 60.3253 327.008 54.736 329.994 49.872C332.981 44.9227 337.034 41.04 342.154 38.224C347.36 35.3227 353.205 33.872 359.69 33.872C366.005 33.872 371.594 35.2373 376.458 37.968C381.408 40.6133 385.248 44.3253 387.978 49.104C390.794 53.7973 392.202 59.1733 392.202 65.232C392.202 66.512 392.117 67.8347 391.946 69.2C391.861 70.48 391.605 71.9733 391.178 73.68L336.01 73.936V59.6L382.346 59.216L372.362 65.488C372.277 61.9893 371.765 59.1307 370.826 56.912C369.888 54.608 368.522 52.8587 366.73 51.664C364.938 50.4693 362.677 49.872 359.946 49.872C357.13 49.872 354.698 50.5547 352.65 51.92C350.602 53.2853 349.024 55.2053 347.914 57.68C346.805 60.1547 346.25 63.1413 346.25 66.64C346.25 70.224 346.848 73.296 348.042 75.856C349.237 78.3307 350.944 80.208 353.162 81.488C355.381 82.768 358.112 83.408 361.354 83.408C364.426 83.408 367.114 82.896 369.418 81.872C371.808 80.848 373.941 79.2693 375.818 77.136L387.466 88.784C384.394 92.2827 380.64 94.928 376.202 96.72C371.85 98.512 366.901 99.408 361.354 99.408ZM419.813 99.28C413.755 99.28 408.421 97.872 403.813 95.056C399.205 92.24 395.579 88.4 392.933 83.536C390.373 78.5867 389.093 72.9973 389.093 66.768C389.093 60.4533 390.373 54.8213 392.933 49.872C395.579 44.9227 399.163 41.0827 403.685 38.352C408.293 35.536 413.669 34.128 419.813 34.128C423.739 34.128 427.408 34.8533 430.821 36.304C434.235 37.6693 437.093 39.632 439.397 42.192C441.701 44.752 443.067 47.6533 443.493 50.896V81.488C443.067 84.7307 441.701 87.7173 439.397 90.448C437.093 93.1787 434.235 95.3547 430.821 96.976C427.408 98.512 423.739 99.28 419.813 99.28ZM423.781 79.44C426.256 79.44 428.389 78.928 430.181 77.904C431.973 76.7947 433.381 75.3013 434.405 73.424C435.515 71.4613 436.069 69.2 436.069 66.64C436.069 64.1653 435.557 61.9893 434.533 60.112C433.509 58.2347 432.059 56.7413 430.181 55.632C428.389 54.5227 426.299 53.968 423.909 53.968C421.52 53.968 419.387 54.5227 417.509 55.632C415.717 56.7413 414.267 58.2773 413.157 60.24C412.133 62.1173 411.621 64.2507 411.621 66.64C411.621 69.1147 412.133 71.3333 413.157 73.296C414.181 75.1733 415.632 76.6667 417.509 77.776C419.387 78.8853 421.477 79.44 423.781 79.44ZM457.061 98H435.173V81.232L438.373 65.872L434.789 50.768V4.688H457.061V98ZM462.378 98V35.408H484.65V98H462.378ZM484.65 63.952L474.666 55.504C477.141 48.4213 480.426 43.088 484.522 39.504C488.618 35.92 493.952 34.128 500.522 34.128C503.509 34.128 506.069 34.512 508.202 35.28C510.421 36.048 512.298 37.2427 513.834 38.864L500.906 56.144C500.224 55.376 499.242 54.7787 497.962 54.352C496.768 53.84 495.402 53.584 493.866 53.584C490.965 53.584 488.704 54.48 487.082 56.272C485.461 57.9787 484.65 60.5387 484.65 63.952ZM539.671 99.408C532.93 99.408 526.914 98 521.623 95.184C516.418 92.2827 512.279 88.3573 509.207 83.408C506.135 78.3733 504.599 72.7413 504.599 66.512C504.599 60.2827 506.093 54.736 509.079 49.872C512.151 44.9227 516.333 41.04 521.623 38.224C526.914 35.3227 532.887 33.872 539.543 33.872C546.199 33.872 552.13 35.3227 557.335 38.224C562.626 41.04 566.807 44.9227 569.879 49.872C572.951 54.736 574.487 60.2827 574.487 66.512C574.487 72.7413 572.951 78.3733 569.879 83.408C566.893 88.3573 562.754 92.2827 557.463 95.184C552.258 98 546.327 99.408 539.671 99.408ZM539.543 79.568C542.018 79.568 544.151 79.056 545.943 78.032C547.821 76.9227 549.271 75.3867 550.295 73.424C551.319 71.4613 551.831 69.2 551.831 66.64C551.831 64.08 551.277 61.8613 550.167 59.984C549.143 58.0213 547.735 56.528 545.943 55.504C544.151 54.3947 542.018 53.84 539.543 53.84C537.154 53.84 535.021 54.3947 533.143 55.504C531.266 56.6133 529.815 58.1493 528.791 60.112C527.767 61.9893 527.255 64.208 527.255 66.768C527.255 69.2427 527.767 71.4613 528.791 73.424C529.815 75.3867 531.266 76.9227 533.143 78.032C535.021 79.056 537.154 79.568 539.543 79.568ZM612.891 99.28C608.881 99.28 605.169 98.5547 601.755 97.104C598.342 95.6533 595.526 93.6907 593.307 91.216C591.089 88.656 589.723 85.712 589.211 82.384V51.92C589.723 48.592 591.089 45.6053 593.307 42.96C595.611 40.2293 598.427 38.096 601.755 36.56C605.169 34.9387 608.881 34.128 612.891 34.128C618.95 34.128 624.283 35.536 628.891 38.352C633.499 41.0827 637.083 44.9227 639.643 49.872C642.289 54.8213 643.611 60.4533 643.611 66.768C643.611 72.9973 642.289 78.5867 639.643 83.536C637.083 88.4 633.499 92.24 628.891 95.056C624.283 97.872 618.95 99.28 612.891 99.28ZM575.643 124.496V35.408H597.915V51.152L594.203 66.256L597.403 81.488V124.496H575.643ZM608.667 79.44C611.142 79.44 613.318 78.8853 615.195 77.776C617.073 76.6667 618.523 75.1733 619.547 73.296C620.571 71.3333 621.083 69.1147 621.083 66.64C621.083 64.1653 620.571 61.9893 619.547 60.112C618.523 58.2347 617.073 56.7413 615.195 55.632C613.318 54.5227 611.185 53.968 608.795 53.968C606.491 53.968 604.401 54.5227 602.523 55.632C600.646 56.656 599.195 58.1493 598.171 60.112C597.147 61.9893 596.635 64.1653 596.635 66.64C596.635 69.1147 597.147 71.3333 598.171 73.296C599.195 75.1733 600.603 76.6667 602.395 77.776C604.273 78.8853 606.363 79.44 608.667 79.44ZM153.408 200.28C147.35 200.28 142.016 198.872 137.408 196.056C132.8 193.24 129.174 189.4 126.528 184.536C123.968 179.587 122.688 173.997 122.688 167.768C122.688 161.453 123.968 155.821 126.528 150.872C129.174 145.923 132.758 142.083 137.28 139.352C141.888 136.536 147.264 135.128 153.408 135.128C157.334 135.128 161.003 135.853 164.416 137.304C167.83 138.669 170.688 140.632 172.992 143.192C175.296 145.752 176.662 148.653 177.088 151.896V182.488C176.662 185.731 175.296 188.717 172.992 191.448C170.688 194.179 167.83 196.355 164.416 197.976C161.003 199.512 157.334 200.28 153.408 200.28ZM157.376 180.44C159.851 180.44 161.984 179.928 163.776 178.904C165.568 177.795 166.976 176.301 168 174.424C169.11 172.461 169.664 170.2 169.664 167.64C169.664 165.165 169.152 162.989 168.128 161.112C167.104 159.235 165.654 157.741 163.776 156.632C161.984 155.523 159.894 154.968 157.504 154.968C155.115 154.968 152.982 155.523 151.104 156.632C149.312 157.741 147.862 159.277 146.752 161.24C145.728 163.117 145.216 165.251 145.216 167.64C145.216 170.115 145.728 172.333 146.752 174.296C147.776 176.173 149.227 177.667 151.104 178.776C152.982 179.885 155.072 180.44 157.376 180.44ZM190.656 199H168.768V182.232L171.968 166.872L168.384 151.768V105.688H190.656V199ZM227.589 200.408C220.592 200.408 214.405 199.043 209.029 196.312C203.653 193.496 199.429 189.613 196.357 184.664C193.285 179.715 191.749 174.04 191.749 167.64C191.749 161.325 193.243 155.736 196.229 150.872C199.216 145.923 203.269 142.04 208.389 139.224C213.595 136.323 219.44 134.872 225.925 134.872C232.24 134.872 237.829 136.237 242.693 138.968C247.643 141.613 251.483 145.325 254.213 150.104C257.029 154.797 258.437 160.173 258.437 166.232C258.437 167.512 258.352 168.835 258.181 170.2C258.096 171.48 257.84 172.973 257.413 174.68L202.245 174.936V160.6L248.581 160.216L238.597 166.488C238.512 162.989 238 160.131 237.061 157.912C236.123 155.608 234.757 153.859 232.965 152.664C231.173 151.469 228.912 150.872 226.181 150.872C223.365 150.872 220.933 151.555 218.885 152.92C216.837 154.285 215.259 156.205 214.149 158.68C213.04 161.155 212.485 164.141 212.485 167.64C212.485 171.224 213.083 174.296 214.277 176.856C215.472 179.331 217.179 181.208 219.397 182.488C221.616 183.768 224.347 184.408 227.589 184.408C230.661 184.408 233.349 183.896 235.653 182.872C238.043 181.848 240.176 180.269 242.053 178.136L253.701 189.784C250.629 193.283 246.875 195.928 242.437 197.72C238.085 199.512 233.136 200.408 227.589 200.408ZM282.976 200.792C279.136 200.792 275.339 200.28 271.584 199.256C267.915 198.232 264.459 196.867 261.216 195.16C258.059 193.368 255.371 191.32 253.152 189.016L265.312 176.6C267.36 178.733 269.792 180.397 272.608 181.592C275.51 182.787 278.582 183.384 281.824 183.384C283.702 183.384 285.11 183.128 286.048 182.616C287.072 182.104 287.584 181.379 287.584 180.44C287.584 179.075 286.859 178.051 285.408 177.368C284.043 176.6 282.208 175.96 279.904 175.448C277.686 174.851 275.339 174.168 272.864 173.4C270.39 172.547 268 171.437 265.696 170.072C263.392 168.707 261.515 166.787 260.064 164.312C258.699 161.837 258.016 158.68 258.016 154.84C258.016 150.829 259.083 147.331 261.216 144.344C263.435 141.272 266.507 138.883 270.432 137.176C274.358 135.384 278.966 134.488 284.256 134.488C289.632 134.488 294.752 135.427 299.616 137.304C304.48 139.096 308.406 141.827 311.392 145.496L299.104 157.912C297.056 155.608 294.795 154.029 292.32 153.176C289.846 152.237 287.584 151.768 285.536 151.768C283.574 151.768 282.166 152.067 281.312 152.664C280.459 153.176 280.032 153.901 280.032 154.84C280.032 155.949 280.715 156.845 282.08 157.528C283.531 158.211 285.366 158.851 287.584 159.448C289.888 159.96 292.235 160.643 294.624 161.496C297.099 162.349 299.446 163.544 301.664 165.08C303.968 166.531 305.803 168.493 307.168 170.968C308.619 173.443 309.344 176.643 309.344 180.568C309.344 186.797 306.955 191.747 302.176 195.416C297.398 199 290.998 200.792 282.976 200.792ZM311.61 199V136.408H334.01V199H311.61ZM322.746 129.112C319.418 129.112 316.645 128.003 314.426 125.784C312.208 123.48 311.098 120.621 311.098 117.208C311.098 113.88 312.208 111.064 314.426 108.76C316.645 106.456 319.418 105.304 322.746 105.304C326.245 105.304 329.061 106.456 331.194 108.76C333.413 111.064 334.522 113.88 334.522 117.208C334.522 120.621 333.413 123.48 331.194 125.784C329.061 128.003 326.245 129.112 322.746 129.112ZM365.932 227.416C359.02 227.416 352.876 226.221 347.5 223.832C342.21 221.528 338.071 218.243 335.084 213.976L348.524 200.664C350.658 202.968 353.004 204.76 355.564 206.04C358.124 207.405 361.239 208.088 364.908 208.088C369.346 208.088 372.844 206.979 375.404 204.76C378.05 202.627 379.372 199.512 379.372 195.416V179.16L382.956 165.592L379.756 152.152V136.408H401.644V194.648C401.644 201.304 400.066 207.064 396.908 211.928C393.836 216.877 389.612 220.675 384.236 223.32C378.86 226.051 372.759 227.416 365.932 227.416ZM364.908 196.696C359.106 196.696 353.943 195.373 349.42 192.728C344.983 189.997 341.484 186.285 338.924 181.592C336.364 176.899 335.084 171.651 335.084 165.848C335.084 160.045 336.364 154.84 338.924 150.232C341.484 145.624 344.983 141.955 349.42 139.224C353.943 136.493 359.106 135.128 364.908 135.128C368.834 135.128 372.418 135.853 375.66 137.304C378.988 138.669 381.676 140.632 383.724 143.192C385.772 145.667 387.052 148.568 387.564 151.896V179.928C387.052 183.256 385.73 186.2 383.596 188.76C381.548 191.235 378.903 193.197 375.66 194.648C372.418 196.013 368.834 196.696 364.908 196.696ZM369.004 177.368C371.394 177.368 373.442 176.856 375.148 175.832C376.94 174.723 378.306 173.315 379.244 171.608C380.183 169.816 380.652 167.896 380.652 165.848C380.652 163.715 380.183 161.795 379.244 160.088C378.306 158.381 376.983 157.016 375.276 155.992C373.57 154.883 371.522 154.328 369.132 154.328C366.828 154.328 364.78 154.883 362.988 155.992C361.282 157.016 359.959 158.424 359.02 160.216C358.082 161.923 357.612 163.8 357.612 165.848C357.612 167.811 358.082 169.688 359.02 171.48C359.959 173.187 361.282 174.595 362.988 175.704C364.695 176.813 366.7 177.368 369.004 177.368ZM447.454 199V163.672C447.454 160.771 446.601 158.509 444.894 156.888C443.188 155.181 441.012 154.328 438.366 154.328C436.574 154.328 434.953 154.712 433.502 155.48C432.137 156.248 431.07 157.315 430.302 158.68C429.534 160.045 429.15 161.709 429.15 163.672L420.446 159.576C420.446 154.541 421.556 150.232 423.774 146.648C425.993 142.979 429.022 140.163 432.862 138.2C436.788 136.152 441.225 135.128 446.174 135.128C450.697 135.128 454.708 136.195 458.206 138.328C461.79 140.376 464.606 143.149 466.654 146.648C468.702 150.147 469.726 154.115 469.726 158.552V199H447.454ZM406.878 199V136.408H429.15V199H406.878ZM486.879 200.408C483.125 200.408 480.053 199.171 477.663 196.696C475.274 194.221 474.079 191.149 474.079 187.48C474.079 183.811 475.274 180.739 477.663 178.264C480.053 175.789 483.125 174.552 486.879 174.552C490.549 174.552 493.578 175.789 495.967 178.264C498.357 180.739 499.551 183.811 499.551 187.48C499.551 191.149 498.357 194.221 495.967 196.696C493.578 199.171 490.549 200.408 486.879 200.408Z"/>
</mask>
<path d="M167.104 98V62.672C167.104 59.7707 166.251 57.5093 164.544 55.888C162.838 54.1813 160.662 53.328 158.016 53.328C156.224 53.328 154.603 53.712 153.152 54.48C151.787 55.248 150.72 56.3147 149.952 57.68C149.184 59.0453 148.8 60.7093 148.8 62.672L140.096 58.576C140.096 53.5413 141.206 49.232 143.424 45.648C145.643 41.9787 148.672 39.1627 152.512 37.2C156.438 35.152 160.875 34.128 165.824 34.128C170.347 34.128 174.358 35.1947 177.856 37.328C181.44 39.376 184.256 42.1493 186.304 45.648C188.352 49.1467 189.376 53.1147 189.376 57.552V98H167.104ZM126.528 98V35.408H148.8V98H126.528ZM224.321 99.408C217.58 99.408 211.564 98 206.273 95.184C201.068 92.2827 196.929 88.3573 193.857 83.408C190.785 78.3733 189.249 72.7413 189.249 66.512C189.249 60.2827 190.743 54.736 193.729 49.872C196.801 44.9227 200.983 41.04 206.273 38.224C211.564 35.3227 217.537 33.872 224.193 33.872C230.849 33.872 236.78 35.3227 241.985 38.224C247.276 41.04 251.457 44.9227 254.529 49.872C257.601 54.736 259.137 60.2827 259.137 66.512C259.137 72.7413 257.601 78.3733 254.529 83.408C251.543 88.3573 247.404 92.2827 242.113 95.184C236.908 98 230.977 99.408 224.321 99.408ZM224.193 79.568C226.668 79.568 228.801 79.056 230.593 78.032C232.471 76.9227 233.921 75.3867 234.945 73.424C235.969 71.4613 236.481 69.2 236.481 66.64C236.481 64.08 235.927 61.8613 234.817 59.984C233.793 58.0213 232.385 56.528 230.593 55.504C228.801 54.3947 226.668 53.84 224.193 53.84C221.804 53.84 219.671 54.3947 217.793 55.504C215.916 56.6133 214.465 58.1493 213.441 60.112C212.417 61.9893 211.905 64.208 211.905 66.768C211.905 69.2427 212.417 71.4613 213.441 73.424C214.465 75.3867 215.916 76.9227 217.793 78.032C219.671 79.056 221.804 79.568 224.193 79.568ZM287.173 99.28C281.115 99.28 275.781 97.872 271.173 95.056C266.565 92.24 262.939 88.4 260.293 83.536C257.733 78.5867 256.453 72.9973 256.453 66.768C256.453 60.4533 257.733 54.8213 260.293 49.872C262.939 44.9227 266.523 41.0827 271.045 38.352C275.653 35.536 281.029 34.128 287.173 34.128C291.099 34.128 294.768 34.8533 298.181 36.304C301.595 37.6693 304.453 39.632 306.757 42.192C309.061 44.752 310.427 47.6533 310.853 50.896V81.488C310.427 84.7307 309.061 87.7173 306.757 90.448C304.453 93.1787 301.595 95.3547 298.181 96.976C294.768 98.512 291.099 99.28 287.173 99.28ZM291.141 79.44C293.616 79.44 295.749 78.928 297.541 77.904C299.333 76.7947 300.741 75.3013 301.765 73.424C302.875 71.4613 303.429 69.2 303.429 66.64C303.429 64.1653 302.917 61.9893 301.893 60.112C300.869 58.2347 299.419 56.7413 297.541 55.632C295.749 54.5227 293.659 53.968 291.269 53.968C288.88 53.968 286.747 54.5227 284.869 55.632C283.077 56.7413 281.627 58.2773 280.517 60.24C279.493 62.1173 278.981 64.2507 278.981 66.64C278.981 69.1147 279.493 71.3333 280.517 73.296C281.541 75.1733 282.992 76.6667 284.869 77.776C286.747 78.8853 288.837 79.44 291.141 79.44ZM324.421 98H302.533V81.232L305.733 65.872L302.149 50.768V4.688H324.421V98ZM361.354 99.408C354.357 99.408 348.17 98.0427 342.794 95.312C337.418 92.496 333.194 88.6133 330.122 83.664C327.05 78.7147 325.514 73.04 325.514 66.64C325.514 60.3253 327.008 54.736 329.994 49.872C332.981 44.9227 337.034 41.04 342.154 38.224C347.36 35.3227 353.205 33.872 359.69 33.872C366.005 33.872 371.594 35.2373 376.458 37.968C381.408 40.6133 385.248 44.3253 387.978 49.104C390.794 53.7973 392.202 59.1733 392.202 65.232C392.202 66.512 392.117 67.8347 391.946 69.2C391.861 70.48 391.605 71.9733 391.178 73.68L336.01 73.936V59.6L382.346 59.216L372.362 65.488C372.277 61.9893 371.765 59.1307 370.826 56.912C369.888 54.608 368.522 52.8587 366.73 51.664C364.938 50.4693 362.677 49.872 359.946 49.872C357.13 49.872 354.698 50.5547 352.65 51.92C350.602 53.2853 349.024 55.2053 347.914 57.68C346.805 60.1547 346.25 63.1413 346.25 66.64C346.25 70.224 346.848 73.296 348.042 75.856C349.237 78.3307 350.944 80.208 353.162 81.488C355.381 82.768 358.112 83.408 361.354 83.408C364.426 83.408 367.114 82.896 369.418 81.872C371.808 80.848 373.941 79.2693 375.818 77.136L387.466 88.784C384.394 92.2827 380.64 94.928 376.202 96.72C371.85 98.512 366.901 99.408 361.354 99.408ZM419.813 99.28C413.755 99.28 408.421 97.872 403.813 95.056C399.205 92.24 395.579 88.4 392.933 83.536C390.373 78.5867 389.093 72.9973 389.093 66.768C389.093 60.4533 390.373 54.8213 392.933 49.872C395.579 44.9227 399.163 41.0827 403.685 38.352C408.293 35.536 413.669 34.128 419.813 34.128C423.739 34.128 427.408 34.8533 430.821 36.304C434.235 37.6693 437.093 39.632 439.397 42.192C441.701 44.752 443.067 47.6533 443.493 50.896V81.488C443.067 84.7307 441.701 87.7173 439.397 90.448C437.093 93.1787 434.235 95.3547 430.821 96.976C427.408 98.512 423.739 99.28 419.813 99.28ZM423.781 79.44C426.256 79.44 428.389 78.928 430.181 77.904C431.973 76.7947 433.381 75.3013 434.405 73.424C435.515 71.4613 436.069 69.2 436.069 66.64C436.069 64.1653 435.557 61.9893 434.533 60.112C433.509 58.2347 432.059 56.7413 430.181 55.632C428.389 54.5227 426.299 53.968 423.909 53.968C421.52 53.968 419.387 54.5227 417.509 55.632C415.717 56.7413 414.267 58.2773 413.157 60.24C412.133 62.1173 411.621 64.2507 411.621 66.64C411.621 69.1147 412.133 71.3333 413.157 73.296C414.181 75.1733 415.632 76.6667 417.509 77.776C419.387 78.8853 421.477 79.44 423.781 79.44ZM457.061 98H435.173V81.232L438.373 65.872L434.789 50.768V4.688H457.061V98ZM462.378 98V35.408H484.65V98H462.378ZM484.65 63.952L474.666 55.504C477.141 48.4213 480.426 43.088 484.522 39.504C488.618 35.92 493.952 34.128 500.522 34.128C503.509 34.128 506.069 34.512 508.202 35.28C510.421 36.048 512.298 37.2427 513.834 38.864L500.906 56.144C500.224 55.376 499.242 54.7787 497.962 54.352C496.768 53.84 495.402 53.584 493.866 53.584C490.965 53.584 488.704 54.48 487.082 56.272C485.461 57.9787 484.65 60.5387 484.65 63.952ZM539.671 99.408C532.93 99.408 526.914 98 521.623 95.184C516.418 92.2827 512.279 88.3573 509.207 83.408C506.135 78.3733 504.599 72.7413 504.599 66.512C504.599 60.2827 506.093 54.736 509.079 49.872C512.151 44.9227 516.333 41.04 521.623 38.224C526.914 35.3227 532.887 33.872 539.543 33.872C546.199 33.872 552.13 35.3227 557.335 38.224C562.626 41.04 566.807 44.9227 569.879 49.872C572.951 54.736 574.487 60.2827 574.487 66.512C574.487 72.7413 572.951 78.3733 569.879 83.408C566.893 88.3573 562.754 92.2827 557.463 95.184C552.258 98 546.327 99.408 539.671 99.408ZM539.543 79.568C542.018 79.568 544.151 79.056 545.943 78.032C547.821 76.9227 549.271 75.3867 550.295 73.424C551.319 71.4613 551.831 69.2 551.831 66.64C551.831 64.08 551.277 61.8613 550.167 59.984C549.143 58.0213 547.735 56.528 545.943 55.504C544.151 54.3947 542.018 53.84 539.543 53.84C537.154 53.84 535.021 54.3947 533.143 55.504C531.266 56.6133 529.815 58.1493 528.791 60.112C527.767 61.9893 527.255 64.208 527.255 66.768C527.255 69.2427 527.767 71.4613 528.791 73.424C529.815 75.3867 531.266 76.9227 533.143 78.032C535.021 79.056 537.154 79.568 539.543 79.568ZM612.891 99.28C608.881 99.28 605.169 98.5547 601.755 97.104C598.342 95.6533 595.526 93.6907 593.307 91.216C591.089 88.656 589.723 85.712 589.211 82.384V51.92C589.723 48.592 591.089 45.6053 593.307 42.96C595.611 40.2293 598.427 38.096 601.755 36.56C605.169 34.9387 608.881 34.128 612.891 34.128C618.95 34.128 624.283 35.536 628.891 38.352C633.499 41.0827 637.083 44.9227 639.643 49.872C642.289 54.8213 643.611 60.4533 643.611 66.768C643.611 72.9973 642.289 78.5867 639.643 83.536C637.083 88.4 633.499 92.24 628.891 95.056C624.283 97.872 618.95 99.28 612.891 99.28ZM575.643 124.496V35.408H597.915V51.152L594.203 66.256L597.403 81.488V124.496H575.643ZM608.667 79.44C611.142 79.44 613.318 78.8853 615.195 77.776C617.073 76.6667 618.523 75.1733 619.547 73.296C620.571 71.3333 621.083 69.1147 621.083 66.64C621.083 64.1653 620.571 61.9893 619.547 60.112C618.523 58.2347 617.073 56.7413 615.195 55.632C613.318 54.5227 611.185 53.968 608.795 53.968C606.491 53.968 604.401 54.5227 602.523 55.632C600.646 56.656 599.195 58.1493 598.171 60.112C597.147 61.9893 596.635 64.1653 596.635 66.64C596.635 69.1147 597.147 71.3333 598.171 73.296C599.195 75.1733 600.603 76.6667 602.395 77.776C604.273 78.8853 606.363 79.44 608.667 79.44ZM153.408 200.28C147.35 200.28 142.016 198.872 137.408 196.056C132.8 193.24 129.174 189.4 126.528 184.536C123.968 179.587 122.688 173.997 122.688 167.768C122.688 161.453 123.968 155.821 126.528 150.872C129.174 145.923 132.758 142.083 137.28 139.352C141.888 136.536 147.264 135.128 153.408 135.128C157.334 135.128 161.003 135.853 164.416 137.304C167.83 138.669 170.688 140.632 172.992 143.192C175.296 145.752 176.662 148.653 177.088 151.896V182.488C176.662 185.731 175.296 188.717 172.992 191.448C170.688 194.179 167.83 196.355 164.416 197.976C161.003 199.512 157.334 200.28 153.408 200.28ZM157.376 180.44C159.851 180.44 161.984 179.928 163.776 178.904C165.568 177.795 166.976 176.301 168 174.424C169.11 172.461 169.664 170.2 169.664 167.64C169.664 165.165 169.152 162.989 168.128 161.112C167.104 159.235 165.654 157.741 163.776 156.632C161.984 155.523 159.894 154.968 157.504 154.968C155.115 154.968 152.982 155.523 151.104 156.632C149.312 157.741 147.862 159.277 146.752 161.24C145.728 163.117 145.216 165.251 145.216 167.64C145.216 170.115 145.728 172.333 146.752 174.296C147.776 176.173 149.227 177.667 151.104 178.776C152.982 179.885 155.072 180.44 157.376 180.44ZM190.656 199H168.768V182.232L171.968 166.872L168.384 151.768V105.688H190.656V199ZM227.589 200.408C220.592 200.408 214.405 199.043 209.029 196.312C203.653 193.496 199.429 189.613 196.357 184.664C193.285 179.715 191.749 174.04 191.749 167.64C191.749 161.325 193.243 155.736 196.229 150.872C199.216 145.923 203.269 142.04 208.389 139.224C213.595 136.323 219.44 134.872 225.925 134.872C232.24 134.872 237.829 136.237 242.693 138.968C247.643 141.613 251.483 145.325 254.213 150.104C257.029 154.797 258.437 160.173 258.437 166.232C258.437 167.512 258.352 168.835 258.181 170.2C258.096 171.48 257.84 172.973 257.413 174.68L202.245 174.936V160.6L248.581 160.216L238.597 166.488C238.512 162.989 238 160.131 237.061 157.912C236.123 155.608 234.757 153.859 232.965 152.664C231.173 151.469 228.912 150.872 226.181 150.872C223.365 150.872 220.933 151.555 218.885 152.92C216.837 154.285 215.259 156.205 214.149 158.68C213.04 161.155 212.485 164.141 212.485 167.64C212.485 171.224 213.083 174.296 214.277 176.856C215.472 179.331 217.179 181.208 219.397 182.488C221.616 183.768 224.347 184.408 227.589 184.408C230.661 184.408 233.349 183.896 235.653 182.872C238.043 181.848 240.176 180.269 242.053 178.136L253.701 189.784C250.629 193.283 246.875 195.928 242.437 197.72C238.085 199.512 233.136 200.408 227.589 200.408ZM282.976 200.792C279.136 200.792 275.339 200.28 271.584 199.256C267.915 198.232 264.459 196.867 261.216 195.16C258.059 193.368 255.371 191.32 253.152 189.016L265.312 176.6C267.36 178.733 269.792 180.397 272.608 181.592C275.51 182.787 278.582 183.384 281.824 183.384C283.702 183.384 285.11 183.128 286.048 182.616C287.072 182.104 287.584 181.379 287.584 180.44C287.584 179.075 286.859 178.051 285.408 177.368C284.043 176.6 282.208 175.96 279.904 175.448C277.686 174.851 275.339 174.168 272.864 173.4C270.39 172.547 268 171.437 265.696 170.072C263.392 168.707 261.515 166.787 260.064 164.312C258.699 161.837 258.016 158.68 258.016 154.84C258.016 150.829 259.083 147.331 261.216 144.344C263.435 141.272 266.507 138.883 270.432 137.176C274.358 135.384 278.966 134.488 284.256 134.488C289.632 134.488 294.752 135.427 299.616 137.304C304.48 139.096 308.406 141.827 311.392 145.496L299.104 157.912C297.056 155.608 294.795 154.029 292.32 153.176C289.846 152.237 287.584 151.768 285.536 151.768C283.574 151.768 282.166 152.067 281.312 152.664C280.459 153.176 280.032 153.901 280.032 154.84C280.032 155.949 280.715 156.845 282.08 157.528C283.531 158.211 285.366 158.851 287.584 159.448C289.888 159.96 292.235 160.643 294.624 161.496C297.099 162.349 299.446 163.544 301.664 165.08C303.968 166.531 305.803 168.493 307.168 170.968C308.619 173.443 309.344 176.643 309.344 180.568C309.344 186.797 306.955 191.747 302.176 195.416C297.398 199 290.998 200.792 282.976 200.792ZM311.61 199V136.408H334.01V199H311.61ZM322.746 129.112C319.418 129.112 316.645 128.003 314.426 125.784C312.208 123.48 311.098 120.621 311.098 117.208C311.098 113.88 312.208 111.064 314.426 108.76C316.645 106.456 319.418 105.304 322.746 105.304C326.245 105.304 329.061 106.456 331.194 108.76C333.413 111.064 334.522 113.88 334.522 117.208C334.522 120.621 333.413 123.48 331.194 125.784C329.061 128.003 326.245 129.112 322.746 129.112ZM365.932 227.416C359.02 227.416 352.876 226.221 347.5 223.832C342.21 221.528 338.071 218.243 335.084 213.976L348.524 200.664C350.658 202.968 353.004 204.76 355.564 206.04C358.124 207.405 361.239 208.088 364.908 208.088C369.346 208.088 372.844 206.979 375.404 204.76C378.05 202.627 379.372 199.512 379.372 195.416V179.16L382.956 165.592L379.756 152.152V136.408H401.644V194.648C401.644 201.304 400.066 207.064 396.908 211.928C393.836 216.877 389.612 220.675 384.236 223.32C378.86 226.051 372.759 227.416 365.932 227.416ZM364.908 196.696C359.106 196.696 353.943 195.373 349.42 192.728C344.983 189.997 341.484 186.285 338.924 181.592C336.364 176.899 335.084 171.651 335.084 165.848C335.084 160.045 336.364 154.84 338.924 150.232C341.484 145.624 344.983 141.955 349.42 139.224C353.943 136.493 359.106 135.128 364.908 135.128C368.834 135.128 372.418 135.853 375.66 137.304C378.988 138.669 381.676 140.632 383.724 143.192C385.772 145.667 387.052 148.568 387.564 151.896V179.928C387.052 183.256 385.73 186.2 383.596 188.76C381.548 191.235 378.903 193.197 375.66 194.648C372.418 196.013 368.834 196.696 364.908 196.696ZM369.004 177.368C371.394 177.368 373.442 176.856 375.148 175.832C376.94 174.723 378.306 173.315 379.244 171.608C380.183 169.816 380.652 167.896 380.652 165.848C380.652 163.715 380.183 161.795 379.244 160.088C378.306 158.381 376.983 157.016 375.276 155.992C373.57 154.883 371.522 154.328 369.132 154.328C366.828 154.328 364.78 154.883 362.988 155.992C361.282 157.016 359.959 158.424 359.02 160.216C358.082 161.923 357.612 163.8 357.612 165.848C357.612 167.811 358.082 169.688 359.02 171.48C359.959 173.187 361.282 174.595 362.988 175.704C364.695 176.813 366.7 177.368 369.004 177.368ZM447.454 199V163.672C447.454 160.771 446.601 158.509 444.894 156.888C443.188 155.181 441.012 154.328 438.366 154.328C436.574 154.328 434.953 154.712 433.502 155.48C432.137 156.248 431.07 157.315 430.302 158.68C429.534 160.045 429.15 161.709 429.15 163.672L420.446 159.576C420.446 154.541 421.556 150.232 423.774 146.648C425.993 142.979 429.022 140.163 432.862 138.2C436.788 136.152 441.225 135.128 446.174 135.128C450.697 135.128 454.708 136.195 458.206 138.328C461.79 140.376 464.606 143.149 466.654 146.648C468.702 150.147 469.726 154.115 469.726 158.552V199H447.454ZM406.878 199V136.408H429.15V199H406.878ZM486.879 200.408C483.125 200.408 480.053 199.171 477.663 196.696C475.274 194.221 474.079 191.149 474.079 187.48C474.079 183.811 475.274 180.739 477.663 178.264C480.053 175.789 483.125 174.552 486.879 174.552C490.549 174.552 493.578 175.789 495.967 178.264C498.357 180.739 499.551 183.811 499.551 187.48C499.551 191.149 498.357 194.221 495.967 196.696C493.578 199.171 490.549 200.408 486.879 200.408Z" fill="white"/>
<path d="M167.104 98H159.104V106H167.104V98ZM164.544 55.888L158.887 61.5449L158.96 61.6174L159.034 61.688L164.544 55.888ZM153.152 54.48L149.409 47.4097L149.319 47.4574L149.23 47.5074L153.152 54.48ZM148.8 62.672L145.394 69.9105L156.8 75.2783V62.672H148.8ZM140.096 58.576H132.096V63.6528L136.69 65.8145L140.096 58.576ZM143.424 45.648L150.226 49.8588L150.248 49.8232L150.27 49.7874L143.424 45.648ZM152.512 37.2L156.153 44.3235L156.183 44.3082L156.213 44.2927L152.512 37.2ZM177.856 37.328L173.691 44.1584L173.788 44.2175L173.887 44.2739L177.856 37.328ZM186.304 45.648L179.4 49.6894L179.4 49.6894L186.304 45.648ZM189.376 98V106H197.376V98H189.376ZM126.528 98H118.528V106H126.528V98ZM126.528 35.408V27.408H118.528V35.408H126.528ZM148.8 35.408H156.8V27.408H148.8V35.408ZM148.8 98V106H156.8V98H148.8ZM175.104 98V62.672H159.104V98H175.104ZM175.104 62.672C175.104 58.1232 173.707 53.5582 170.054 50.088L159.034 61.688C159.025 61.6791 159.005 61.657 158.985 61.6277C158.966 61.599 158.967 61.5919 158.979 61.6245C159.005 61.6916 159.104 61.9979 159.104 62.672H175.104ZM170.201 50.2311C166.843 46.8729 162.559 45.328 158.016 45.328V61.328C158.47 61.328 158.669 61.3989 158.712 61.4158C158.74 61.427 158.787 61.4445 158.887 61.5449L170.201 50.2311ZM158.016 45.328C155.042 45.328 152.117 45.9764 149.409 47.4097L156.895 61.5503C157.089 61.4476 157.407 61.328 158.016 61.328V45.328ZM149.23 47.5074C146.588 48.9937 144.466 51.1156 142.98 53.7579L156.925 61.6021C156.947 61.5633 156.963 61.5408 156.971 61.5299C156.979 61.5192 156.983 61.5146 156.985 61.5129C156.987 61.5111 156.991 61.5066 157.002 61.4985C157.013 61.4903 157.036 61.4744 157.074 61.4526L149.23 47.5074ZM142.98 53.7579C141.388 56.5873 140.8 59.6777 140.8 62.672H156.8C156.8 61.741 156.98 61.5033 156.925 61.6021L142.98 53.7579ZM152.207 55.4334L143.503 51.3374L136.69 65.8145L145.394 69.9105L152.207 55.4334ZM148.096 58.576C148.096 54.7372 148.931 51.9509 150.226 49.8588L136.622 41.4372C133.48 46.5131 132.096 52.3454 132.096 58.576H148.096ZM150.27 49.7874C151.714 47.3992 153.63 45.613 156.153 44.3235L148.871 30.0765C143.714 32.7123 139.572 36.5582 136.578 41.5086L150.27 49.7874ZM156.213 44.2927C158.867 42.9081 162.009 42.128 165.824 42.128V26.128C159.74 26.128 154.009 27.3959 148.812 30.1073L156.213 44.2927ZM165.824 42.128C169.035 42.128 171.575 42.8679 173.691 44.1584L182.021 30.4976C177.14 27.5215 171.659 26.128 165.824 26.128V42.128ZM173.887 44.2739C176.279 45.6406 178.073 47.422 179.4 49.6894L193.208 41.6066C190.44 36.8767 186.602 33.1114 181.825 30.3821L173.887 44.2739ZM179.4 49.6894C180.664 51.848 181.376 54.3969 181.376 57.552H197.376C197.376 51.8324 196.041 46.4453 193.208 41.6066L179.4 49.6894ZM181.376 57.552V98H197.376V57.552H181.376ZM189.376 90H167.104V106H189.376V90ZM134.528 98V35.408H118.528V98H134.528ZM126.528 43.408H148.8V27.408H126.528V43.408ZM140.8 35.408V98H156.8V35.408H140.8ZM148.8 90H126.528V106H148.8V90ZM206.273 95.184L202.378 102.172L202.446 102.21L202.514 102.246L206.273 95.184ZM193.857 83.408L187.028 87.5749L187.044 87.601L187.06 87.6269L193.857 83.408ZM193.729 49.872L186.932 45.6531L186.922 45.6695L186.912 45.6859L193.729 49.872ZM206.273 38.224L210.032 45.286L210.076 45.2625L210.12 45.2385L206.273 38.224ZM241.985 38.224L238.09 45.2118L238.158 45.2496L238.226 45.286L241.985 38.224ZM254.529 49.872L247.732 54.0909L247.749 54.1175L247.765 54.1439L254.529 49.872ZM254.529 83.408L247.7 79.2411L247.69 79.2579L247.68 79.2747L254.529 83.408ZM242.113 95.184L245.92 102.22L245.94 102.209L245.96 102.198L242.113 95.184ZM230.593 78.032L234.562 84.9779L234.613 84.949L234.663 84.9194L230.593 78.032ZM234.945 73.424L242.038 77.1245L242.038 77.1245L234.945 73.424ZM234.817 59.984L227.725 63.6845L227.822 63.8719L227.93 64.0538L234.817 59.984ZM230.593 55.504L226.382 62.3061L226.502 62.3802L226.624 62.4499L230.593 55.504ZM213.441 60.112L220.464 63.9428L220.5 63.878L220.534 63.8125L213.441 60.112ZM213.441 73.424L220.534 69.7235L220.534 69.7235L213.441 73.424ZM217.793 78.032L213.723 84.9194L213.842 84.9893L213.962 85.0552L217.793 78.032ZM224.321 91.408C218.725 91.408 214.028 90.2486 210.032 88.122L202.514 102.246C209.1 105.751 216.435 107.408 224.321 107.408V91.408ZM210.168 88.1962C206.121 85.9405 202.993 82.9565 200.654 79.1891L187.06 87.6269C190.866 93.7581 196.015 98.6249 202.378 102.172L210.168 88.1962ZM200.686 79.2411C198.424 75.5331 197.249 71.3574 197.249 66.512H181.249C181.249 74.1253 183.147 81.2136 187.028 87.5749L200.686 79.2411ZM197.249 66.512C197.249 61.6207 198.403 57.5487 200.547 54.0581L186.912 45.6859C183.082 51.9233 181.249 58.9446 181.249 66.512H197.249ZM200.526 54.0909C202.832 50.3764 205.95 47.4589 210.032 45.286L202.514 31.162C196.016 34.6211 190.771 39.4689 186.932 45.6531L200.526 54.0909ZM210.12 45.2385C214.113 43.0486 218.74 41.872 224.193 41.872V25.872C216.334 25.872 209.015 27.5968 202.427 31.2095L210.12 45.2385ZM224.193 41.872C229.648 41.872 234.21 43.0491 238.09 45.2118L245.88 31.2362C239.35 27.5962 232.05 25.872 224.193 25.872V41.872ZM238.226 45.286C242.309 47.4589 245.427 50.3764 247.732 54.0909L261.326 45.6531C257.488 39.4689 252.243 34.6211 245.744 31.162L238.226 45.286ZM247.765 54.1439C249.963 57.6235 251.137 61.6646 251.137 66.512H267.137C267.137 58.9008 265.24 51.8485 261.293 45.6001L247.765 54.1439ZM251.137 66.512C251.137 71.3574 249.963 75.5331 247.7 79.2411L261.358 87.5749C265.24 81.2136 267.137 74.1253 267.137 66.512H251.137ZM247.68 79.2747C245.455 82.9615 242.376 85.9158 238.267 88.1695L245.96 102.198C252.432 98.6495 257.63 93.7532 261.379 87.5413L247.68 79.2747ZM238.307 88.1477C234.41 90.2557 229.816 91.408 224.321 91.408V107.408C232.138 107.408 239.406 105.744 245.92 102.22L238.307 88.1477ZM224.193 87.568C227.783 87.568 231.342 86.8183 234.562 84.9779L226.624 71.0861C226.261 71.2937 225.553 71.568 224.193 71.568V87.568ZM234.663 84.9194C237.846 83.0385 240.334 80.3895 242.038 77.1245L227.853 69.7235C227.508 70.3839 227.095 70.8068 226.523 71.1446L234.663 84.9194ZM242.038 77.1245C243.745 73.8526 244.481 70.2862 244.481 66.64H228.481C228.481 68.1138 228.193 69.0701 227.853 69.7235L242.038 77.1245ZM244.481 66.64C244.481 62.8998 243.66 59.224 241.705 55.9142L227.93 64.0538C228.193 64.4986 228.481 65.2602 228.481 66.64H244.481ZM241.91 56.2835C240.231 53.0652 237.782 50.398 234.562 48.5581L226.624 62.4499C226.988 62.658 227.356 62.9775 227.725 63.6845L241.91 56.2835ZM234.804 48.7019C231.541 46.6818 227.893 45.84 224.193 45.84V61.84C225.443 61.84 226.062 62.1075 226.382 62.3061L234.804 48.7019ZM224.193 45.84C220.513 45.84 216.95 46.7103 213.723 48.6166L221.863 62.3914C222.392 62.0791 223.094 61.84 224.193 61.84V45.84ZM213.723 48.6166C210.54 50.4975 208.052 53.1465 206.349 56.4115L220.534 63.8125C220.878 63.1521 221.291 62.7292 221.863 62.3914L213.723 48.6166ZM206.418 56.2812C204.638 59.5447 203.905 63.1325 203.905 66.768H219.905C219.905 65.2835 220.197 64.4339 220.464 63.9428L206.418 56.2812ZM203.905 66.768C203.905 70.3772 204.661 73.8903 206.349 77.1245L220.534 69.7235C220.173 69.0324 219.905 68.1081 219.905 66.768H203.905ZM206.349 77.1245C208.052 80.3895 210.54 83.0385 213.723 84.9194L221.863 71.1446C221.291 70.8068 220.878 70.3839 220.534 69.7235L206.349 77.1245ZM213.962 85.0552C217.148 86.7925 220.625 87.568 224.193 87.568V71.568C222.983 71.568 222.194 71.3195 221.624 71.0088L213.962 85.0552ZM271.173 95.056L275.345 88.2297L275.345 88.2297L271.173 95.056ZM260.293 83.536L253.188 87.2114L253.226 87.2852L253.265 87.3582L260.293 83.536ZM260.293 49.872L253.238 46.101L253.212 46.1486L253.188 46.1966L260.293 49.872ZM271.045 38.352L275.18 45.2005L275.199 45.1894L275.217 45.1783L271.045 38.352ZM298.181 36.304L295.052 43.6666L295.131 43.7001L295.21 43.7318L298.181 36.304ZM306.757 42.192L312.704 36.8403L312.704 36.8403L306.757 42.192ZM310.853 50.896H318.853V50.3719L318.785 49.8524L310.853 50.896ZM310.853 81.488L318.785 82.5316L318.853 82.0121V81.488H310.853ZM306.757 90.448L312.872 95.607L312.872 95.607L306.757 90.448ZM298.181 96.976L301.464 104.271L301.539 104.238L301.614 104.202L298.181 96.976ZM297.541 77.904L301.51 84.8499L301.632 84.7802L301.752 84.7061L297.541 77.904ZM301.765 73.424L294.801 69.4875L294.771 69.5401L294.742 69.5932L301.765 73.424ZM301.893 60.112L294.87 63.9428L294.87 63.9428L301.893 60.112ZM297.541 55.632L293.33 62.4341L293.4 62.4775L293.471 62.5194L297.541 55.632ZM284.869 55.632L280.799 48.7446L280.728 48.7865L280.658 48.8299L284.869 55.632ZM280.517 60.24L273.553 56.3035L273.523 56.3561L273.494 56.4092L280.517 60.24ZM280.517 73.296L273.425 76.9965L273.459 77.062L273.494 77.1268L280.517 73.296ZM324.421 98V106H332.421V98H324.421ZM302.533 98H294.533V106H302.533V98ZM302.533 81.232L294.701 79.6004L294.533 80.4075V81.232H302.533ZM305.733 65.872L313.565 67.5036L313.929 65.759L313.517 64.025L305.733 65.872ZM302.149 50.768H294.149V51.7042L294.365 52.615L302.149 50.768ZM302.149 4.688V-3.312H294.149V4.688H302.149ZM324.421 4.688H332.421V-3.312H324.421V4.688ZM287.173 91.28C282.402 91.28 278.548 90.1874 275.345 88.2297L267.002 101.882C273.014 105.557 279.827 107.28 287.173 107.28V91.28ZM275.345 88.2297C271.968 86.1659 269.313 83.3756 267.321 79.7138L253.265 87.3582C256.565 93.4244 261.163 98.3141 267.002 101.882L275.345 88.2297ZM267.399 79.8606C265.493 76.1757 264.453 71.8712 264.453 66.768H248.453C248.453 74.1235 249.973 80.9976 253.188 87.2114L267.399 79.8606ZM264.453 66.768C264.453 61.5603 265.501 57.2171 267.399 53.5474L253.188 46.1966C249.966 52.4255 248.453 59.3464 248.453 66.768H264.453ZM267.349 53.643C269.359 49.8815 271.968 47.1401 275.18 45.2005L266.91 31.5035C261.077 35.0252 256.518 39.9639 253.238 46.101L267.349 53.643ZM275.217 45.1783C278.403 43.2312 282.294 42.128 287.173 42.128V26.128C279.764 26.128 272.904 27.8408 266.874 31.5257L275.217 45.1783ZM287.173 42.128C290.087 42.128 292.685 42.6608 295.052 43.6666L301.31 28.9413C296.85 27.0459 292.11 26.128 287.173 26.128V42.128ZM295.21 43.7318C297.564 44.6735 299.381 45.9552 300.811 47.5437L312.704 36.8403C309.525 33.3088 305.625 30.6652 301.152 28.8762L295.21 43.7318ZM300.811 47.5437C302.094 48.9689 302.717 50.3883 302.922 51.9396L318.785 49.8524C318.136 44.9183 316.029 40.5351 312.704 36.8403L300.811 47.5437ZM302.853 50.896V81.488H318.853V50.896H302.853ZM302.922 80.4444C302.713 82.0302 302.055 83.6157 300.643 85.289L312.872 95.607C316.068 91.8189 318.14 87.4311 318.785 82.5316L302.922 80.4444ZM300.643 85.289C299.117 87.0972 297.192 88.5895 294.749 89.7498L301.614 104.202C305.998 102.12 309.789 99.2601 312.872 95.607L300.643 85.289ZM294.898 89.6806C292.567 90.7296 290.023 91.28 287.173 91.28V107.28C292.174 107.28 296.969 106.294 301.464 104.271L294.898 89.6806ZM291.141 87.44C294.731 87.44 298.29 86.6903 301.51 84.8499L293.572 70.9581C293.209 71.1657 292.501 71.44 291.141 71.44V87.44ZM301.752 84.7061C304.741 82.8557 307.111 80.3309 308.788 77.2548L294.742 69.5932C294.372 70.2718 293.925 70.7336 293.33 71.1019L301.752 84.7061ZM308.73 77.3605C310.606 74.0417 311.429 70.3896 311.429 66.64H295.429C295.429 68.0104 295.144 68.881 294.801 69.4875L308.73 77.3605ZM311.429 66.64C311.429 63.0388 310.676 59.5067 308.916 56.2812L294.87 63.9428C295.159 64.472 295.429 65.2919 295.429 66.64H311.429ZM308.916 56.2812C307.187 53.1113 304.705 50.5726 301.611 48.7446L293.471 62.5194C294.132 62.91 294.551 63.358 294.87 63.9428L308.916 56.2812ZM301.752 48.8299C298.532 46.8367 294.942 45.968 291.269 45.968V61.968C292.375 61.968 292.966 62.2086 293.33 62.4341L301.752 48.8299ZM291.269 45.968C287.589 45.968 284.026 46.8383 280.799 48.7446L288.939 62.5194C289.468 62.2071 290.17 61.968 291.269 61.968V45.968ZM280.658 48.8299C277.643 50.6968 275.277 53.2534 273.553 56.3035L287.482 64.1765C287.976 63.3013 288.512 62.7859 289.08 62.4341L280.658 48.8299ZM273.494 56.4092C271.757 59.5944 270.981 63.0719 270.981 66.64H286.981C286.981 65.4294 287.23 64.6403 287.54 64.0708L273.494 56.4092ZM270.981 66.64C270.981 70.2492 271.737 73.7623 273.425 76.9965L287.61 69.5955C287.249 68.9044 286.981 67.9801 286.981 66.64H270.981ZM273.494 77.1268C275.223 80.2967 277.706 82.8354 280.799 84.6634L288.939 70.8886C288.278 70.498 287.859 70.05 287.54 69.4652L273.494 77.1268ZM280.799 84.6634C283.98 86.5428 287.49 87.44 291.141 87.44V71.44C290.185 71.44 289.513 71.2278 288.939 70.8886L280.799 84.6634ZM324.421 90H302.533V106H324.421V90ZM310.533 98V81.232H294.533V98H310.533ZM310.365 82.8636L313.565 67.5036L297.901 64.2404L294.701 79.6004L310.365 82.8636ZM313.517 64.025L309.933 48.921L294.365 52.615L297.949 67.719L313.517 64.025ZM310.149 50.768V4.688H294.149V50.768H310.149ZM302.149 12.688H324.421V-3.312H302.149V12.688ZM316.421 4.688V98H332.421V4.688H316.421ZM342.794 95.312L339.082 102.399L339.127 102.422L339.171 102.445L342.794 95.312ZM330.122 83.664L336.919 79.4451L330.122 83.664ZM329.994 49.872L336.812 54.0581L336.828 54.0318L336.844 54.0053L329.994 49.872ZM342.154 38.224L346.01 45.2337L346.029 45.2228L346.049 45.2118L342.154 38.224ZM376.458 37.968L372.542 44.9439L372.614 44.9844L372.687 45.0235L376.458 37.968ZM387.978 49.104L381.032 53.0731L381.075 53.147L381.118 53.22L387.978 49.104ZM391.946 69.2L384.008 68.2077L383.979 68.4371L383.964 68.6679L391.946 69.2ZM391.178 73.68L391.215 81.6799L397.432 81.6511L398.939 75.6203L391.178 73.68ZM336.01 73.936H328.01V81.9732L336.047 81.9359L336.01 73.936ZM336.01 59.6L335.944 51.6003L328.01 51.666V59.6H336.01ZM382.346 59.216L386.602 65.9902L410.492 50.9825L382.28 51.2163L382.346 59.216ZM372.362 65.488L364.365 65.6831L364.708 79.7443L376.618 72.2622L372.362 65.488ZM370.826 56.912L363.418 59.9304L363.438 59.9799L363.459 60.0291L370.826 56.912ZM366.73 51.664L362.293 58.3204L362.293 58.3204L366.73 51.664ZM352.65 51.92L348.213 45.2636L348.213 45.2636L352.65 51.92ZM347.914 57.68L340.614 54.4075L340.614 54.4076L347.914 57.68ZM348.042 75.856L340.793 79.2391L340.815 79.2867L340.838 79.334L348.042 75.856ZM369.418 81.872L366.267 74.5188L366.218 74.5398L366.169 74.5615L369.418 81.872ZM375.818 77.136L381.475 71.4791L375.446 65.4497L369.813 71.851L375.818 77.136ZM387.466 88.784L393.478 94.0624L398.425 88.4286L393.123 83.1271L387.466 88.784ZM376.202 96.72L373.207 89.3021L373.181 89.3122L373.156 89.3226L376.202 96.72ZM361.354 91.408C355.414 91.408 350.503 90.2548 346.417 88.1794L339.171 102.445C345.837 105.831 353.3 107.408 361.354 107.408V91.408ZM346.506 88.2253C342.341 86.0435 339.205 83.1281 336.919 79.4451L323.325 87.8829C327.183 94.0985 332.495 98.9485 339.082 102.399L346.506 88.2253ZM336.919 79.4451C334.71 75.8859 333.514 71.7013 333.514 66.64H317.514C317.514 74.3787 319.39 81.5435 323.325 87.8829L336.919 79.4451ZM333.514 66.64C333.514 61.6411 334.679 57.5315 336.812 54.0581L323.177 45.6859C319.336 51.9405 317.514 59.0096 317.514 66.64H333.514ZM336.844 54.0053C339.095 50.2752 342.109 47.3789 346.01 45.2337L338.299 31.2143C331.959 34.7011 326.867 39.5701 323.145 45.7387L336.844 54.0053ZM346.049 45.2118C349.96 43.0319 354.445 41.872 359.69 41.872V25.872C351.965 25.872 344.759 27.6134 338.259 31.2362L346.049 45.2118ZM359.69 41.872C364.817 41.872 369.025 42.9694 372.542 44.9439L380.375 30.9921C374.164 27.5053 367.192 25.872 359.69 25.872V41.872ZM372.687 45.0235C376.337 46.9739 379.064 49.6283 381.032 53.0731L394.924 45.1349C391.431 39.0224 386.479 34.2527 380.229 30.9125L372.687 45.0235ZM381.118 53.22C383.11 56.5399 384.202 60.4637 384.202 65.232H400.202C400.202 57.8829 398.478 51.0547 394.838 44.988L381.118 53.22ZM384.202 65.232C384.202 66.1567 384.141 67.1472 384.008 68.2077L399.884 70.1923C400.093 68.5221 400.202 66.8673 400.202 65.232H384.202ZM383.964 68.6679C383.92 69.3349 383.768 70.338 383.417 71.7397L398.939 75.6203C399.442 73.6086 399.802 71.6251 399.929 69.7321L383.964 68.6679ZM391.141 65.6801L335.973 65.9361L336.047 81.9359L391.215 81.6799L391.141 65.6801ZM344.01 73.936V59.6H328.01V73.936H344.01ZM336.077 67.5997L382.413 67.2157L382.28 51.2163L335.944 51.6003L336.077 67.5997ZM378.091 52.4418L368.107 58.7138L376.618 72.2622L386.602 65.9902L378.091 52.4418ZM380.36 65.2929C380.26 61.2052 379.659 57.2578 378.194 53.7949L363.459 60.0291C363.871 61.0036 364.294 62.7734 364.365 65.6831L380.36 65.2929ZM378.235 53.8936C376.789 50.3436 374.49 47.2222 371.168 45.0076L362.293 58.3204C362.555 58.4951 362.986 58.8724 363.418 59.9304L378.235 53.8936ZM371.168 45.0076C367.75 42.7289 363.834 41.872 359.946 41.872V57.872C361.519 57.872 362.127 58.2097 362.293 58.3204L371.168 45.0076ZM359.946 41.872C355.785 41.872 351.757 42.9006 348.213 45.2636L357.088 58.5764C357.639 58.2087 358.475 57.872 359.946 57.872V41.872ZM348.213 45.2636C344.785 47.5487 342.275 50.7027 340.614 54.4075L355.214 60.9524C355.772 59.708 356.42 59.022 357.088 58.5764L348.213 45.2636ZM340.614 54.4076C338.93 58.164 338.25 62.3275 338.25 66.64H354.25C354.25 63.9552 354.68 62.1453 355.214 60.9524L340.614 54.4076ZM338.25 66.64C338.25 71.0891 338.99 75.3751 340.793 79.2391L355.292 72.4729C354.706 71.2169 354.25 69.3589 354.25 66.64H338.25ZM340.838 79.334C342.677 83.1442 345.452 86.2756 349.164 88.4175L357.16 74.5585C356.435 74.1404 355.797 73.5171 355.247 72.378L340.838 79.334ZM349.164 88.4175C352.882 90.562 357.075 91.408 361.354 91.408V75.408C359.148 75.408 357.88 74.974 357.16 74.5585L349.164 88.4175ZM361.354 91.408C365.307 91.408 369.143 90.7491 372.667 89.1825L366.169 74.5615C365.086 75.0429 363.546 75.408 361.354 75.408V91.408ZM372.57 89.2252C376.151 87.6902 379.235 85.363 381.824 82.421L369.813 71.851C368.647 73.1757 367.464 74.0058 366.267 74.5188L372.57 89.2252ZM370.161 82.7929L381.809 94.4409L393.123 83.1271L381.475 71.4791L370.161 82.7929ZM381.455 83.5056C379.231 86.0387 376.519 87.9645 373.207 89.3021L379.198 104.138C384.76 101.892 389.558 98.5266 393.478 94.0624L381.455 83.5056ZM373.156 89.3226C369.927 90.6524 366.039 91.408 361.354 91.408V107.408C367.762 107.408 373.774 106.372 379.248 104.117L373.156 89.3226ZM403.813 95.056L407.985 88.2297L407.985 88.2297L403.813 95.056ZM392.933 83.536L385.828 87.2114L385.866 87.2852L385.905 87.3582L392.933 83.536ZM392.933 49.872L385.878 46.101L385.852 46.1486L385.828 46.1966L392.933 49.872ZM403.685 38.352L407.82 45.2005L407.839 45.1894L407.857 45.1783L403.685 38.352ZM430.821 36.304L427.692 43.6666L427.771 43.7001L427.85 43.7318L430.821 36.304ZM439.397 42.192L445.344 36.8403L445.344 36.8403L439.397 42.192ZM443.493 50.896H451.493V50.3719L451.425 49.8524L443.493 50.896ZM443.493 81.488L451.425 82.5316L451.493 82.0121V81.488H443.493ZM439.397 90.448L445.512 95.607L445.512 95.607L439.397 90.448ZM430.821 96.976L434.104 104.271L434.179 104.238L434.254 104.202L430.821 96.976ZM430.181 77.904L434.15 84.8499L434.272 84.7802L434.392 84.7061L430.181 77.904ZM434.405 73.424L427.441 69.4875L427.411 69.5401L427.382 69.5932L434.405 73.424ZM434.533 60.112L427.51 63.9428L427.51 63.9428L434.533 60.112ZM430.181 55.632L425.97 62.4341L426.04 62.4775L426.111 62.5194L430.181 55.632ZM417.509 55.632L413.439 48.7446L413.368 48.7865L413.298 48.8299L417.509 55.632ZM413.157 60.24L406.193 56.3035L406.163 56.3561L406.134 56.4092L413.157 60.24ZM413.157 73.296L406.065 76.9965L406.099 77.062L406.134 77.1268L413.157 73.296ZM457.061 98V106H465.061V98H457.061ZM435.173 98H427.173V106H435.173V98ZM435.173 81.232L427.341 79.6004L427.173 80.4075V81.232H435.173ZM438.373 65.872L446.205 67.5036L446.569 65.759L446.157 64.025L438.373 65.872ZM434.789 50.768H426.789V51.7042L427.005 52.615L434.789 50.768ZM434.789 4.688V-3.312H426.789V4.688H434.789ZM457.061 4.688H465.061V-3.312H457.061V4.688ZM419.813 91.28C415.042 91.28 411.188 90.1874 407.985 88.2297L399.642 101.882C405.654 105.557 412.467 107.28 419.813 107.28V91.28ZM407.985 88.2297C404.608 86.1659 401.953 83.3756 399.961 79.7138L385.905 87.3582C389.205 93.4244 393.803 98.3141 399.642 101.882L407.985 88.2297ZM400.039 79.8606C398.133 76.1757 397.093 71.8712 397.093 66.768H381.093C381.093 74.1235 382.613 80.9976 385.828 87.2114L400.039 79.8606ZM397.093 66.768C397.093 61.5603 398.141 57.2171 400.039 53.5474L385.828 46.1966C382.606 52.4255 381.093 59.3464 381.093 66.768H397.093ZM399.989 53.643C401.999 49.8815 404.608 47.1401 407.82 45.2005L399.55 31.5035C393.717 35.0252 389.158 39.9639 385.878 46.101L399.989 53.643ZM407.857 45.1783C411.043 43.2312 414.934 42.128 419.813 42.128V26.128C412.404 26.128 405.544 27.8408 399.514 31.5257L407.857 45.1783ZM419.813 42.128C422.727 42.128 425.325 42.6608 427.692 43.6666L433.95 28.9413C429.49 27.0459 424.75 26.128 419.813 26.128V42.128ZM427.85 43.7318C430.204 44.6735 432.021 45.9552 433.451 47.5437L445.344 36.8403C442.165 33.3088 438.265 30.6652 433.792 28.8762L427.85 43.7318ZM433.451 47.5437C434.734 48.9689 435.357 50.3883 435.562 51.9396L451.425 49.8524C450.776 44.9183 448.669 40.5351 445.344 36.8403L433.451 47.5437ZM435.493 50.896V81.488H451.493V50.896H435.493ZM435.562 80.4444C435.353 82.0302 434.695 83.6157 433.283 85.289L445.512 95.607C448.708 91.8189 450.78 87.4311 451.425 82.5316L435.562 80.4444ZM433.283 85.289C431.757 87.0972 429.832 88.5895 427.389 89.7498L434.254 104.202C438.638 102.12 442.429 99.2601 445.512 95.607L433.283 85.289ZM427.538 89.6806C425.207 90.7296 422.663 91.28 419.813 91.28V107.28C424.814 107.28 429.609 106.294 434.104 104.271L427.538 89.6806ZM423.781 87.44C427.371 87.44 430.93 86.6903 434.15 84.8499L426.212 70.9581C425.849 71.1657 425.141 71.44 423.781 71.44V87.44ZM434.392 84.7061C437.381 82.8557 439.751 80.3309 441.428 77.2548L427.382 69.5932C427.012 70.2718 426.565 70.7336 425.97 71.1019L434.392 84.7061ZM441.37 77.3605C443.246 74.0417 444.069 70.3896 444.069 66.64H428.069C428.069 68.0104 427.784 68.881 427.441 69.4875L441.37 77.3605ZM444.069 66.64C444.069 63.0388 443.316 59.5067 441.556 56.2812L427.51 63.9428C427.799 64.472 428.069 65.2919 428.069 66.64H444.069ZM441.556 56.2812C439.827 53.1113 437.345 50.5726 434.251 48.7446L426.111 62.5194C426.772 62.91 427.191 63.358 427.51 63.9428L441.556 56.2812ZM434.392 48.8299C431.172 46.8367 427.582 45.968 423.909 45.968V61.968C425.015 61.968 425.606 62.2086 425.97 62.4341L434.392 48.8299ZM423.909 45.968C420.229 45.968 416.666 46.8383 413.439 48.7446L421.579 62.5194C422.108 62.2071 422.81 61.968 423.909 61.968V45.968ZM413.298 48.8299C410.283 50.6968 407.917 53.2534 406.193 56.3035L420.122 64.1765C420.616 63.3013 421.152 62.7859 421.72 62.4341L413.298 48.8299ZM406.134 56.4092C404.397 59.5944 403.621 63.0719 403.621 66.64H419.621C419.621 65.4294 419.87 64.6403 420.18 64.0708L406.134 56.4092ZM403.621 66.64C403.621 70.2492 404.377 73.7623 406.065 76.9965L420.25 69.5955C419.889 68.9044 419.621 67.9801 419.621 66.64H403.621ZM406.134 77.1268C407.863 80.2967 410.346 82.8354 413.439 84.6634L421.579 70.8886C420.918 70.498 420.499 70.05 420.18 69.4652L406.134 77.1268ZM413.439 84.6634C416.62 86.5428 420.13 87.44 423.781 87.44V71.44C422.825 71.44 422.153 71.2278 421.579 70.8886L413.439 84.6634ZM457.061 90H435.173V106H457.061V90ZM443.173 98V81.232H427.173V98H443.173ZM443.005 82.8636L446.205 67.5036L430.541 64.2404L427.341 79.6004L443.005 82.8636ZM446.157 64.025L442.573 48.921L427.005 52.615L430.589 67.719L446.157 64.025ZM442.789 50.768V4.688H426.789V50.768H442.789ZM434.789 12.688H457.061V-3.312H434.789V12.688ZM449.061 4.688V98H465.061V4.688H449.061ZM462.378 98H454.378V106H462.378V98ZM462.378 35.408V27.408H454.378V35.408H462.378ZM484.65 35.408H492.65V27.408H484.65V35.408ZM484.65 98V106H492.65V98H484.65ZM484.65 63.952L479.483 70.0591L492.65 81.2009V63.952H484.65ZM474.666 55.504L467.114 52.8652L465.3 58.058L469.499 61.6111L474.666 55.504ZM484.522 39.504L479.254 33.4834L479.254 33.4834L484.522 39.504ZM508.202 35.28L505.492 42.8071L505.539 42.8238L505.585 42.8399L508.202 35.28ZM513.834 38.864L520.24 43.6564L524.279 38.2572L519.642 33.362L513.834 38.864ZM500.906 56.144L494.927 61.4589L501.44 68.7856L507.312 60.9364L500.906 56.144ZM497.962 54.352L494.811 61.7052L495.117 61.8362L495.432 61.9415L497.962 54.352ZM487.082 56.272L492.882 61.782L492.949 61.7115L493.015 61.6393L487.082 56.272ZM470.378 98V35.408H454.378V98H470.378ZM462.378 43.408H484.65V27.408H462.378V43.408ZM476.65 35.408V98H492.65V35.408H476.65ZM484.65 90H462.378V106H484.65V90ZM489.818 57.8449L479.834 49.3969L469.499 61.6111L479.483 70.0591L489.818 57.8449ZM482.219 58.1427C484.402 51.8944 487.056 47.9173 489.79 45.5246L479.254 33.4834C473.797 38.2587 469.88 44.9483 467.114 52.8652L482.219 58.1427ZM489.79 45.5246C492.14 43.4688 495.469 42.128 500.522 42.128V26.128C492.434 26.128 485.097 28.3712 479.254 33.4834L489.79 45.5246ZM500.522 42.128C502.861 42.128 504.455 42.4336 505.492 42.8071L510.912 27.7529C507.683 26.5904 504.156 26.128 500.522 26.128V42.128ZM505.585 42.8399C506.655 43.2101 507.419 43.7247 508.027 44.3659L519.642 33.362C517.177 30.7606 514.187 28.8859 510.819 27.7201L505.585 42.8399ZM507.429 34.0716L494.501 51.3516L507.312 60.9364L520.24 43.6564L507.429 34.0716ZM506.886 50.8291C505.025 48.7357 502.697 47.4975 500.492 46.7625L495.432 61.9415C495.788 62.0599 495.422 62.0162 494.927 61.4589L506.886 50.8291ZM501.114 46.9988C498.759 45.9898 496.292 45.584 493.866 45.584V61.584C494.513 61.584 494.776 61.6902 494.811 61.7052L501.114 46.9988ZM493.866 45.584C489.198 45.584 484.59 47.1026 481.15 50.9047L493.015 61.6393C493.018 61.6355 493.003 61.6522 492.972 61.6735C492.941 61.6948 492.925 61.6997 492.941 61.6935C492.972 61.6813 493.234 61.584 493.866 61.584V45.584ZM481.282 50.762C477.723 54.5086 476.65 59.405 476.65 63.952H492.65C492.65 61.6723 493.199 61.4487 492.882 61.782L481.282 50.762ZM521.623 95.184L517.728 102.172L517.796 102.21L517.864 102.246L521.623 95.184ZM509.207 83.408L502.378 87.5749L502.394 87.601L502.41 87.6269L509.207 83.408ZM509.079 49.872L502.282 45.6531L502.272 45.6695L502.262 45.6859L509.079 49.872ZM521.623 38.224L525.382 45.286L525.426 45.2625L525.47 45.2385L521.623 38.224ZM557.335 38.224L553.44 45.2118L553.508 45.2496L553.576 45.286L557.335 38.224ZM569.879 49.872L563.082 54.0909L563.099 54.1175L563.115 54.1439L569.879 49.872ZM569.879 83.408L563.05 79.2411L563.04 79.2579L563.03 79.2747L569.879 83.408ZM557.463 95.184L561.27 102.22L561.29 102.209L561.31 102.198L557.463 95.184ZM545.943 78.032L549.912 84.9779L549.963 84.949L550.013 84.9194L545.943 78.032ZM550.295 73.424L557.388 77.1245L557.388 77.1245L550.295 73.424ZM550.167 59.984L543.075 63.6845L543.172 63.8719L543.28 64.0538L550.167 59.984ZM545.943 55.504L541.732 62.3061L541.852 62.3802L541.974 62.4499L545.943 55.504ZM528.791 60.112L535.814 63.9428L535.85 63.878L535.884 63.8125L528.791 60.112ZM528.791 73.424L535.884 69.7235L535.884 69.7235L528.791 73.424ZM533.143 78.032L529.073 84.9194L529.192 84.9893L529.312 85.0552L533.143 78.032ZM539.671 91.408C534.075 91.408 529.378 90.2486 525.382 88.122L517.864 102.246C524.45 105.751 531.785 107.408 539.671 107.408V91.408ZM525.518 88.1962C521.471 85.9405 518.343 82.9565 516.004 79.1891L502.41 87.6269C506.216 93.7581 511.365 98.6249 517.728 102.172L525.518 88.1962ZM516.036 79.2411C513.774 75.5331 512.599 71.3574 512.599 66.512H496.599C496.599 74.1253 498.497 81.2136 502.378 87.5749L516.036 79.2411ZM512.599 66.512C512.599 61.6207 513.753 57.5487 515.897 54.0581L502.262 45.6859C498.432 51.9233 496.599 58.9446 496.599 66.512H512.599ZM515.876 54.0909C518.182 50.3764 521.3 47.4589 525.382 45.286L517.864 31.162C511.366 34.6211 506.121 39.4689 502.282 45.6531L515.876 54.0909ZM525.47 45.2385C529.463 43.0486 534.09 41.872 539.543 41.872V25.872C531.684 25.872 524.365 27.5968 517.777 31.2095L525.47 45.2385ZM539.543 41.872C544.998 41.872 549.56 43.0491 553.44 45.2118L561.23 31.2362C554.7 27.5962 547.4 25.872 539.543 25.872V41.872ZM553.576 45.286C557.659 47.4589 560.777 50.3764 563.082 54.0909L576.676 45.6531C572.838 39.4689 567.593 34.6211 561.094 31.162L553.576 45.286ZM563.115 54.1439C565.313 57.6235 566.487 61.6646 566.487 66.512H582.487C582.487 58.9008 580.59 51.8485 576.643 45.6001L563.115 54.1439ZM566.487 66.512C566.487 71.3574 565.313 75.5331 563.05 79.2411L576.708 87.5749C580.59 81.2136 582.487 74.1253 582.487 66.512H566.487ZM563.03 79.2747C560.805 82.9615 557.726 85.9158 553.617 88.1695L561.31 102.198C567.782 98.6495 572.98 93.7532 576.729 87.5413L563.03 79.2747ZM553.657 88.1477C549.76 90.2557 545.166 91.408 539.671 91.408V107.408C547.488 107.408 554.756 105.744 561.27 102.22L553.657 88.1477ZM539.543 87.568C543.133 87.568 546.692 86.8183 549.912 84.9779L541.974 71.0861C541.611 71.2937 540.903 71.568 539.543 71.568V87.568ZM550.013 84.9194C553.196 83.0385 555.684 80.3895 557.388 77.1245L543.203 69.7235C542.858 70.3839 542.445 70.8068 541.873 71.1446L550.013 84.9194ZM557.388 77.1245C559.095 73.8526 559.831 70.2862 559.831 66.64H543.831C543.831 68.1138 543.543 69.0701 543.203 69.7235L557.388 77.1245ZM559.831 66.64C559.831 62.8998 559.01 59.224 557.055 55.9142L543.28 64.0538C543.543 64.4986 543.831 65.2602 543.831 66.64H559.831ZM557.26 56.2835C555.581 53.0652 553.132 50.398 549.912 48.5581L541.974 62.4499C542.338 62.658 542.706 62.9775 543.075 63.6845L557.26 56.2835ZM550.154 48.7019C546.891 46.6818 543.243 45.84 539.543 45.84V61.84C540.793 61.84 541.412 62.1075 541.732 62.3061L550.154 48.7019ZM539.543 45.84C535.863 45.84 532.3 46.7103 529.073 48.6166L537.213 62.3914C537.742 62.0791 538.444 61.84 539.543 61.84V45.84ZM529.073 48.6166C525.89 50.4975 523.402 53.1465 521.699 56.4115L535.884 63.8125C536.228 63.1521 536.641 62.7292 537.213 62.3914L529.073 48.6166ZM521.768 56.2812C519.988 59.5447 519.255 63.1325 519.255 66.768H535.255C535.255 65.2835 535.547 64.4339 535.814 63.9428L521.768 56.2812ZM519.255 66.768C519.255 70.3772 520.011 73.8903 521.699 77.1245L535.884 69.7235C535.523 69.0324 535.255 68.1081 535.255 66.768H519.255ZM521.699 77.1245C523.402 80.3895 525.89 83.0385 529.073 84.9194L537.213 71.1446C536.641 70.8068 536.228 70.3839 535.884 69.7235L521.699 77.1245ZM529.312 85.0552C532.498 86.7925 535.975 87.568 539.543 87.568V71.568C538.333 71.568 537.544 71.3195 536.974 71.0088L529.312 85.0552ZM601.755 97.104L604.884 89.7414L604.884 89.7414L601.755 97.104ZM593.307 91.216L587.262 96.4554L587.306 96.5063L587.351 96.5564L593.307 91.216ZM589.211 82.384H581.211V82.9958L581.304 83.6005L589.211 82.384ZM589.211 51.92L581.304 50.7035L581.211 51.3082V51.92H589.211ZM593.307 42.96L587.193 37.801L587.185 37.8101L587.178 37.8191L593.307 42.96ZM601.755 36.56L605.108 43.8237L605.148 43.8052L605.188 43.7862L601.755 36.56ZM628.891 38.352L624.72 45.1783L624.766 45.2066L624.813 45.2343L628.891 38.352ZM639.643 49.872L632.537 53.5474L632.562 53.5954L632.588 53.643L639.643 49.872ZM639.643 83.536L632.588 79.765L632.576 79.7875L632.564 79.81L639.643 83.536ZM628.891 95.056L624.72 88.2297L624.72 88.2297L628.891 95.056ZM575.643 124.496H567.643V132.496H575.643V124.496ZM575.643 35.408V27.408H567.643V35.408H575.643ZM597.915 35.408H605.915V27.408H597.915V35.408ZM597.915 51.152L605.684 53.0613L605.915 52.1206V51.152H597.915ZM594.203 66.256L586.434 64.3467L585.999 66.1169L586.374 67.9008L594.203 66.256ZM597.403 81.488H605.403V80.6567L605.232 79.8432L597.403 81.488ZM597.403 124.496V132.496H605.403V124.496H597.403ZM615.195 77.776L611.125 70.8886L611.125 70.8886L615.195 77.776ZM619.547 73.296L626.57 77.1268L626.606 77.062L626.64 76.9965L619.547 73.296ZM619.547 60.112L612.524 63.9428L612.524 63.9428L619.547 60.112ZM615.195 55.632L619.265 48.7446L619.265 48.7446L615.195 55.632ZM602.523 55.632L606.354 62.6552L606.475 62.5893L606.593 62.5194L602.523 55.632ZM598.171 60.112L605.194 63.9428L605.23 63.878L605.264 63.8125L598.171 60.112ZM598.171 73.296L591.079 76.9965L591.113 77.062L591.148 77.1268L598.171 73.296ZM602.395 77.776L598.184 84.5781L598.254 84.6215L598.325 84.6634L602.395 77.776ZM612.891 91.28C609.867 91.28 607.23 90.7382 604.884 89.7414L598.626 104.467C603.107 106.371 607.894 107.28 612.891 107.28V91.28ZM604.884 89.7414C602.424 88.6959 600.613 87.3806 599.264 85.8756L587.351 96.5564C590.439 100.001 594.259 102.611 598.626 104.467L604.884 89.7414ZM599.353 85.9766C598.115 84.5481 597.4 82.9964 597.118 81.1675L581.304 83.6005C582.047 88.4276 584.062 92.7639 587.262 96.4554L599.353 85.9766ZM597.211 82.384V51.92H581.211V82.384H597.211ZM597.118 53.1365C597.402 51.2926 598.133 49.6551 599.437 48.1009L587.178 37.8191C584.044 41.5555 582.045 45.8914 581.304 50.7035L597.118 53.1365ZM599.422 48.119C600.95 46.3072 602.815 44.8819 605.108 43.8237L598.403 29.2963C594.04 31.3101 590.272 34.1515 587.193 37.801L599.422 48.119ZM605.188 43.7862C607.463 42.7054 609.994 42.128 612.891 42.128V26.128C607.768 26.128 602.874 27.172 598.323 29.3338L605.188 43.7862ZM612.891 42.128C617.662 42.128 621.516 43.2206 624.72 45.1783L633.063 31.5257C627.05 27.8514 620.238 26.128 612.891 26.128V42.128ZM624.813 45.2343C628.078 47.169 630.637 49.8732 632.537 53.5474L646.749 46.1966C643.529 39.9722 638.921 34.9963 632.97 31.4697L624.813 45.2343ZM632.588 53.643C634.539 57.2932 635.611 61.6018 635.611 66.768H651.611C651.611 59.3048 650.038 52.3494 646.699 46.101L632.588 53.643ZM635.611 66.768C635.611 71.8291 634.547 76.0992 632.588 79.765L646.699 87.307C650.03 81.0741 651.611 74.1655 651.611 66.768H635.611ZM632.564 79.81C630.663 83.4212 628.074 86.18 624.72 88.2297L633.063 101.882C638.925 98.3 643.503 93.3788 646.723 87.262L632.564 79.81ZM624.72 88.2297C621.516 90.1874 617.662 91.28 612.891 91.28V107.28C620.238 107.28 627.05 105.557 633.063 101.882L624.72 88.2297ZM583.643 124.496V35.408H567.643V124.496H583.643ZM575.643 43.408H597.915V27.408H575.643V43.408ZM589.915 35.408V51.152H605.915V35.408H589.915ZM590.146 49.2427L586.434 64.3467L601.972 68.1653L605.684 53.0613L590.146 49.2427ZM586.374 67.9008L589.574 83.1328L605.232 79.8432L602.032 64.6112L586.374 67.9008ZM589.403 81.488V124.496H605.403V81.488H589.403ZM597.403 116.496H575.643V132.496H597.403V116.496ZM608.667 87.44C612.377 87.44 615.996 86.5952 619.265 84.6634L611.125 70.8886C610.64 71.1755 609.907 71.44 608.667 71.44V87.44ZM619.265 84.6634C622.359 82.8354 624.841 80.2967 626.57 77.1268L612.524 69.4652C612.205 70.05 611.786 70.498 611.125 70.8886L619.265 84.6634ZM626.64 76.9965C628.327 73.7623 629.083 70.2492 629.083 66.64H613.083C613.083 67.9801 612.815 68.9044 612.455 69.5955L626.64 76.9965ZM629.083 66.64C629.083 63.0388 628.33 59.5067 626.57 56.2812L612.524 63.9428C612.813 64.472 613.083 65.2919 613.083 66.64H629.083ZM626.57 56.2812C624.841 53.1113 622.359 50.5726 619.265 48.7446L611.125 62.5194C611.786 62.91 612.205 63.358 612.524 63.9428L626.57 56.2812ZM619.265 48.7446C616.039 46.8383 612.475 45.968 608.795 45.968V61.968C609.894 61.968 610.597 62.2071 611.125 62.5194L619.265 48.7446ZM608.795 45.968C605.144 45.968 601.634 46.8652 598.453 48.7446L606.593 62.5194C607.167 62.1802 607.839 61.968 608.795 61.968V45.968ZM598.692 48.6088C595.371 50.4203 592.809 53.0948 591.079 56.4115L605.264 63.8125C605.581 63.2039 605.92 62.8917 606.354 62.6552L598.692 48.6088ZM591.148 56.2812C589.389 59.5066 588.635 63.0388 588.635 66.64H604.635C604.635 65.2919 604.906 64.472 605.194 63.9428L591.148 56.2812ZM588.635 66.64C588.635 70.2492 589.391 73.7623 591.079 76.9965L605.264 69.5955C604.903 68.9044 604.635 67.9801 604.635 66.64H588.635ZM591.148 77.1268C592.826 80.2029 595.195 82.7277 598.184 84.5781L606.606 70.9739C606.011 70.6056 605.565 70.1438 605.194 69.4652L591.148 77.1268ZM598.325 84.6634C601.506 86.5428 605.016 87.44 608.667 87.44V71.44C607.711 71.44 607.039 71.2278 606.465 70.8886L598.325 84.6634ZM137.408 196.056L141.58 189.23L141.58 189.23L137.408 196.056ZM126.528 184.536L119.423 188.211L119.461 188.285L119.5 188.358L126.528 184.536ZM126.528 150.872L119.473 147.101L119.447 147.149L119.423 147.197L126.528 150.872ZM137.28 139.352L141.415 146.201L141.434 146.189L141.452 146.178L137.28 139.352ZM164.416 137.304L161.287 144.667L161.366 144.7L161.445 144.732L164.416 137.304ZM172.992 143.192L178.939 137.84L178.939 137.84L172.992 143.192ZM177.088 151.896H185.088V151.372L185.02 150.852L177.088 151.896ZM177.088 182.488L185.02 183.532L185.088 183.012V182.488H177.088ZM172.992 191.448L179.107 196.607L179.107 196.607L172.992 191.448ZM164.416 197.976L167.699 205.271L167.774 205.238L167.849 205.202L164.416 197.976ZM163.776 178.904L167.745 185.85L167.867 185.78L167.987 185.706L163.776 178.904ZM168 174.424L161.036 170.488L161.006 170.54L160.977 170.593L168 174.424ZM168.128 161.112L161.105 164.943L161.105 164.943L168.128 161.112ZM163.776 156.632L159.565 163.434L159.635 163.477L159.706 163.519L163.776 156.632ZM151.104 156.632L147.034 149.745L146.963 149.787L146.893 149.83L151.104 156.632ZM146.752 161.24L139.788 157.304L139.758 157.356L139.729 157.409L146.752 161.24ZM146.752 174.296L139.66 177.997L139.694 178.062L139.729 178.127L146.752 174.296ZM190.656 199V207H198.656V199H190.656ZM168.768 199H160.768V207H168.768V199ZM168.768 182.232L160.936 180.6L160.768 181.408V182.232H168.768ZM171.968 166.872L179.8 168.504L180.164 166.759L179.752 165.025L171.968 166.872ZM168.384 151.768H160.384V152.704L160.6 153.615L168.384 151.768ZM168.384 105.688V97.688H160.384V105.688H168.384ZM190.656 105.688H198.656V97.688H190.656V105.688ZM153.408 192.28C148.637 192.28 144.783 191.187 141.58 189.23L133.237 202.882C139.249 206.557 146.062 208.28 153.408 208.28V192.28ZM141.58 189.23C138.203 187.166 135.548 184.376 133.556 180.714L119.5 188.358C122.8 194.424 127.398 199.314 133.237 202.882L141.58 189.23ZM133.634 180.861C131.728 177.176 130.688 172.871 130.688 167.768H114.688C114.688 175.123 116.208 181.998 119.423 188.211L133.634 180.861ZM130.688 167.768C130.688 162.56 131.736 158.217 133.634 154.547L119.423 147.197C116.201 153.426 114.688 160.346 114.688 167.768H130.688ZM133.584 154.643C135.594 150.881 138.203 148.14 141.415 146.201L133.145 132.503C127.312 136.025 122.753 140.964 119.473 147.101L133.584 154.643ZM141.452 146.178C144.638 144.231 148.529 143.128 153.408 143.128V127.128C145.999 127.128 139.139 128.841 133.109 132.526L141.452 146.178ZM153.408 143.128C156.322 143.128 158.92 143.661 161.287 144.667L167.545 129.941C163.085 128.046 158.345 127.128 153.408 127.128V143.128ZM161.445 144.732C163.799 145.673 165.616 146.955 167.046 148.544L178.939 137.84C175.76 134.309 171.86 131.665 167.387 129.876L161.445 144.732ZM167.046 148.544C168.329 149.969 168.952 151.388 169.157 152.94L185.02 150.852C184.371 145.918 182.264 141.535 178.939 137.84L167.046 148.544ZM169.088 151.896V182.488H185.088V151.896H169.088ZM169.157 181.444C168.948 183.03 168.29 184.616 166.878 186.289L179.107 196.607C182.303 192.819 184.375 188.431 185.02 183.532L169.157 181.444ZM166.878 186.289C165.352 188.097 163.427 189.589 160.984 190.75L167.849 205.202C172.233 203.12 176.024 200.26 179.107 196.607L166.878 186.289ZM161.133 190.681C158.802 191.73 156.258 192.28 153.408 192.28V208.28C158.409 208.28 163.204 207.294 167.699 205.271L161.133 190.681ZM157.376 188.44C160.966 188.44 164.525 187.69 167.745 185.85L159.807 171.958C159.444 172.166 158.736 172.44 157.376 172.44V188.44ZM167.987 185.706C170.976 183.856 173.346 181.331 175.023 178.255L160.977 170.593C160.607 171.272 160.16 171.734 159.565 172.102L167.987 185.706ZM174.965 178.36C176.841 175.042 177.664 171.39 177.664 167.64H161.664C161.664 169.01 161.379 169.881 161.036 170.488L174.965 178.36ZM177.664 167.64C177.664 164.039 176.911 160.507 175.151 157.281L161.105 164.943C161.394 165.472 161.664 166.292 161.664 167.64H177.664ZM175.151 157.281C173.422 154.111 170.94 151.573 167.846 149.745L159.706 163.519C160.367 163.91 160.786 164.358 161.105 164.943L175.151 157.281ZM167.987 149.83C164.767 147.837 161.177 146.968 157.504 146.968V162.968C158.61 162.968 159.201 163.209 159.565 163.434L167.987 149.83ZM157.504 146.968C153.824 146.968 150.261 147.838 147.034 149.745L155.174 163.519C155.703 163.207 156.405 162.968 157.504 162.968V146.968ZM146.893 149.83C143.878 151.697 141.512 154.253 139.788 157.304L153.717 165.176C154.211 164.301 154.747 163.786 155.315 163.434L146.893 149.83ZM139.729 157.409C137.992 160.594 137.216 164.072 137.216 167.64H153.216C153.216 166.429 153.465 165.64 153.775 165.071L139.729 157.409ZM137.216 167.64C137.216 171.249 137.972 174.762 139.66 177.997L153.845 170.595C153.484 169.904 153.216 168.98 153.216 167.64H137.216ZM139.729 178.127C141.458 181.297 143.941 183.835 147.034 185.663L155.174 171.889C154.513 171.498 154.094 171.05 153.775 170.465L139.729 178.127ZM147.034 185.663C150.215 187.543 153.725 188.44 157.376 188.44V172.44C156.42 172.44 155.748 172.228 155.174 171.889L147.034 185.663ZM190.656 191H168.768V207H190.656V191ZM176.768 199V182.232H160.768V199H176.768ZM176.6 183.864L179.8 168.504L164.136 165.24L160.936 180.6L176.6 183.864ZM179.752 165.025L176.168 149.921L160.6 153.615L164.184 168.719L179.752 165.025ZM176.384 151.768V105.688H160.384V151.768H176.384ZM168.384 113.688H190.656V97.688H168.384V113.688ZM182.656 105.688V199H198.656V105.688H182.656ZM209.029 196.312L205.317 203.399L205.362 203.422L205.406 203.445L209.029 196.312ZM196.357 184.664L203.154 180.445L196.357 184.664ZM196.229 150.872L203.047 155.058L203.063 155.032L203.079 155.005L196.229 150.872ZM208.389 139.224L212.245 146.234L212.264 146.223L212.284 146.212L208.389 139.224ZM242.693 138.968L238.777 145.944L238.849 145.984L238.922 146.023L242.693 138.968ZM254.213 150.104L247.267 154.073L247.31 154.147L247.353 154.22L254.213 150.104ZM258.181 170.2L250.243 169.208L250.214 169.437L250.199 169.668L258.181 170.2ZM257.413 174.68L257.45 182.68L263.667 182.651L265.174 176.62L257.413 174.68ZM202.245 174.936H194.245V182.973L202.282 182.936L202.245 174.936ZM202.245 160.6L202.179 152.6L194.245 152.666V160.6H202.245ZM248.581 160.216L252.837 166.99L276.727 151.982L248.515 152.216L248.581 160.216ZM238.597 166.488L230.6 166.683L230.943 180.744L242.853 173.262L238.597 166.488ZM237.061 157.912L229.653 160.93L229.673 160.98L229.694 161.029L237.061 157.912ZM232.965 152.664L228.528 159.32L228.528 159.32L232.965 152.664ZM218.885 152.92L214.448 146.264L214.448 146.264L218.885 152.92ZM214.149 158.68L206.849 155.408L206.849 155.408L214.149 158.68ZM214.277 176.856L207.028 180.239L207.05 180.287L207.073 180.334L214.277 176.856ZM235.653 182.872L232.502 175.519L232.453 175.54L232.404 175.562L235.653 182.872ZM242.053 178.136L247.71 172.479L241.681 166.45L236.048 172.851L242.053 178.136ZM253.701 189.784L259.713 195.062L264.66 189.429L259.358 184.127L253.701 189.784ZM242.437 197.72L239.442 190.302L239.416 190.312L239.391 190.323L242.437 197.72ZM227.589 192.408C221.649 192.408 216.738 191.255 212.652 189.179L205.406 203.445C212.072 206.831 219.535 208.408 227.589 208.408V192.408ZM212.741 189.225C208.576 187.044 205.44 184.128 203.154 180.445L189.56 188.883C193.418 195.099 198.73 199.948 205.317 203.399L212.741 189.225ZM203.154 180.445C200.945 176.886 199.749 172.701 199.749 167.64H183.749C183.749 175.379 185.625 182.543 189.56 188.883L203.154 180.445ZM199.749 167.64C199.749 162.641 200.914 158.531 203.047 155.058L189.412 146.686C185.571 152.941 183.749 160.01 183.749 167.64H199.749ZM203.079 155.005C205.33 151.275 208.344 148.379 212.245 146.234L204.534 132.214C198.194 135.701 193.102 140.57 189.38 146.739L203.079 155.005ZM212.284 146.212C216.195 144.032 220.68 142.872 225.925 142.872V126.872C218.2 126.872 210.994 128.613 204.494 132.236L212.284 146.212ZM225.925 142.872C231.052 142.872 235.26 143.969 238.777 145.944L246.61 131.992C240.399 128.505 233.427 126.872 225.925 126.872V142.872ZM238.922 146.023C242.572 147.974 245.299 150.628 247.267 154.073L261.159 146.135C257.666 140.022 252.714 135.253 246.464 131.913L238.922 146.023ZM247.353 154.22C249.345 157.54 250.437 161.464 250.437 166.232H266.437C266.437 158.883 264.713 152.055 261.073 145.988L247.353 154.22ZM250.437 166.232C250.437 167.157 250.376 168.147 250.243 169.208L266.119 171.192C266.328 169.522 266.437 167.867 266.437 166.232H250.437ZM250.199 169.668C250.154 170.335 250.003 171.338 249.652 172.74L265.174 176.62C265.677 174.609 266.037 172.625 266.164 170.732L250.199 169.668ZM257.376 166.68L202.208 166.936L202.282 182.936L257.45 182.68L257.376 166.68ZM210.245 174.936V160.6H194.245V174.936H210.245ZM202.312 168.6L248.648 168.216L248.515 152.216L202.179 152.6L202.312 168.6ZM244.326 153.442L234.342 159.714L242.853 173.262L252.837 166.99L244.326 153.442ZM246.595 166.293C246.495 162.205 245.894 158.258 244.429 154.795L229.694 161.029C230.106 162.004 230.529 163.773 230.6 166.683L246.595 166.293ZM244.47 154.894C243.024 151.344 240.725 148.222 237.403 146.008L228.528 159.32C228.79 159.495 229.221 159.872 229.653 160.93L244.47 154.894ZM237.403 146.008C233.985 143.729 230.069 142.872 226.181 142.872V158.872C227.754 158.872 228.362 159.21 228.528 159.32L237.403 146.008ZM226.181 142.872C222.02 142.872 217.992 143.901 214.448 146.264L223.323 159.576C223.874 159.209 224.71 158.872 226.181 158.872V142.872ZM214.448 146.264C211.02 148.549 208.51 151.703 206.849 155.408L221.449 161.952C222.007 160.708 222.654 160.022 223.323 159.576L214.448 146.264ZM206.849 155.408C205.165 159.164 204.485 163.328 204.485 167.64H220.485C220.485 164.955 220.915 163.145 221.449 161.952L206.849 155.408ZM204.485 167.64C204.485 172.089 205.225 176.375 207.028 180.239L221.527 173.473C220.941 172.217 220.485 170.359 220.485 167.64H204.485ZM207.073 180.334C208.912 184.144 211.687 187.276 215.399 189.417L223.395 175.559C222.67 175.14 222.032 174.517 221.482 173.378L207.073 180.334ZM215.399 189.417C219.117 191.562 223.31 192.408 227.589 192.408V176.408C225.383 176.408 224.115 175.974 223.395 175.559L215.399 189.417ZM227.589 192.408C231.542 192.408 235.378 191.749 238.902 190.182L232.404 175.562C231.321 176.043 229.781 176.408 227.589 176.408V192.408ZM238.805 190.225C242.386 188.69 245.47 186.363 248.059 183.421L236.048 172.851C234.882 174.176 233.699 175.006 232.502 175.519L238.805 190.225ZM236.396 183.793L248.044 195.441L259.358 184.127L247.71 172.479L236.396 183.793ZM247.69 184.506C245.466 187.039 242.754 188.964 239.442 190.302L245.433 205.138C250.995 202.892 255.793 199.527 259.713 195.062L247.69 184.506ZM239.391 190.323C236.162 191.652 232.274 192.408 227.589 192.408V208.408C233.997 208.408 240.009 207.372 245.483 205.117L239.391 190.323ZM271.584 199.256L269.434 206.962L269.457 206.968L269.479 206.974L271.584 199.256ZM261.216 195.16L257.267 202.117L257.378 202.18L257.49 202.239L261.216 195.16ZM253.152 189.016L247.437 183.418L242.001 188.969L247.39 194.565L253.152 189.016ZM265.312 176.6L271.083 171.06L265.37 165.108L259.597 171.002L265.312 176.6ZM272.608 181.592L269.484 188.957L269.523 188.973L269.562 188.989L272.608 181.592ZM286.048 182.616L282.471 175.461L282.343 175.524L282.217 175.593L286.048 182.616ZM285.408 177.368L281.486 184.341L281.739 184.483L282.002 184.607L285.408 177.368ZM279.904 175.448L277.824 183.173L277.996 183.219L278.169 183.257L279.904 175.448ZM272.864 173.4L270.256 180.963L270.374 181.004L270.493 181.041L272.864 173.4ZM260.064 164.312L253.06 168.177L253.11 168.268L253.163 168.358L260.064 164.312ZM261.216 144.344L254.731 139.66L254.719 139.677L254.706 139.694L261.216 144.344ZM270.432 137.176L273.622 144.513L273.689 144.484L273.755 144.454L270.432 137.176ZM299.616 137.304L296.736 144.767L296.793 144.79L296.851 144.811L299.616 137.304ZM311.392 145.496L317.078 151.123L322.132 146.017L317.597 140.446L311.392 145.496ZM299.104 157.912L293.125 163.227L298.791 169.601L304.79 163.539L299.104 157.912ZM292.32 153.176L289.483 160.656L289.597 160.699L289.712 160.739L292.32 153.176ZM281.312 152.664L285.428 159.524L285.669 159.379L285.9 159.218L281.312 152.664ZM282.08 157.528L278.503 164.683L278.588 164.726L278.674 164.767L282.08 157.528ZM287.584 159.448L285.504 167.173L285.676 167.219L285.849 167.257L287.584 159.448ZM294.624 161.496L291.934 169.03L291.975 169.045L292.016 169.059L294.624 161.496ZM301.664 165.08L297.111 171.658L297.254 171.757L297.402 171.85L301.664 165.08ZM307.168 170.968L300.164 174.833L300.214 174.924L300.267 175.014L307.168 170.968ZM302.176 195.416L306.976 201.816L307.013 201.789L307.048 201.761L302.176 195.416ZM282.976 192.792C279.857 192.792 276.767 192.377 273.689 191.538L269.479 206.974C273.911 208.183 278.416 208.792 282.976 208.792V192.792ZM273.735 191.55C270.59 190.673 267.664 189.513 264.942 188.081L257.49 202.239C261.254 204.22 265.24 205.791 269.434 206.962L273.735 191.55ZM265.165 188.203C262.588 186.74 260.533 185.148 258.915 183.467L247.39 194.565C250.208 197.492 253.53 199.996 257.267 202.117L265.165 188.203ZM258.868 194.614L271.028 182.198L259.597 171.002L247.437 183.418L258.868 194.614ZM259.541 182.14C262.365 185.082 265.706 187.354 269.484 188.957L275.733 174.227C273.878 173.441 272.356 172.385 271.083 171.06L259.541 182.14ZM269.562 188.989C273.462 190.595 277.572 191.384 281.824 191.384V175.384C279.591 175.384 277.557 174.978 275.654 174.195L269.562 188.989ZM281.824 191.384C284.167 191.384 287.183 191.11 289.879 189.639L282.217 175.593C282.471 175.454 282.666 175.382 282.768 175.349C282.87 175.315 282.906 175.312 282.857 175.321C282.809 175.33 282.702 175.346 282.523 175.36C282.345 175.374 282.114 175.384 281.824 175.384V191.384ZM289.626 189.771C290.986 189.091 292.53 188.01 293.736 186.301C295.001 184.509 295.584 182.461 295.584 180.44H279.584C279.584 179.357 279.912 178.141 280.664 177.075C281.358 176.091 282.134 175.629 282.471 175.461L289.626 189.771ZM295.584 180.44C295.584 178.254 294.974 176.008 293.568 174.024C292.216 172.115 290.449 170.899 288.815 170.129L282.002 184.607C281.818 184.52 281.139 184.157 280.512 183.272C279.832 182.312 279.584 181.261 279.584 180.44H295.584ZM289.33 170.395C287.029 169.101 284.363 168.244 281.64 167.639L278.169 183.257C280.053 183.676 281.057 184.099 281.486 184.341L289.33 170.395ZM281.984 167.723C279.874 167.155 277.625 166.501 275.235 165.759L270.493 181.041C273.052 181.835 275.497 182.546 277.824 183.173L281.984 167.723ZM275.472 165.837C273.521 165.164 271.624 164.285 269.775 163.19L261.618 176.954C264.377 178.589 267.258 179.929 270.256 180.963L275.472 165.837ZM269.775 163.19C268.719 162.564 267.781 161.657 266.966 160.266L253.163 168.358C255.249 171.916 258.065 174.849 261.618 176.954L269.775 163.19ZM267.069 160.447C266.549 159.505 266.016 157.792 266.016 154.84H250.016C250.016 159.568 250.849 164.17 253.06 168.177L267.069 160.447ZM266.016 154.84C266.016 152.334 266.652 150.497 267.726 148.994L254.706 139.694C251.514 144.164 250.016 149.325 250.016 154.84H266.016ZM267.702 149.028C268.975 147.265 270.839 145.723 273.622 144.513L267.242 129.839C262.175 132.043 257.895 135.279 254.731 139.66L267.702 149.028ZM273.755 144.454C276.429 143.233 279.859 142.488 284.256 142.488V126.488C278.072 126.488 272.286 127.535 267.11 129.898L273.755 144.454ZM284.256 142.488C288.678 142.488 292.819 143.256 296.736 144.767L302.497 129.841C296.685 127.598 290.586 126.488 284.256 126.488V142.488ZM296.851 144.811C300.501 146.156 303.192 148.094 305.188 150.546L317.597 140.446C313.619 135.559 308.459 132.036 302.382 129.797L296.851 144.811ZM305.706 139.869L293.418 152.285L304.79 163.539L317.078 151.123L305.706 139.869ZM305.084 152.597C302.286 149.45 298.914 146.988 294.928 145.613L289.712 160.739C290.675 161.071 291.826 161.766 293.125 163.227L305.084 152.597ZM295.157 145.696C292.028 144.509 288.791 143.768 285.536 143.768V159.768C286.378 159.768 287.663 159.966 289.483 160.656L295.157 145.696ZM285.536 143.768C283.173 143.768 279.669 144.049 276.725 146.11L285.9 159.218C285.526 159.48 285.206 159.629 285.003 159.709C284.801 159.79 284.678 159.816 284.668 159.818C284.657 159.82 284.72 159.806 284.874 159.793C285.027 159.779 285.245 159.768 285.536 159.768V143.768ZM277.196 145.804C274.11 147.656 272.032 150.892 272.032 154.84H288.032C288.032 155.628 287.839 156.644 287.248 157.648C286.669 158.631 285.938 159.218 285.428 159.524L277.196 145.804ZM272.032 154.84C272.032 160.104 275.605 163.235 278.503 164.683L285.658 150.373C285.699 150.393 286.294 150.69 286.908 151.496C287.61 152.418 288.032 153.614 288.032 154.84H272.032ZM278.674 164.767C280.691 165.716 283.008 166.501 285.504 167.173L289.664 151.723C287.723 151.201 286.371 150.706 285.487 150.289L278.674 164.767ZM285.849 167.257C287.806 167.692 289.834 168.28 291.934 169.03L297.315 153.962C294.636 153.005 291.971 152.228 289.32 151.639L285.849 167.257ZM292.016 169.059C293.779 169.667 295.474 170.524 297.111 171.658L306.218 158.502C303.417 156.564 300.418 155.032 297.232 153.933L292.016 169.059ZM297.402 171.85C298.516 172.552 299.426 173.496 300.164 174.833L314.173 167.103C312.18 163.491 309.42 160.51 305.927 158.31L297.402 171.85ZM300.267 175.014C300.781 175.89 301.344 177.562 301.344 180.568H317.344C317.344 175.723 316.457 170.995 314.07 166.922L300.267 175.014ZM301.344 180.568C301.344 184.41 300.034 186.975 297.304 189.071L307.048 201.761C313.876 196.519 317.344 189.185 317.344 180.568H301.344ZM297.376 189.016C294.389 191.257 289.854 192.792 282.976 192.792V208.792C292.141 208.792 300.407 206.743 306.976 201.816L297.376 189.016ZM311.61 199H303.61V207H311.61V199ZM311.61 136.408V128.408H303.61V136.408H311.61ZM334.01 136.408H342.01V128.408H334.01V136.408ZM334.01 199V207H342.01V199H334.01ZM314.426 125.784L308.664 131.333L308.716 131.387L308.769 131.441L314.426 125.784ZM331.194 108.76L325.324 114.195L325.377 114.253L325.432 114.309L331.194 108.76ZM331.194 125.784L325.432 120.235L325.428 120.239L331.194 125.784ZM319.61 199V136.408H303.61V199H319.61ZM311.61 144.408H334.01V128.408H311.61V144.408ZM326.01 136.408V199H342.01V136.408H326.01ZM334.01 191H311.61V207H334.01V191ZM322.746 121.112C321.397 121.112 320.703 120.747 320.083 120.127L308.769 131.441C312.586 135.258 317.439 137.112 322.746 137.112V121.112ZM320.189 120.235C319.508 119.528 319.098 118.705 319.098 117.208H303.098C303.098 122.538 304.907 127.432 308.664 131.333L320.189 120.235ZM319.098 117.208C319.098 115.857 319.469 115.057 320.189 114.309L308.664 103.211C304.946 107.071 303.098 111.903 303.098 117.208H319.098ZM320.189 114.309C320.832 113.641 321.494 113.304 322.746 113.304V97.304C317.343 97.304 312.458 99.2711 308.664 103.211L320.189 114.309ZM322.746 113.304C324.299 113.304 324.886 113.723 325.324 114.195L337.064 103.325C333.235 99.1894 328.191 97.304 322.746 97.304V113.304ZM325.432 114.309C326.152 115.057 326.522 115.857 326.522 117.208H342.522C342.522 111.903 340.674 107.071 336.957 103.211L325.432 114.309ZM326.522 117.208C326.522 118.705 326.112 119.528 325.432 120.235L336.957 131.333C340.714 127.432 342.522 122.538 342.522 117.208H326.522ZM325.428 120.239C325.014 120.669 324.395 121.112 322.746 121.112V137.112C328.095 137.112 333.108 135.336 336.961 131.329L325.428 120.239ZM347.5 223.832L350.749 216.522L350.722 216.509L350.694 216.497L347.5 223.832ZM335.084 213.976L329.455 208.292L324.663 213.038L328.53 218.564L335.084 213.976ZM348.524 200.664L354.394 195.229L348.773 189.158L342.895 194.98L348.524 200.664ZM355.564 206.04L359.329 198.981L359.236 198.932L359.142 198.885L355.564 206.04ZM375.404 204.76L370.382 198.533L370.272 198.622L370.165 198.714L375.404 204.76ZM379.372 179.16L371.638 177.117L371.372 178.121V179.16H379.372ZM382.956 165.592L390.691 167.635L391.204 165.693L390.739 163.739L382.956 165.592ZM379.756 152.152H371.756V153.091L371.974 154.005L379.756 152.152ZM379.756 136.408V128.408H371.756V136.408H379.756ZM401.644 136.408H409.644V128.408H401.644V136.408ZM396.908 211.928L390.198 207.572L390.154 207.64L390.111 207.709L396.908 211.928ZM384.236 223.32L380.704 216.142L380.659 216.164L380.613 216.187L384.236 223.32ZM349.42 192.728L345.227 199.541L345.304 199.588L345.381 199.634L349.42 192.728ZM338.924 181.592L331.901 185.423L331.901 185.423L338.924 181.592ZM338.924 150.232L345.918 154.117L345.918 154.117L338.924 150.232ZM349.42 139.224L345.285 132.375L345.256 132.393L345.227 132.411L349.42 139.224ZM375.66 137.304L372.393 144.607L372.508 144.658L372.624 144.705L375.66 137.304ZM383.724 143.192L377.477 148.19L377.519 148.241L377.561 148.293L383.724 143.192ZM387.564 151.896H395.564V151.284L395.471 150.68L387.564 151.896ZM387.564 179.928L395.471 181.144L395.564 180.54V179.928H387.564ZM383.596 188.76L377.45 183.639L377.442 183.649L377.433 183.659L383.596 188.76ZM375.66 194.648L378.765 202.021L378.846 201.987L378.927 201.951L375.66 194.648ZM375.148 175.832L379.264 182.692L379.312 182.663L379.359 182.634L375.148 175.832ZM379.244 171.608L386.254 175.463L386.293 175.392L386.331 175.32L379.244 171.608ZM379.244 160.088L372.235 163.943L372.235 163.943L379.244 160.088ZM375.276 155.992L370.916 162.7L371.037 162.778L371.16 162.852L375.276 155.992ZM362.988 155.992L367.104 162.852L367.152 162.823L367.199 162.794L362.988 155.992ZM359.02 160.216L366.03 164.071L366.069 164L366.107 163.928L359.02 160.216ZM359.02 171.48L351.934 175.192L351.971 175.264L352.011 175.335L359.02 171.48ZM362.988 175.704L367.348 168.996L367.348 168.996L362.988 175.704ZM365.932 219.416C359.946 219.416 354.939 218.384 350.749 216.522L344.251 231.142C350.813 234.059 358.094 235.416 365.932 235.416V219.416ZM350.694 216.497C346.605 214.716 343.69 212.32 341.638 209.388L328.53 218.564C332.452 224.166 337.814 228.34 344.306 231.167L350.694 216.497ZM340.714 219.66L354.154 206.348L342.895 194.98L329.455 208.292L340.714 219.66ZM342.654 206.099C345.378 209.041 348.485 211.445 351.987 213.195L359.142 198.885C357.523 198.075 355.937 196.895 354.394 195.229L342.654 206.099ZM351.8 213.099C355.785 215.224 360.266 216.088 364.908 216.088V200.088C362.212 200.088 360.464 199.586 359.329 198.981L351.8 213.099ZM364.908 216.088C370.663 216.088 376.228 214.632 380.644 210.806L370.165 198.714C369.46 199.325 368.028 200.088 364.908 200.088V216.088ZM380.426 210.987C385.345 207.021 387.372 201.381 387.372 195.416H371.372C371.372 197.643 370.754 198.233 370.382 198.533L380.426 210.987ZM387.372 195.416V179.16H371.372V195.416H387.372ZM387.107 181.203L390.691 167.635L375.222 163.549L371.638 177.117L387.107 181.203ZM390.739 163.739L387.539 150.299L371.974 154.005L375.174 167.445L390.739 163.739ZM387.756 152.152V136.408H371.756V152.152H387.756ZM379.756 144.408H401.644V128.408H379.756V144.408ZM393.644 136.408V194.648H409.644V136.408H393.644ZM393.644 194.648C393.644 199.992 392.394 204.189 390.198 207.572L403.618 216.284C407.737 209.939 409.644 202.616 409.644 194.648H393.644ZM390.111 207.709C387.852 211.348 384.777 214.138 380.704 216.142L387.768 230.498C394.448 227.211 399.82 222.407 403.705 216.147L390.111 207.709ZM380.613 216.187C376.5 218.276 371.668 219.416 365.932 219.416V235.416C373.85 235.416 381.22 233.825 387.859 230.453L380.613 216.187ZM364.908 188.696C360.369 188.696 356.628 187.676 353.459 185.822L345.381 199.634C351.258 203.071 357.843 204.696 364.908 204.696V188.696ZM353.613 185.915C350.395 183.934 347.858 181.264 345.947 177.761L331.901 185.423C335.11 191.307 339.571 196.06 345.227 199.541L353.613 185.915ZM345.947 177.761C344.082 174.342 343.084 170.429 343.084 165.848H327.084C327.084 172.872 328.646 179.456 331.901 185.423L345.947 177.761ZM343.084 165.848C343.084 161.265 344.083 157.42 345.918 154.117L331.931 146.347C328.646 152.26 327.084 158.826 327.084 165.848H343.084ZM345.918 154.117C347.819 150.695 350.359 148.04 353.613 146.037L345.227 132.411C339.607 135.87 335.15 140.553 331.931 146.347L345.918 154.117ZM353.555 146.073C356.709 144.168 360.415 143.128 364.908 143.128V127.128C357.796 127.128 351.176 128.819 345.285 132.375L353.555 146.073ZM364.908 143.128C367.827 143.128 370.282 143.662 372.393 144.607L378.927 130.001C374.553 128.045 369.84 127.128 364.908 127.128V143.128ZM372.624 144.705C374.82 145.606 376.359 146.791 377.477 148.19L389.971 138.194C386.994 134.473 383.156 131.732 378.697 129.903L372.624 144.705ZM377.561 148.293C378.642 149.599 379.354 151.141 379.657 153.112L395.471 150.68C394.751 145.995 392.902 141.734 389.887 138.091L377.561 148.293ZM379.564 151.896V179.928H395.564V151.896H379.564ZM379.657 178.712C379.364 180.618 378.642 182.208 377.45 183.639L389.742 193.881C392.817 190.192 394.74 185.894 395.471 181.144L379.657 178.712ZM377.433 183.659C376.249 185.091 374.635 186.343 372.393 187.345L378.927 201.951C383.171 200.052 386.848 197.378 389.759 193.861L377.433 183.659ZM372.556 187.275C370.404 188.181 367.891 188.696 364.908 188.696V204.696C369.776 204.696 374.432 203.846 378.765 202.021L372.556 187.275ZM369.004 185.368C372.552 185.368 376.086 184.599 379.264 182.692L371.032 168.972C370.797 169.113 370.236 169.368 369.004 169.368V185.368ZM379.359 182.634C382.223 180.861 384.598 178.475 386.254 175.463L372.235 167.753C372.014 168.154 371.657 168.584 370.937 169.03L379.359 182.634ZM386.331 175.32C387.877 172.368 388.652 169.172 388.652 165.848H372.652C372.652 166.62 372.489 167.264 372.158 167.896L386.331 175.32ZM388.652 165.848C388.652 162.498 387.903 159.231 386.254 156.233L372.235 163.943C372.463 164.359 372.652 164.931 372.652 165.848H388.652ZM386.254 156.233C384.618 153.258 382.284 150.867 379.392 149.132L371.16 162.852C371.681 163.165 371.993 163.505 372.235 163.943L386.254 156.233ZM379.636 149.284C376.42 147.194 372.795 146.328 369.132 146.328V162.328C370.248 162.328 370.72 162.572 370.916 162.7L379.636 149.284ZM369.132 146.328C365.484 146.328 361.951 147.225 358.777 149.19L367.199 162.794C367.609 162.54 368.172 162.328 369.132 162.328V146.328ZM358.872 149.132C355.883 150.925 353.543 153.432 351.934 156.504L366.107 163.928C366.375 163.416 366.68 163.107 367.104 162.852L358.872 149.132ZM352.011 156.361C350.388 159.31 349.612 162.524 349.612 165.848H365.612C365.612 165.076 365.775 164.535 366.03 164.071L352.011 156.361ZM349.612 165.848C349.612 169.144 350.414 172.291 351.934 175.192L366.107 167.768C365.749 167.085 365.612 166.477 365.612 165.848H349.612ZM352.011 175.335C353.613 178.249 355.869 180.618 358.628 182.412L367.348 168.996C366.695 168.572 366.305 168.124 366.03 167.625L352.011 175.335ZM358.628 182.412C361.798 184.472 365.363 185.368 369.004 185.368V169.368C368.038 169.368 367.591 169.155 367.348 168.996L358.628 182.412ZM447.454 199H439.454V207H447.454V199ZM444.894 156.888L439.237 162.545L439.31 162.617L439.384 162.688L444.894 156.888ZM433.502 155.48L429.759 148.41L429.669 148.457L429.58 148.507L433.502 155.48ZM429.15 163.672L425.744 170.911L437.15 176.278V163.672H429.15ZM420.446 159.576H412.446V164.653L417.04 166.815L420.446 159.576ZM423.774 146.648L430.576 150.859L430.598 150.823L430.62 150.787L423.774 146.648ZM432.862 138.2L436.503 145.323L436.533 145.308L436.563 145.293L432.862 138.2ZM458.206 138.328L454.041 145.158L454.138 145.218L454.237 145.274L458.206 138.328ZM466.654 146.648L459.75 150.689L459.75 150.689L466.654 146.648ZM469.726 199V207H477.726V199H469.726ZM406.878 199H398.878V207H406.878V199ZM406.878 136.408V128.408H398.878V136.408H406.878ZM429.15 136.408H437.15V128.408H429.15V136.408ZM429.15 199V207H437.15V199H429.15ZM455.454 199V163.672H439.454V199H455.454ZM455.454 163.672C455.454 159.123 454.057 154.558 450.404 151.088L439.384 162.688C439.375 162.679 439.355 162.657 439.335 162.628C439.316 162.599 439.317 162.592 439.329 162.624C439.355 162.692 439.454 162.998 439.454 163.672H455.454ZM450.551 151.231C447.193 147.873 442.909 146.328 438.366 146.328V162.328C438.82 162.328 439.019 162.399 439.062 162.416C439.09 162.427 439.137 162.445 439.237 162.545L450.551 151.231ZM438.366 146.328C435.392 146.328 432.467 146.976 429.759 148.41L437.245 162.55C437.439 162.448 437.757 162.328 438.366 162.328V146.328ZM429.58 148.507C426.938 149.994 424.816 152.116 423.33 154.758L437.275 162.602C437.297 162.563 437.313 162.541 437.321 162.53C437.329 162.519 437.333 162.515 437.335 162.513C437.337 162.511 437.341 162.507 437.352 162.499C437.363 162.49 437.386 162.474 437.424 162.453L429.58 148.507ZM423.33 154.758C421.738 157.587 421.15 160.678 421.15 163.672H437.15C437.15 162.741 437.33 162.503 437.275 162.602L423.33 154.758ZM432.557 156.433L423.853 152.337L417.04 166.815L425.744 170.911L432.557 156.433ZM428.446 159.576C428.446 155.737 429.281 152.951 430.576 150.859L416.972 142.437C413.83 147.513 412.446 153.345 412.446 159.576H428.446ZM430.62 150.787C432.064 148.399 433.98 146.613 436.503 145.323L429.221 131.077C424.064 133.712 419.922 137.558 416.928 142.509L430.62 150.787ZM436.563 145.293C439.217 143.908 442.359 143.128 446.174 143.128V127.128C440.09 127.128 434.359 128.396 429.162 131.107L436.563 145.293ZM446.174 143.128C449.385 143.128 451.925 143.868 454.041 145.158L462.371 131.498C457.49 128.521 452.009 127.128 446.174 127.128V143.128ZM454.237 145.274C456.629 146.641 458.423 148.422 459.75 150.689L473.558 142.607C470.79 137.877 466.952 134.111 462.175 131.382L454.237 145.274ZM459.75 150.689C461.014 152.848 461.726 155.397 461.726 158.552H477.726C477.726 152.832 476.391 147.445 473.558 142.607L459.75 150.689ZM461.726 158.552V199H477.726V158.552H461.726ZM469.726 191H447.454V207H469.726V191ZM414.878 199V136.408H398.878V199H414.878ZM406.878 144.408H429.15V128.408H406.878V144.408ZM421.15 136.408V199H437.15V136.408H421.15ZM429.15 191H406.878V207H429.15V191ZM477.663 196.696L471.908 202.253L471.908 202.253L477.663 196.696ZM477.663 178.264L483.418 183.821L483.418 183.821L477.663 178.264ZM495.967 178.264L490.212 183.821L490.212 183.821L495.967 178.264ZM495.967 196.696L490.212 191.139L495.967 196.696ZM486.879 192.408C485.075 192.408 484.154 191.901 483.418 191.139L471.908 202.253C475.951 206.44 481.174 208.408 486.879 208.408V192.408ZM483.418 191.139C482.572 190.262 482.079 189.229 482.079 187.48H466.079C466.079 193.07 467.976 198.181 471.908 202.253L483.418 191.139ZM482.079 187.48C482.079 185.731 482.572 184.698 483.418 183.821L471.908 172.707C467.976 176.779 466.079 181.89 466.079 187.48H482.079ZM483.418 183.821C484.154 183.059 485.075 182.552 486.879 182.552V166.552C481.174 166.552 475.951 168.52 471.908 172.707L483.418 183.821ZM486.879 182.552C488.539 182.552 489.439 183.02 490.212 183.821L501.722 172.707C497.717 168.559 492.558 166.552 486.879 166.552V182.552ZM490.212 183.821C491.059 184.698 491.551 185.731 491.551 187.48H507.551C507.551 181.89 505.654 176.779 501.722 172.707L490.212 183.821ZM491.551 187.48C491.551 189.229 491.059 190.262 490.212 191.139L501.722 202.253C505.654 198.181 507.551 193.07 507.551 187.48H491.551ZM490.212 191.139C489.439 191.94 488.539 192.408 486.879 192.408V208.408C492.558 208.408 497.717 206.401 501.722 202.253L490.212 191.139Z" fill="black" mask="url(#path-4-outside-1_412_30)"/>
</svg>
