<svg width="522" height="224" viewBox="0 0 522 224" fill="none" xmlns="http://www.w3.org/2000/svg">
<mask id="path-1-outside-1_412_24" maskUnits="userSpaceOnUse" x="-7.99976" y="-8" width="538" height="240" fill="black">
<rect fill="white" x="-7.99976" y="-8" width="538" height="240"/>
<path d="M45.1042 94V58.672C45.1042 55.7707 44.2509 53.5093 42.5442 51.888C40.8376 50.1813 38.6616 49.328 36.0162 49.328C34.2242 49.328 32.6029 49.712 31.1522 50.48C29.7869 51.248 28.7202 52.3147 27.9522 53.68C27.1842 55.0453 26.8002 56.7093 26.8002 58.672L18.0962 54.576C18.0962 49.5413 19.2056 45.232 21.4242 41.648C23.6429 37.9787 26.6722 35.1627 30.5122 33.2C34.4376 31.152 38.8749 30.128 43.8242 30.128C48.3469 30.128 52.3576 31.1947 55.8562 33.328C59.4402 35.376 62.2562 38.1493 64.3042 41.648C66.3522 45.1467 67.3763 49.1147 67.3763 53.552V94H45.1042ZM4.52824 94V31.408H26.8002V94H4.52824ZM102.321 95.408C95.5799 95.408 89.5639 94 84.2732 91.184C79.0679 88.2827 74.9292 84.3573 71.8572 79.408C68.7852 74.3733 67.2492 68.7413 67.2492 62.512C67.2492 56.2827 68.7426 50.736 71.7292 45.872C74.8012 40.9227 78.9826 37.04 84.2732 34.224C89.5639 31.3227 95.5372 29.872 102.193 29.872C108.849 29.872 114.78 31.3227 119.985 34.224C125.276 37.04 129.457 40.9227 132.529 45.872C135.601 50.736 137.137 56.2827 137.137 62.512C137.137 68.7413 135.601 74.3733 132.529 79.408C129.543 84.3573 125.404 88.2827 120.113 91.184C114.908 94 108.977 95.408 102.321 95.408ZM102.193 75.568C104.668 75.568 106.801 75.056 108.593 74.032C110.471 72.9227 111.921 71.3867 112.945 69.424C113.969 67.4613 114.481 65.2 114.481 62.64C114.481 60.08 113.927 57.8613 112.817 55.984C111.793 54.0213 110.385 52.528 108.593 51.504C106.801 50.3947 104.668 49.84 102.193 49.84C99.8039 49.84 97.6706 50.3947 95.7932 51.504C93.9159 52.6133 92.4652 54.1493 91.4412 56.112C90.4172 57.9893 89.9052 60.208 89.9052 62.768C89.9052 65.2427 90.4172 67.4613 91.4412 69.424C92.4652 71.3867 93.9159 72.9227 95.7932 74.032C97.6706 75.056 99.8039 75.568 102.193 75.568ZM165.173 95.28C159.115 95.28 153.781 93.872 149.173 91.056C144.565 88.24 140.939 84.4 138.293 79.536C135.733 74.5867 134.453 68.9973 134.453 62.768C134.453 56.4533 135.733 50.8213 138.293 45.872C140.939 40.9227 144.523 37.0827 149.045 34.352C153.653 31.536 159.029 30.128 165.173 30.128C169.099 30.128 172.768 30.8533 176.181 32.304C179.595 33.6693 182.453 35.632 184.757 38.192C187.061 40.752 188.427 43.6533 188.853 46.896V77.488C188.427 80.7307 187.061 83.7173 184.757 86.448C182.453 89.1787 179.595 91.3547 176.181 92.976C172.768 94.512 169.099 95.28 165.173 95.28ZM169.141 75.44C171.616 75.44 173.749 74.928 175.541 73.904C177.333 72.7947 178.741 71.3013 179.765 69.424C180.875 67.4613 181.429 65.2 181.429 62.64C181.429 60.1653 180.917 57.9893 179.893 56.112C178.869 54.2347 177.419 52.7413 175.541 51.632C173.749 50.5227 171.659 49.968 169.269 49.968C166.88 49.968 164.747 50.5227 162.869 51.632C161.077 52.7413 159.627 54.2773 158.517 56.24C157.493 58.1173 156.981 60.2507 156.981 62.64C156.981 65.1147 157.493 67.3333 158.517 69.296C159.541 71.1733 160.992 72.6667 162.869 73.776C164.747 74.8853 166.837 75.44 169.141 75.44ZM202.421 94H180.533V77.232L183.733 61.872L180.149 46.768V0.687996H202.421V94ZM239.354 95.408C232.357 95.408 226.17 94.0427 220.794 91.312C215.418 88.496 211.194 84.6133 208.122 79.664C205.05 74.7147 203.514 69.04 203.514 62.64C203.514 56.3253 205.008 50.736 207.994 45.872C210.981 40.9227 215.034 37.04 220.154 34.224C225.36 31.3227 231.205 29.872 237.69 29.872C244.005 29.872 249.594 31.2373 254.458 33.968C259.408 36.6133 263.248 40.3253 265.978 45.104C268.794 49.7973 270.202 55.1733 270.202 61.232C270.202 62.512 270.117 63.8347 269.946 65.2C269.861 66.48 269.605 67.9733 269.178 69.68L214.01 69.936V55.6L260.346 55.216L250.362 61.488C250.277 57.9893 249.765 55.1307 248.826 52.912C247.888 50.608 246.522 48.8587 244.73 47.664C242.938 46.4693 240.677 45.872 237.946 45.872C235.13 45.872 232.698 46.5547 230.65 47.92C228.602 49.2853 227.024 51.2053 225.914 53.68C224.805 56.1547 224.25 59.1413 224.25 62.64C224.25 66.224 224.848 69.296 226.042 71.856C227.237 74.3307 228.944 76.208 231.162 77.488C233.381 78.768 236.112 79.408 239.354 79.408C242.426 79.408 245.114 78.896 247.418 77.872C249.808 76.848 251.941 75.2693 253.818 73.136L265.466 84.784C262.394 88.2827 258.64 90.928 254.202 92.72C249.85 94.512 244.901 95.408 239.354 95.408ZM297.813 95.28C291.755 95.28 286.421 93.872 281.813 91.056C277.205 88.24 273.579 84.4 270.933 79.536C268.373 74.5867 267.093 68.9973 267.093 62.768C267.093 56.4533 268.373 50.8213 270.933 45.872C273.579 40.9227 277.163 37.0827 281.685 34.352C286.293 31.536 291.669 30.128 297.813 30.128C301.739 30.128 305.408 30.8533 308.821 32.304C312.235 33.6693 315.093 35.632 317.397 38.192C319.701 40.752 321.067 43.6533 321.493 46.896V77.488C321.067 80.7307 319.701 83.7173 317.397 86.448C315.093 89.1787 312.235 91.3547 308.821 92.976C305.408 94.512 301.739 95.28 297.813 95.28ZM301.781 75.44C304.256 75.44 306.389 74.928 308.181 73.904C309.973 72.7947 311.381 71.3013 312.405 69.424C313.515 67.4613 314.069 65.2 314.069 62.64C314.069 60.1653 313.557 57.9893 312.533 56.112C311.509 54.2347 310.059 52.7413 308.181 51.632C306.389 50.5227 304.299 49.968 301.909 49.968C299.52 49.968 297.387 50.5227 295.509 51.632C293.717 52.7413 292.267 54.2773 291.157 56.24C290.133 58.1173 289.621 60.2507 289.621 62.64C289.621 65.1147 290.133 67.3333 291.157 69.296C292.181 71.1733 293.632 72.6667 295.509 73.776C297.387 74.8853 299.477 75.44 301.781 75.44ZM335.061 94H313.173V77.232L316.373 61.872L312.789 46.768V0.687996H335.061V94ZM340.378 94V31.408H362.65V94H340.378ZM362.65 59.952L352.666 51.504C355.141 44.4213 358.426 39.088 362.522 35.504C366.618 31.92 371.952 30.128 378.522 30.128C381.509 30.128 384.069 30.512 386.202 31.28C388.421 32.048 390.298 33.2427 391.834 34.864L378.906 52.144C378.224 51.376 377.242 50.7787 375.962 50.352C374.768 49.84 373.402 49.584 371.866 49.584C368.965 49.584 366.704 50.48 365.082 52.272C363.461 53.9787 362.65 56.5387 362.65 59.952ZM417.671 95.408C410.93 95.408 404.914 94 399.623 91.184C394.418 88.2827 390.279 84.3573 387.207 79.408C384.135 74.3733 382.599 68.7413 382.599 62.512C382.599 56.2827 384.093 50.736 387.079 45.872C390.151 40.9227 394.333 37.04 399.623 34.224C404.914 31.3227 410.887 29.872 417.543 29.872C424.199 29.872 430.13 31.3227 435.335 34.224C440.626 37.04 444.807 40.9227 447.879 45.872C450.951 50.736 452.487 56.2827 452.487 62.512C452.487 68.7413 450.951 74.3733 447.879 79.408C444.893 84.3573 440.754 88.2827 435.463 91.184C430.258 94 424.327 95.408 417.671 95.408ZM417.543 75.568C420.018 75.568 422.151 75.056 423.943 74.032C425.821 72.9227 427.271 71.3867 428.295 69.424C429.319 67.4613 429.831 65.2 429.831 62.64C429.831 60.08 429.277 57.8613 428.167 55.984C427.143 54.0213 425.735 52.528 423.943 51.504C422.151 50.3947 420.018 49.84 417.543 49.84C415.154 49.84 413.021 50.3947 411.143 51.504C409.266 52.6133 407.815 54.1493 406.791 56.112C405.767 57.9893 405.255 60.208 405.255 62.768C405.255 65.2427 405.767 67.4613 406.791 69.424C407.815 71.3867 409.266 72.9227 411.143 74.032C413.021 75.056 415.154 75.568 417.543 75.568ZM490.891 95.28C486.881 95.28 483.169 94.5547 479.755 93.104C476.342 91.6533 473.526 89.6907 471.307 87.216C469.089 84.656 467.723 81.712 467.211 78.384V47.92C467.723 44.592 469.089 41.6053 471.307 38.96C473.611 36.2293 476.427 34.096 479.755 32.56C483.169 30.9387 486.881 30.128 490.891 30.128C496.95 30.128 502.283 31.536 506.891 34.352C511.499 37.0827 515.083 40.9227 517.643 45.872C520.289 50.8213 521.611 56.4533 521.611 62.768C521.611 68.9973 520.289 74.5867 517.643 79.536C515.083 84.4 511.499 88.24 506.891 91.056C502.283 93.872 496.95 95.28 490.891 95.28ZM453.643 120.496V31.408H475.915V47.152L472.203 62.256L475.403 77.488V120.496H453.643ZM486.667 75.44C489.142 75.44 491.318 74.8853 493.195 73.776C495.073 72.6667 496.523 71.1733 497.547 69.296C498.571 67.3333 499.083 65.1147 499.083 62.64C499.083 60.1653 498.571 57.9893 497.547 56.112C496.523 54.2347 495.073 52.7413 493.195 51.632C491.318 50.5227 489.185 49.968 486.795 49.968C484.491 49.968 482.401 50.5227 480.523 51.632C478.646 52.656 477.195 54.1493 476.171 56.112C475.147 57.9893 474.635 60.1653 474.635 62.64C474.635 65.1147 475.147 67.3333 476.171 69.296C477.195 71.1733 478.603 72.6667 480.395 73.776C482.273 74.8853 484.363 75.44 486.667 75.44ZM31.4082 196.28C25.3496 196.28 20.0162 194.872 15.4082 192.056C10.8002 189.24 7.17358 185.4 4.52824 180.536C1.96824 175.587 0.688244 169.997 0.688244 163.768C0.688244 157.453 1.96824 151.821 4.52824 146.872C7.17358 141.923 10.7576 138.083 15.2802 135.352C19.8882 132.536 25.2642 131.128 31.4082 131.128C35.3336 131.128 39.0029 131.853 42.4162 133.304C45.8296 134.669 48.6882 136.632 50.9922 139.192C53.2962 141.752 54.6616 144.653 55.0882 147.896V178.488C54.6616 181.731 53.2962 184.717 50.9922 187.448C48.6882 190.179 45.8296 192.355 42.4162 193.976C39.0029 195.512 35.3336 196.28 31.4082 196.28ZM35.3762 176.44C37.8509 176.44 39.9842 175.928 41.7762 174.904C43.5682 173.795 44.9762 172.301 46.0002 170.424C47.1096 168.461 47.6642 166.2 47.6642 163.64C47.6642 161.165 47.1522 158.989 46.1282 157.112C45.1042 155.235 43.6536 153.741 41.7762 152.632C39.9842 151.523 37.8936 150.968 35.5042 150.968C33.1149 150.968 30.9816 151.523 29.1042 152.632C27.3122 153.741 25.8616 155.277 24.7522 157.24C23.7282 159.117 23.2162 161.251 23.2162 163.64C23.2162 166.115 23.7282 168.333 24.7522 170.296C25.7762 172.173 27.2269 173.667 29.1042 174.776C30.9816 175.885 33.0722 176.44 35.3762 176.44ZM68.6562 195H46.7682V178.232L49.9682 162.872L46.3842 147.768V101.688H68.6562V195ZM105.589 196.408C98.5919 196.408 92.4052 195.043 87.0292 192.312C81.6532 189.496 77.4292 185.613 74.3572 180.664C71.2852 175.715 69.7492 170.04 69.7492 163.64C69.7492 157.325 71.2426 151.736 74.2292 146.872C77.2159 141.923 81.2692 138.04 86.3892 135.224C91.5946 132.323 97.4399 130.872 103.925 130.872C110.24 130.872 115.829 132.237 120.693 134.968C125.643 137.613 129.483 141.325 132.213 146.104C135.029 150.797 136.437 156.173 136.437 162.232C136.437 163.512 136.352 164.835 136.181 166.2C136.096 167.48 135.84 168.973 135.413 170.68L80.2452 170.936V156.6L126.581 156.216L116.597 162.488C116.512 158.989 116 156.131 115.061 153.912C114.123 151.608 112.757 149.859 110.965 148.664C109.173 147.469 106.912 146.872 104.181 146.872C101.365 146.872 98.9332 147.555 96.8852 148.92C94.8372 150.285 93.2586 152.205 92.1492 154.68C91.0399 157.155 90.4852 160.141 90.4852 163.64C90.4852 167.224 91.0826 170.296 92.2772 172.856C93.4719 175.331 95.1786 177.208 97.3972 178.488C99.6159 179.768 102.347 180.408 105.589 180.408C108.661 180.408 111.349 179.896 113.653 178.872C116.043 177.848 118.176 176.269 120.053 174.136L131.701 185.784C128.629 189.283 124.875 191.928 120.437 193.72C116.085 195.512 111.136 196.408 105.589 196.408ZM160.976 196.792C157.136 196.792 153.339 196.28 149.584 195.256C145.915 194.232 142.459 192.867 139.216 191.16C136.059 189.368 133.371 187.32 131.152 185.016L143.312 172.6C145.36 174.733 147.792 176.397 150.608 177.592C153.51 178.787 156.582 179.384 159.824 179.384C161.702 179.384 163.11 179.128 164.048 178.616C165.072 178.104 165.584 177.379 165.584 176.44C165.584 175.075 164.859 174.051 163.408 173.368C162.043 172.6 160.208 171.96 157.904 171.448C155.686 170.851 153.339 170.168 150.864 169.4C148.39 168.547 146 167.437 143.696 166.072C141.392 164.707 139.515 162.787 138.064 160.312C136.699 157.837 136.016 154.68 136.016 150.84C136.016 146.829 137.083 143.331 139.216 140.344C141.435 137.272 144.507 134.883 148.432 133.176C152.358 131.384 156.966 130.488 162.256 130.488C167.632 130.488 172.752 131.427 177.616 133.304C182.48 135.096 186.406 137.827 189.392 141.496L177.104 153.912C175.056 151.608 172.795 150.029 170.32 149.176C167.846 148.237 165.584 147.768 163.536 147.768C161.574 147.768 160.166 148.067 159.312 148.664C158.459 149.176 158.032 149.901 158.032 150.84C158.032 151.949 158.715 152.845 160.08 153.528C161.531 154.211 163.366 154.851 165.584 155.448C167.888 155.96 170.235 156.643 172.624 157.496C175.099 158.349 177.446 159.544 179.664 161.08C181.968 162.531 183.803 164.493 185.168 166.968C186.619 169.443 187.344 172.643 187.344 176.568C187.344 182.797 184.955 187.747 180.176 191.416C175.398 195 168.998 196.792 160.976 196.792ZM189.61 195V132.408H212.01V195H189.61ZM200.746 125.112C197.418 125.112 194.645 124.003 192.426 121.784C190.208 119.48 189.098 116.621 189.098 113.208C189.098 109.88 190.208 107.064 192.426 104.76C194.645 102.456 197.418 101.304 200.746 101.304C204.245 101.304 207.061 102.456 209.194 104.76C211.413 107.064 212.522 109.88 212.522 113.208C212.522 116.621 211.413 119.48 209.194 121.784C207.061 124.003 204.245 125.112 200.746 125.112ZM243.932 223.416C237.02 223.416 230.876 222.221 225.5 219.832C220.21 217.528 216.071 214.243 213.084 209.976L226.524 196.664C228.658 198.968 231.004 200.76 233.564 202.04C236.124 203.405 239.239 204.088 242.908 204.088C247.346 204.088 250.844 202.979 253.404 200.76C256.05 198.627 257.372 195.512 257.372 191.416V175.16L260.956 161.592L257.756 148.152V132.408H279.644V190.648C279.644 197.304 278.066 203.064 274.908 207.928C271.836 212.877 267.612 216.675 262.236 219.32C256.86 222.051 250.759 223.416 243.932 223.416ZM242.908 192.696C237.106 192.696 231.943 191.373 227.42 188.728C222.983 185.997 219.484 182.285 216.924 177.592C214.364 172.899 213.084 167.651 213.084 161.848C213.084 156.045 214.364 150.84 216.924 146.232C219.484 141.624 222.983 137.955 227.42 135.224C231.943 132.493 237.106 131.128 242.908 131.128C246.834 131.128 250.418 131.853 253.66 133.304C256.988 134.669 259.676 136.632 261.724 139.192C263.772 141.667 265.052 144.568 265.564 147.896V175.928C265.052 179.256 263.73 182.2 261.596 184.76C259.548 187.235 256.903 189.197 253.66 190.648C250.418 192.013 246.834 192.696 242.908 192.696ZM247.004 173.368C249.394 173.368 251.442 172.856 253.148 171.832C254.94 170.723 256.306 169.315 257.244 167.608C258.183 165.816 258.652 163.896 258.652 161.848C258.652 159.715 258.183 157.795 257.244 156.088C256.306 154.381 254.983 153.016 253.276 151.992C251.57 150.883 249.522 150.328 247.132 150.328C244.828 150.328 242.78 150.883 240.988 151.992C239.282 153.016 237.959 154.424 237.02 156.216C236.082 157.923 235.612 159.8 235.612 161.848C235.612 163.811 236.082 165.688 237.02 167.48C237.959 169.187 239.282 170.595 240.988 171.704C242.695 172.813 244.7 173.368 247.004 173.368ZM325.454 195V159.672C325.454 156.771 324.601 154.509 322.894 152.888C321.188 151.181 319.012 150.328 316.366 150.328C314.574 150.328 312.953 150.712 311.502 151.48C310.137 152.248 309.07 153.315 308.302 154.68C307.534 156.045 307.15 157.709 307.15 159.672L298.446 155.576C298.446 150.541 299.556 146.232 301.774 142.648C303.993 138.979 307.022 136.163 310.862 134.2C314.788 132.152 319.225 131.128 324.174 131.128C328.697 131.128 332.708 132.195 336.206 134.328C339.79 136.376 342.606 139.149 344.654 142.648C346.702 146.147 347.726 150.115 347.726 154.552V195H325.454ZM284.878 195V132.408H307.15V195H284.878ZM364.879 196.408C361.125 196.408 358.053 195.171 355.663 192.696C353.274 190.221 352.079 187.149 352.079 183.48C352.079 179.811 353.274 176.739 355.663 174.264C358.053 171.789 361.125 170.552 364.879 170.552C368.549 170.552 371.578 171.789 373.967 174.264C376.357 176.739 377.551 179.811 377.551 183.48C377.551 187.149 376.357 190.221 373.967 192.696C371.578 195.171 368.549 196.408 364.879 196.408Z"/>
</mask>
<path d="M45.1042 94V58.672C45.1042 55.7707 44.2509 53.5093 42.5442 51.888C40.8376 50.1813 38.6616 49.328 36.0162 49.328C34.2242 49.328 32.6029 49.712 31.1522 50.48C29.7869 51.248 28.7202 52.3147 27.9522 53.68C27.1842 55.0453 26.8002 56.7093 26.8002 58.672L18.0962 54.576C18.0962 49.5413 19.2056 45.232 21.4242 41.648C23.6429 37.9787 26.6722 35.1627 30.5122 33.2C34.4376 31.152 38.8749 30.128 43.8242 30.128C48.3469 30.128 52.3576 31.1947 55.8562 33.328C59.4402 35.376 62.2562 38.1493 64.3042 41.648C66.3522 45.1467 67.3763 49.1147 67.3763 53.552V94H45.1042ZM4.52824 94V31.408H26.8002V94H4.52824ZM102.321 95.408C95.5799 95.408 89.5639 94 84.2732 91.184C79.0679 88.2827 74.9292 84.3573 71.8572 79.408C68.7852 74.3733 67.2492 68.7413 67.2492 62.512C67.2492 56.2827 68.7426 50.736 71.7292 45.872C74.8012 40.9227 78.9826 37.04 84.2732 34.224C89.5639 31.3227 95.5372 29.872 102.193 29.872C108.849 29.872 114.78 31.3227 119.985 34.224C125.276 37.04 129.457 40.9227 132.529 45.872C135.601 50.736 137.137 56.2827 137.137 62.512C137.137 68.7413 135.601 74.3733 132.529 79.408C129.543 84.3573 125.404 88.2827 120.113 91.184C114.908 94 108.977 95.408 102.321 95.408ZM102.193 75.568C104.668 75.568 106.801 75.056 108.593 74.032C110.471 72.9227 111.921 71.3867 112.945 69.424C113.969 67.4613 114.481 65.2 114.481 62.64C114.481 60.08 113.927 57.8613 112.817 55.984C111.793 54.0213 110.385 52.528 108.593 51.504C106.801 50.3947 104.668 49.84 102.193 49.84C99.8039 49.84 97.6706 50.3947 95.7932 51.504C93.9159 52.6133 92.4652 54.1493 91.4412 56.112C90.4172 57.9893 89.9052 60.208 89.9052 62.768C89.9052 65.2427 90.4172 67.4613 91.4412 69.424C92.4652 71.3867 93.9159 72.9227 95.7932 74.032C97.6706 75.056 99.8039 75.568 102.193 75.568ZM165.173 95.28C159.115 95.28 153.781 93.872 149.173 91.056C144.565 88.24 140.939 84.4 138.293 79.536C135.733 74.5867 134.453 68.9973 134.453 62.768C134.453 56.4533 135.733 50.8213 138.293 45.872C140.939 40.9227 144.523 37.0827 149.045 34.352C153.653 31.536 159.029 30.128 165.173 30.128C169.099 30.128 172.768 30.8533 176.181 32.304C179.595 33.6693 182.453 35.632 184.757 38.192C187.061 40.752 188.427 43.6533 188.853 46.896V77.488C188.427 80.7307 187.061 83.7173 184.757 86.448C182.453 89.1787 179.595 91.3547 176.181 92.976C172.768 94.512 169.099 95.28 165.173 95.28ZM169.141 75.44C171.616 75.44 173.749 74.928 175.541 73.904C177.333 72.7947 178.741 71.3013 179.765 69.424C180.875 67.4613 181.429 65.2 181.429 62.64C181.429 60.1653 180.917 57.9893 179.893 56.112C178.869 54.2347 177.419 52.7413 175.541 51.632C173.749 50.5227 171.659 49.968 169.269 49.968C166.88 49.968 164.747 50.5227 162.869 51.632C161.077 52.7413 159.627 54.2773 158.517 56.24C157.493 58.1173 156.981 60.2507 156.981 62.64C156.981 65.1147 157.493 67.3333 158.517 69.296C159.541 71.1733 160.992 72.6667 162.869 73.776C164.747 74.8853 166.837 75.44 169.141 75.44ZM202.421 94H180.533V77.232L183.733 61.872L180.149 46.768V0.687996H202.421V94ZM239.354 95.408C232.357 95.408 226.17 94.0427 220.794 91.312C215.418 88.496 211.194 84.6133 208.122 79.664C205.05 74.7147 203.514 69.04 203.514 62.64C203.514 56.3253 205.008 50.736 207.994 45.872C210.981 40.9227 215.034 37.04 220.154 34.224C225.36 31.3227 231.205 29.872 237.69 29.872C244.005 29.872 249.594 31.2373 254.458 33.968C259.408 36.6133 263.248 40.3253 265.978 45.104C268.794 49.7973 270.202 55.1733 270.202 61.232C270.202 62.512 270.117 63.8347 269.946 65.2C269.861 66.48 269.605 67.9733 269.178 69.68L214.01 69.936V55.6L260.346 55.216L250.362 61.488C250.277 57.9893 249.765 55.1307 248.826 52.912C247.888 50.608 246.522 48.8587 244.73 47.664C242.938 46.4693 240.677 45.872 237.946 45.872C235.13 45.872 232.698 46.5547 230.65 47.92C228.602 49.2853 227.024 51.2053 225.914 53.68C224.805 56.1547 224.25 59.1413 224.25 62.64C224.25 66.224 224.848 69.296 226.042 71.856C227.237 74.3307 228.944 76.208 231.162 77.488C233.381 78.768 236.112 79.408 239.354 79.408C242.426 79.408 245.114 78.896 247.418 77.872C249.808 76.848 251.941 75.2693 253.818 73.136L265.466 84.784C262.394 88.2827 258.64 90.928 254.202 92.72C249.85 94.512 244.901 95.408 239.354 95.408ZM297.813 95.28C291.755 95.28 286.421 93.872 281.813 91.056C277.205 88.24 273.579 84.4 270.933 79.536C268.373 74.5867 267.093 68.9973 267.093 62.768C267.093 56.4533 268.373 50.8213 270.933 45.872C273.579 40.9227 277.163 37.0827 281.685 34.352C286.293 31.536 291.669 30.128 297.813 30.128C301.739 30.128 305.408 30.8533 308.821 32.304C312.235 33.6693 315.093 35.632 317.397 38.192C319.701 40.752 321.067 43.6533 321.493 46.896V77.488C321.067 80.7307 319.701 83.7173 317.397 86.448C315.093 89.1787 312.235 91.3547 308.821 92.976C305.408 94.512 301.739 95.28 297.813 95.28ZM301.781 75.44C304.256 75.44 306.389 74.928 308.181 73.904C309.973 72.7947 311.381 71.3013 312.405 69.424C313.515 67.4613 314.069 65.2 314.069 62.64C314.069 60.1653 313.557 57.9893 312.533 56.112C311.509 54.2347 310.059 52.7413 308.181 51.632C306.389 50.5227 304.299 49.968 301.909 49.968C299.52 49.968 297.387 50.5227 295.509 51.632C293.717 52.7413 292.267 54.2773 291.157 56.24C290.133 58.1173 289.621 60.2507 289.621 62.64C289.621 65.1147 290.133 67.3333 291.157 69.296C292.181 71.1733 293.632 72.6667 295.509 73.776C297.387 74.8853 299.477 75.44 301.781 75.44ZM335.061 94H313.173V77.232L316.373 61.872L312.789 46.768V0.687996H335.061V94ZM340.378 94V31.408H362.65V94H340.378ZM362.65 59.952L352.666 51.504C355.141 44.4213 358.426 39.088 362.522 35.504C366.618 31.92 371.952 30.128 378.522 30.128C381.509 30.128 384.069 30.512 386.202 31.28C388.421 32.048 390.298 33.2427 391.834 34.864L378.906 52.144C378.224 51.376 377.242 50.7787 375.962 50.352C374.768 49.84 373.402 49.584 371.866 49.584C368.965 49.584 366.704 50.48 365.082 52.272C363.461 53.9787 362.65 56.5387 362.65 59.952ZM417.671 95.408C410.93 95.408 404.914 94 399.623 91.184C394.418 88.2827 390.279 84.3573 387.207 79.408C384.135 74.3733 382.599 68.7413 382.599 62.512C382.599 56.2827 384.093 50.736 387.079 45.872C390.151 40.9227 394.333 37.04 399.623 34.224C404.914 31.3227 410.887 29.872 417.543 29.872C424.199 29.872 430.13 31.3227 435.335 34.224C440.626 37.04 444.807 40.9227 447.879 45.872C450.951 50.736 452.487 56.2827 452.487 62.512C452.487 68.7413 450.951 74.3733 447.879 79.408C444.893 84.3573 440.754 88.2827 435.463 91.184C430.258 94 424.327 95.408 417.671 95.408ZM417.543 75.568C420.018 75.568 422.151 75.056 423.943 74.032C425.821 72.9227 427.271 71.3867 428.295 69.424C429.319 67.4613 429.831 65.2 429.831 62.64C429.831 60.08 429.277 57.8613 428.167 55.984C427.143 54.0213 425.735 52.528 423.943 51.504C422.151 50.3947 420.018 49.84 417.543 49.84C415.154 49.84 413.021 50.3947 411.143 51.504C409.266 52.6133 407.815 54.1493 406.791 56.112C405.767 57.9893 405.255 60.208 405.255 62.768C405.255 65.2427 405.767 67.4613 406.791 69.424C407.815 71.3867 409.266 72.9227 411.143 74.032C413.021 75.056 415.154 75.568 417.543 75.568ZM490.891 95.28C486.881 95.28 483.169 94.5547 479.755 93.104C476.342 91.6533 473.526 89.6907 471.307 87.216C469.089 84.656 467.723 81.712 467.211 78.384V47.92C467.723 44.592 469.089 41.6053 471.307 38.96C473.611 36.2293 476.427 34.096 479.755 32.56C483.169 30.9387 486.881 30.128 490.891 30.128C496.95 30.128 502.283 31.536 506.891 34.352C511.499 37.0827 515.083 40.9227 517.643 45.872C520.289 50.8213 521.611 56.4533 521.611 62.768C521.611 68.9973 520.289 74.5867 517.643 79.536C515.083 84.4 511.499 88.24 506.891 91.056C502.283 93.872 496.95 95.28 490.891 95.28ZM453.643 120.496V31.408H475.915V47.152L472.203 62.256L475.403 77.488V120.496H453.643ZM486.667 75.44C489.142 75.44 491.318 74.8853 493.195 73.776C495.073 72.6667 496.523 71.1733 497.547 69.296C498.571 67.3333 499.083 65.1147 499.083 62.64C499.083 60.1653 498.571 57.9893 497.547 56.112C496.523 54.2347 495.073 52.7413 493.195 51.632C491.318 50.5227 489.185 49.968 486.795 49.968C484.491 49.968 482.401 50.5227 480.523 51.632C478.646 52.656 477.195 54.1493 476.171 56.112C475.147 57.9893 474.635 60.1653 474.635 62.64C474.635 65.1147 475.147 67.3333 476.171 69.296C477.195 71.1733 478.603 72.6667 480.395 73.776C482.273 74.8853 484.363 75.44 486.667 75.44ZM31.4082 196.28C25.3496 196.28 20.0162 194.872 15.4082 192.056C10.8002 189.24 7.17358 185.4 4.52824 180.536C1.96824 175.587 0.688244 169.997 0.688244 163.768C0.688244 157.453 1.96824 151.821 4.52824 146.872C7.17358 141.923 10.7576 138.083 15.2802 135.352C19.8882 132.536 25.2642 131.128 31.4082 131.128C35.3336 131.128 39.0029 131.853 42.4162 133.304C45.8296 134.669 48.6882 136.632 50.9922 139.192C53.2962 141.752 54.6616 144.653 55.0882 147.896V178.488C54.6616 181.731 53.2962 184.717 50.9922 187.448C48.6882 190.179 45.8296 192.355 42.4162 193.976C39.0029 195.512 35.3336 196.28 31.4082 196.28ZM35.3762 176.44C37.8509 176.44 39.9842 175.928 41.7762 174.904C43.5682 173.795 44.9762 172.301 46.0002 170.424C47.1096 168.461 47.6642 166.2 47.6642 163.64C47.6642 161.165 47.1522 158.989 46.1282 157.112C45.1042 155.235 43.6536 153.741 41.7762 152.632C39.9842 151.523 37.8936 150.968 35.5042 150.968C33.1149 150.968 30.9816 151.523 29.1042 152.632C27.3122 153.741 25.8616 155.277 24.7522 157.24C23.7282 159.117 23.2162 161.251 23.2162 163.64C23.2162 166.115 23.7282 168.333 24.7522 170.296C25.7762 172.173 27.2269 173.667 29.1042 174.776C30.9816 175.885 33.0722 176.44 35.3762 176.44ZM68.6562 195H46.7682V178.232L49.9682 162.872L46.3842 147.768V101.688H68.6562V195ZM105.589 196.408C98.5919 196.408 92.4052 195.043 87.0292 192.312C81.6532 189.496 77.4292 185.613 74.3572 180.664C71.2852 175.715 69.7492 170.04 69.7492 163.64C69.7492 157.325 71.2426 151.736 74.2292 146.872C77.2159 141.923 81.2692 138.04 86.3892 135.224C91.5946 132.323 97.4399 130.872 103.925 130.872C110.24 130.872 115.829 132.237 120.693 134.968C125.643 137.613 129.483 141.325 132.213 146.104C135.029 150.797 136.437 156.173 136.437 162.232C136.437 163.512 136.352 164.835 136.181 166.2C136.096 167.48 135.84 168.973 135.413 170.68L80.2452 170.936V156.6L126.581 156.216L116.597 162.488C116.512 158.989 116 156.131 115.061 153.912C114.123 151.608 112.757 149.859 110.965 148.664C109.173 147.469 106.912 146.872 104.181 146.872C101.365 146.872 98.9332 147.555 96.8852 148.92C94.8372 150.285 93.2586 152.205 92.1492 154.68C91.0399 157.155 90.4852 160.141 90.4852 163.64C90.4852 167.224 91.0826 170.296 92.2772 172.856C93.4719 175.331 95.1786 177.208 97.3972 178.488C99.6159 179.768 102.347 180.408 105.589 180.408C108.661 180.408 111.349 179.896 113.653 178.872C116.043 177.848 118.176 176.269 120.053 174.136L131.701 185.784C128.629 189.283 124.875 191.928 120.437 193.72C116.085 195.512 111.136 196.408 105.589 196.408ZM160.976 196.792C157.136 196.792 153.339 196.28 149.584 195.256C145.915 194.232 142.459 192.867 139.216 191.16C136.059 189.368 133.371 187.32 131.152 185.016L143.312 172.6C145.36 174.733 147.792 176.397 150.608 177.592C153.51 178.787 156.582 179.384 159.824 179.384C161.702 179.384 163.11 179.128 164.048 178.616C165.072 178.104 165.584 177.379 165.584 176.44C165.584 175.075 164.859 174.051 163.408 173.368C162.043 172.6 160.208 171.96 157.904 171.448C155.686 170.851 153.339 170.168 150.864 169.4C148.39 168.547 146 167.437 143.696 166.072C141.392 164.707 139.515 162.787 138.064 160.312C136.699 157.837 136.016 154.68 136.016 150.84C136.016 146.829 137.083 143.331 139.216 140.344C141.435 137.272 144.507 134.883 148.432 133.176C152.358 131.384 156.966 130.488 162.256 130.488C167.632 130.488 172.752 131.427 177.616 133.304C182.48 135.096 186.406 137.827 189.392 141.496L177.104 153.912C175.056 151.608 172.795 150.029 170.32 149.176C167.846 148.237 165.584 147.768 163.536 147.768C161.574 147.768 160.166 148.067 159.312 148.664C158.459 149.176 158.032 149.901 158.032 150.84C158.032 151.949 158.715 152.845 160.08 153.528C161.531 154.211 163.366 154.851 165.584 155.448C167.888 155.96 170.235 156.643 172.624 157.496C175.099 158.349 177.446 159.544 179.664 161.08C181.968 162.531 183.803 164.493 185.168 166.968C186.619 169.443 187.344 172.643 187.344 176.568C187.344 182.797 184.955 187.747 180.176 191.416C175.398 195 168.998 196.792 160.976 196.792ZM189.61 195V132.408H212.01V195H189.61ZM200.746 125.112C197.418 125.112 194.645 124.003 192.426 121.784C190.208 119.48 189.098 116.621 189.098 113.208C189.098 109.88 190.208 107.064 192.426 104.76C194.645 102.456 197.418 101.304 200.746 101.304C204.245 101.304 207.061 102.456 209.194 104.76C211.413 107.064 212.522 109.88 212.522 113.208C212.522 116.621 211.413 119.48 209.194 121.784C207.061 124.003 204.245 125.112 200.746 125.112ZM243.932 223.416C237.02 223.416 230.876 222.221 225.5 219.832C220.21 217.528 216.071 214.243 213.084 209.976L226.524 196.664C228.658 198.968 231.004 200.76 233.564 202.04C236.124 203.405 239.239 204.088 242.908 204.088C247.346 204.088 250.844 202.979 253.404 200.76C256.05 198.627 257.372 195.512 257.372 191.416V175.16L260.956 161.592L257.756 148.152V132.408H279.644V190.648C279.644 197.304 278.066 203.064 274.908 207.928C271.836 212.877 267.612 216.675 262.236 219.32C256.86 222.051 250.759 223.416 243.932 223.416ZM242.908 192.696C237.106 192.696 231.943 191.373 227.42 188.728C222.983 185.997 219.484 182.285 216.924 177.592C214.364 172.899 213.084 167.651 213.084 161.848C213.084 156.045 214.364 150.84 216.924 146.232C219.484 141.624 222.983 137.955 227.42 135.224C231.943 132.493 237.106 131.128 242.908 131.128C246.834 131.128 250.418 131.853 253.66 133.304C256.988 134.669 259.676 136.632 261.724 139.192C263.772 141.667 265.052 144.568 265.564 147.896V175.928C265.052 179.256 263.73 182.2 261.596 184.76C259.548 187.235 256.903 189.197 253.66 190.648C250.418 192.013 246.834 192.696 242.908 192.696ZM247.004 173.368C249.394 173.368 251.442 172.856 253.148 171.832C254.94 170.723 256.306 169.315 257.244 167.608C258.183 165.816 258.652 163.896 258.652 161.848C258.652 159.715 258.183 157.795 257.244 156.088C256.306 154.381 254.983 153.016 253.276 151.992C251.57 150.883 249.522 150.328 247.132 150.328C244.828 150.328 242.78 150.883 240.988 151.992C239.282 153.016 237.959 154.424 237.02 156.216C236.082 157.923 235.612 159.8 235.612 161.848C235.612 163.811 236.082 165.688 237.02 167.48C237.959 169.187 239.282 170.595 240.988 171.704C242.695 172.813 244.7 173.368 247.004 173.368ZM325.454 195V159.672C325.454 156.771 324.601 154.509 322.894 152.888C321.188 151.181 319.012 150.328 316.366 150.328C314.574 150.328 312.953 150.712 311.502 151.48C310.137 152.248 309.07 153.315 308.302 154.68C307.534 156.045 307.15 157.709 307.15 159.672L298.446 155.576C298.446 150.541 299.556 146.232 301.774 142.648C303.993 138.979 307.022 136.163 310.862 134.2C314.788 132.152 319.225 131.128 324.174 131.128C328.697 131.128 332.708 132.195 336.206 134.328C339.79 136.376 342.606 139.149 344.654 142.648C346.702 146.147 347.726 150.115 347.726 154.552V195H325.454ZM284.878 195V132.408H307.15V195H284.878ZM364.879 196.408C361.125 196.408 358.053 195.171 355.663 192.696C353.274 190.221 352.079 187.149 352.079 183.48C352.079 179.811 353.274 176.739 355.663 174.264C358.053 171.789 361.125 170.552 364.879 170.552C368.549 170.552 371.578 171.789 373.967 174.264C376.357 176.739 377.551 179.811 377.551 183.48C377.551 187.149 376.357 190.221 373.967 192.696C371.578 195.171 368.549 196.408 364.879 196.408Z" fill="white"/>
<path d="M45.1042 94H37.1042V102H45.1042V94ZM42.5442 51.888L36.8874 57.5449L36.9599 57.6174L37.0342 57.688L42.5442 51.888ZM31.1522 50.48L27.4091 43.4097L27.319 43.4574L27.2302 43.5074L31.1522 50.48ZM26.8002 58.672L23.3939 65.9105L34.8002 71.2783V58.672H26.8002ZM18.0962 54.576H10.0962V59.6528L14.6899 61.8145L18.0962 54.576ZM21.4242 41.648L28.2264 45.8588L28.2484 45.8232L28.2701 45.7874L21.4242 41.648ZM30.5122 33.2L34.1531 40.3235L34.183 40.3082L34.2128 40.2927L30.5122 33.2ZM55.8562 33.328L51.6914 40.1584L51.7884 40.2175L51.8871 40.2739L55.8562 33.328ZM64.3042 41.648L57.4001 45.6894L57.4001 45.6894L64.3042 41.648ZM67.3763 94V102H75.3763V94H67.3763ZM4.52824 94H-3.47176V102H4.52824V94ZM4.52824 31.408V23.408H-3.47176V31.408H4.52824ZM26.8002 31.408H34.8002V23.408H26.8002V31.408ZM26.8002 94V102H34.8002V94H26.8002ZM53.1042 94V58.672H37.1042V94H53.1042ZM53.1042 58.672C53.1042 54.1232 51.7071 49.5582 48.0542 46.088L37.0342 57.688C37.0249 57.6791 37.0047 57.657 36.9853 57.6277C36.9664 57.599 36.9672 57.5919 36.9794 57.6245C37.0048 57.6916 37.1042 57.9979 37.1042 58.672H53.1042ZM48.2011 46.2311C44.8428 42.8729 40.5593 41.328 36.0162 41.328V57.328C36.4702 57.328 36.6685 57.3989 36.7115 57.4158C36.7402 57.427 36.787 57.4445 36.8874 57.5449L48.2011 46.2311ZM36.0162 41.328C33.0417 41.328 30.1165 41.9764 27.4091 43.4097L34.8953 57.5503C35.0893 57.4476 35.4068 57.328 36.0162 57.328V41.328ZM27.2302 43.5074C24.5878 44.9937 22.466 47.1156 20.9796 49.7579L34.9248 57.6021C34.9467 57.5633 34.9626 57.5408 34.9708 57.5299C34.9788 57.5192 34.9834 57.5146 34.9851 57.5129C34.9868 57.5111 34.9915 57.5066 35.0021 57.4985C35.013 57.4903 35.0355 57.4744 35.0743 57.4526L27.2302 43.5074ZM20.9796 49.7579C19.3881 52.5873 18.8002 55.6777 18.8002 58.672H34.8002C34.8002 57.741 34.9804 57.5033 34.9248 57.6021L20.9796 49.7579ZM30.2066 51.4334L21.5026 47.3374L14.6899 61.8145L23.3939 65.9105L30.2066 51.4334ZM26.0962 54.576C26.0962 50.7372 26.9313 47.9509 28.2264 45.8588L14.6221 37.4372C11.4798 42.5131 10.0962 48.3454 10.0962 54.576H26.0962ZM28.2701 45.7874C29.7141 43.3992 31.6302 41.613 34.1531 40.3235L26.8714 26.0765C21.7143 28.7123 17.5717 32.5582 14.5784 37.5086L28.2701 45.7874ZM34.2128 40.2927C36.8665 38.9081 40.0095 38.128 43.8242 38.128V22.128C37.7404 22.128 32.0086 23.3959 26.8117 26.1073L34.2128 40.2927ZM43.8242 38.128C47.0347 38.128 49.575 38.8679 51.6914 40.1584L60.0211 26.4976C55.1402 23.5215 49.6591 22.128 43.8242 22.128V38.128ZM51.8871 40.2739C54.2787 41.6406 56.0728 43.422 57.4001 45.6894L71.2084 37.6066C68.4397 32.8767 64.6018 29.1114 59.8254 26.3821L51.8871 40.2739ZM57.4001 45.6894C58.6637 47.848 59.3763 50.3969 59.3763 53.552H75.3763C75.3763 47.8324 74.0408 42.4453 71.2084 37.6066L57.4001 45.6894ZM59.3763 53.552V94H75.3763V53.552H59.3763ZM67.3763 86H45.1042V102H67.3763V86ZM12.5282 94V31.408H-3.47176V94H12.5282ZM4.52824 39.408H26.8002V23.408H4.52824V39.408ZM18.8002 31.408V94H34.8002V31.408H18.8002ZM26.8002 86H4.52824V102H26.8002V86ZM84.2732 91.184L80.3784 98.1718L80.4461 98.2096L80.5145 98.246L84.2732 91.184ZM71.8572 79.408L65.0281 83.5749L65.044 83.601L65.0601 83.6269L71.8572 79.408ZM71.7292 45.872L64.9321 41.6531L64.922 41.6695L64.9119 41.6859L71.7292 45.872ZM84.2732 34.224L88.032 41.286L88.0761 41.2625L88.1199 41.2385L84.2732 34.224ZM119.985 34.224L116.09 41.2118L116.158 41.2496L116.226 41.286L119.985 34.224ZM132.529 45.872L125.732 50.0909L125.749 50.1175L125.765 50.1439L132.529 45.872ZM132.529 79.408L125.7 75.2411L125.69 75.2579L125.68 75.2747L132.529 79.408ZM120.113 91.184L123.92 98.2203L123.94 98.2095L123.96 98.1985L120.113 91.184ZM108.593 74.032L112.562 80.9779L112.613 80.949L112.663 80.9194L108.593 74.032ZM112.945 69.424L120.038 73.1245L120.038 73.1245L112.945 69.424ZM112.817 55.984L105.725 59.6845L105.822 59.8719L105.93 60.0538L112.817 55.984ZM108.593 51.504L104.382 58.3061L104.502 58.3802L104.624 58.4499L108.593 51.504ZM91.4412 56.112L98.4644 59.9428L98.4998 59.878L98.5339 59.8125L91.4412 56.112ZM91.4412 69.424L98.5339 65.7235L98.5339 65.7235L91.4412 69.424ZM95.7932 74.032L91.7234 80.9194L91.8418 80.9893L91.9624 81.0552L95.7932 74.032ZM102.321 87.408C96.7249 87.408 92.0275 86.2486 88.032 84.122L80.5145 98.246C87.1003 101.751 94.4349 103.408 102.321 103.408V87.408ZM88.1681 84.1962C84.1211 81.9405 80.9928 78.9565 78.6544 75.1891L65.0601 83.6269C68.8657 89.7581 74.0147 94.6249 80.3784 98.1718L88.1681 84.1962ZM78.6864 75.2411C76.4238 71.5331 75.2492 67.3574 75.2492 62.512H59.2492C59.2492 70.1253 61.1467 77.2136 65.0281 83.5749L78.6864 75.2411ZM75.2492 62.512C75.2492 57.6207 76.4033 53.5487 78.5466 50.0581L64.9119 41.6859C61.0819 47.9233 59.2492 54.9446 59.2492 62.512H75.2492ZM78.5264 50.0909C80.8319 46.3764 83.9495 43.4589 88.032 41.286L80.5145 27.162C74.0156 30.6211 68.7706 35.4689 64.9321 41.6531L78.5264 50.0909ZM88.1199 41.2385C92.1133 39.0486 96.7403 37.872 102.193 37.872V21.872C94.3342 21.872 87.0145 23.5968 80.4266 27.2095L88.1199 41.2385ZM102.193 37.872C107.648 37.872 112.21 39.0491 116.09 41.2118L123.88 27.2362C117.35 23.5962 110.05 21.872 102.193 21.872V37.872ZM116.226 41.286C120.309 43.4589 123.427 46.3764 125.732 50.0909L139.326 41.6531C135.488 35.4689 130.243 30.6211 123.744 27.162L116.226 41.286ZM125.765 50.1439C127.963 53.6235 129.137 57.6646 129.137 62.512H145.137C145.137 54.9008 143.24 47.8485 139.293 41.6001L125.765 50.1439ZM129.137 62.512C129.137 67.3574 127.963 71.5331 125.7 75.2411L139.358 83.5749C143.24 77.2136 145.137 70.1253 145.137 62.512H129.137ZM125.68 75.2747C123.455 78.9615 120.376 81.9158 116.267 84.1695L123.96 98.1985C130.432 94.6495 135.63 89.7532 139.379 83.5413L125.68 75.2747ZM116.307 84.1477C112.41 86.2557 107.816 87.408 102.321 87.408V103.408C110.138 103.408 117.406 101.744 123.92 98.2203L116.307 84.1477ZM102.193 83.568C105.783 83.568 109.342 82.8183 112.562 80.9779L104.624 67.0861C104.261 67.2937 103.553 67.568 102.193 67.568V83.568ZM112.663 80.9194C115.846 79.0385 118.334 76.3895 120.038 73.1245L105.853 65.7235C105.508 66.3839 105.095 66.8068 104.523 67.1446L112.663 80.9194ZM120.038 73.1245C121.745 69.8526 122.481 66.2862 122.481 62.64H106.481C106.481 64.1138 106.193 65.0701 105.853 65.7235L120.038 73.1245ZM122.481 62.64C122.481 58.8998 121.66 55.224 119.705 51.9142L105.93 60.0538C106.193 60.4986 106.481 61.2602 106.481 62.64H122.481ZM119.91 52.2835C118.231 49.0652 115.782 46.398 112.562 44.5581L104.624 58.4499C104.988 58.658 105.356 58.9775 105.725 59.6845L119.91 52.2835ZM112.804 44.7019C109.541 42.6818 105.893 41.84 102.193 41.84V57.84C103.443 57.84 104.062 58.1075 104.382 58.3061L112.804 44.7019ZM102.193 41.84C98.5134 41.84 94.9495 42.7103 91.7234 44.6166L99.8631 58.3914C100.392 58.0791 101.094 57.84 102.193 57.84V41.84ZM91.7234 44.6166C88.5404 46.4975 86.052 49.1465 84.3486 52.4115L98.5339 59.8125C98.8785 59.1521 99.2915 58.7292 99.8631 58.3914L91.7234 44.6166ZM84.4181 52.2812C82.638 55.5447 81.9052 59.1325 81.9052 62.768H97.9052C97.9052 61.2835 98.1965 60.4339 98.4644 59.9428L84.4181 52.2812ZM81.9052 62.768C81.9052 66.3772 82.6611 69.8903 84.3486 73.1245L98.5339 65.7235C98.1734 65.0324 97.9052 64.1081 97.9052 62.768H81.9052ZM84.3486 73.1245C86.052 76.3895 88.5404 79.0385 91.7234 80.9194L99.8631 67.1446C99.2915 66.8068 98.8785 66.3839 98.5339 65.7235L84.3486 73.1245ZM91.9624 81.0552C95.1476 82.7925 98.6252 83.568 102.193 83.568V67.568C100.983 67.568 100.194 67.3195 99.6241 67.0088L91.9624 81.0552ZM149.173 91.056L153.345 84.2297L153.345 84.2297L149.173 91.056ZM138.293 79.536L131.188 83.2114L131.226 83.2852L131.265 83.3582L138.293 79.536ZM138.293 45.872L131.238 42.101L131.212 42.1486L131.188 42.1966L138.293 45.872ZM149.045 34.352L153.18 41.2005L153.199 41.1894L153.217 41.1783L149.045 34.352ZM176.181 32.304L173.052 39.6666L173.131 39.7001L173.21 39.7318L176.181 32.304ZM184.757 38.192L190.704 32.8403L190.704 32.8403L184.757 38.192ZM188.853 46.896H196.853V46.3719L196.785 45.8524L188.853 46.896ZM188.853 77.488L196.785 78.5316L196.853 78.0121V77.488H188.853ZM184.757 86.448L190.872 91.607L190.872 91.607L184.757 86.448ZM176.181 92.976L179.464 100.271L179.539 100.238L179.614 100.202L176.181 92.976ZM175.541 73.904L179.51 80.8499L179.632 80.7802L179.752 80.7061L175.541 73.904ZM179.765 69.424L172.801 65.4875L172.771 65.5401L172.742 65.5932L179.765 69.424ZM179.893 56.112L172.87 59.9428L172.87 59.9428L179.893 56.112ZM175.541 51.632L171.33 58.4341L171.4 58.4775L171.471 58.5194L175.541 51.632ZM162.869 51.632L158.799 44.7446L158.728 44.7865L158.658 44.8299L162.869 51.632ZM158.517 56.24L151.553 52.3035L151.523 52.3561L151.494 52.4092L158.517 56.24ZM158.517 69.296L151.425 72.9965L151.459 73.062L151.494 73.1268L158.517 69.296ZM202.421 94V102H210.421V94H202.421ZM180.533 94H172.533V102H180.533V94ZM180.533 77.232L172.701 75.6004L172.533 76.4075V77.232H180.533ZM183.733 61.872L191.565 63.5036L191.929 61.759L191.517 60.025L183.733 61.872ZM180.149 46.768H172.149V47.7042L172.365 48.615L180.149 46.768ZM180.149 0.687996V-7.312H172.149V0.687996H180.149ZM202.421 0.687996H210.421V-7.312H202.421V0.687996ZM165.173 87.28C160.402 87.28 156.548 86.1874 153.345 84.2297L145.002 97.8823C151.014 101.557 157.827 103.28 165.173 103.28V87.28ZM153.345 84.2297C149.968 82.1659 147.313 79.3756 145.321 75.7138L131.265 83.3582C134.565 89.4244 139.163 94.3141 145.002 97.8823L153.345 84.2297ZM145.399 75.8606C143.493 72.1757 142.453 67.8712 142.453 62.768H126.453C126.453 70.1235 127.973 76.9976 131.188 83.2114L145.399 75.8606ZM142.453 62.768C142.453 57.5603 143.501 53.2171 145.399 49.5474L131.188 42.1966C127.966 48.4255 126.453 55.3464 126.453 62.768H142.453ZM145.349 49.643C147.359 45.8815 149.968 43.1401 153.18 41.2005L144.91 27.5035C139.077 31.0252 134.518 35.9639 131.238 42.101L145.349 49.643ZM153.217 41.1783C156.403 39.2312 160.294 38.128 165.173 38.128V22.128C157.764 22.128 150.904 23.8408 144.874 27.5257L153.217 41.1783ZM165.173 38.128C168.087 38.128 170.685 38.6608 173.052 39.6666L179.31 24.9413C174.85 23.0459 170.11 22.128 165.173 22.128V38.128ZM173.21 39.7318C175.564 40.6735 177.381 41.9552 178.811 43.5437L190.704 32.8403C187.525 29.3088 183.625 26.6652 179.152 24.8762L173.21 39.7318ZM178.811 43.5437C180.094 44.9689 180.717 46.3883 180.922 47.9396L196.785 45.8524C196.136 40.9183 194.029 36.5351 190.704 32.8403L178.811 43.5437ZM180.853 46.896V77.488H196.853V46.896H180.853ZM180.922 76.4444C180.713 78.0302 180.055 79.6157 178.643 81.289L190.872 91.607C194.068 87.8189 196.14 83.4311 196.785 78.5316L180.922 76.4444ZM178.643 81.289C177.117 83.0972 175.192 84.5895 172.749 85.7498L179.614 100.202C183.998 98.1199 187.789 95.2601 190.872 91.607L178.643 81.289ZM172.898 85.6806C170.567 86.7296 168.023 87.28 165.173 87.28V103.28C170.174 103.28 174.969 102.294 179.464 100.271L172.898 85.6806ZM169.141 83.44C172.731 83.44 176.29 82.6903 179.51 80.8499L171.572 66.9581C171.209 67.1657 170.501 67.44 169.141 67.44V83.44ZM179.752 80.7061C182.741 78.8557 185.111 76.3309 186.788 73.2548L172.742 65.5932C172.372 66.2718 171.925 66.7336 171.33 67.1019L179.752 80.7061ZM186.73 73.3605C188.606 70.0417 189.429 66.3896 189.429 62.64H173.429C173.429 64.0104 173.144 64.881 172.801 65.4875L186.73 73.3605ZM189.429 62.64C189.429 59.0388 188.676 55.5067 186.916 52.2812L172.87 59.9428C173.159 60.472 173.429 61.2919 173.429 62.64H189.429ZM186.916 52.2812C185.187 49.1113 182.705 46.5726 179.611 44.7446L171.471 58.5194C172.132 58.91 172.551 59.358 172.87 59.9428L186.916 52.2812ZM179.752 44.8299C176.532 42.8367 172.942 41.968 169.269 41.968V57.968C170.375 57.968 170.966 58.2086 171.33 58.4341L179.752 44.8299ZM169.269 41.968C165.589 41.968 162.026 42.8383 158.799 44.7446L166.939 58.5194C167.468 58.2071 168.17 57.968 169.269 57.968V41.968ZM158.658 44.8299C155.643 46.6968 153.277 49.2534 151.553 52.3035L165.482 60.1765C165.976 59.3013 166.512 58.7859 167.08 58.4341L158.658 44.8299ZM151.494 52.4092C149.757 55.5944 148.981 59.0719 148.981 62.64H164.981C164.981 61.4294 165.23 60.6403 165.54 60.0708L151.494 52.4092ZM148.981 62.64C148.981 66.2492 149.737 69.7623 151.425 72.9965L165.61 65.5955C165.249 64.9044 164.981 63.9801 164.981 62.64H148.981ZM151.494 73.1268C153.223 76.2967 155.706 78.8354 158.799 80.6634L166.939 66.8886C166.278 66.498 165.859 66.05 165.54 65.4652L151.494 73.1268ZM158.799 80.6634C161.98 82.5428 165.49 83.44 169.141 83.44V67.44C168.185 67.44 167.513 67.2278 166.939 66.8886L158.799 80.6634ZM202.421 86H180.533V102H202.421V86ZM188.533 94V77.232H172.533V94H188.533ZM188.365 78.8636L191.565 63.5036L175.901 60.2404L172.701 75.6004L188.365 78.8636ZM191.517 60.025L187.933 44.921L172.365 48.615L175.949 63.719L191.517 60.025ZM188.149 46.768V0.687996H172.149V46.768H188.149ZM180.149 8.688H202.421V-7.312H180.149V8.688ZM194.421 0.687996V94H210.421V0.687996H194.421ZM220.794 91.312L217.082 98.3987L217.127 98.4219L217.171 98.4446L220.794 91.312ZM208.122 79.664L214.919 75.4451L208.122 79.664ZM207.994 45.872L214.812 50.0581L214.828 50.0318L214.844 50.0053L207.994 45.872ZM220.154 34.224L224.01 41.2337L224.029 41.2228L224.049 41.2118L220.154 34.224ZM254.458 33.968L250.542 40.9439L250.614 40.9844L250.687 41.0235L254.458 33.968ZM265.978 45.104L259.032 49.0731L259.075 49.147L259.118 49.22L265.978 45.104ZM269.946 65.2L262.008 64.2077L261.979 64.4371L261.964 64.6679L269.946 65.2ZM269.178 69.68L269.215 77.6799L275.432 77.6511L276.939 71.6203L269.178 69.68ZM214.01 69.936H206.01V77.9732L214.047 77.9359L214.01 69.936ZM214.01 55.6L213.944 47.6003L206.01 47.666V55.6H214.01ZM260.346 55.216L264.602 61.9902L288.492 46.9825L260.28 47.2163L260.346 55.216ZM250.362 61.488L242.365 61.6831L242.708 75.7443L254.618 68.2622L250.362 61.488ZM248.826 52.912L241.418 55.9304L241.438 55.9799L241.459 56.0291L248.826 52.912ZM244.73 47.664L240.293 54.3204L240.293 54.3204L244.73 47.664ZM230.65 47.92L226.213 41.2636L226.213 41.2636L230.65 47.92ZM225.914 53.68L218.614 50.4075L218.614 50.4076L225.914 53.68ZM226.042 71.856L218.793 75.2391L218.815 75.2867L218.838 75.334L226.042 71.856ZM247.418 77.872L244.267 70.5188L244.218 70.5398L244.169 70.5615L247.418 77.872ZM253.818 73.136L259.475 67.4791L253.446 61.4497L247.813 67.851L253.818 73.136ZM265.466 84.784L271.478 90.0624L276.425 84.4286L271.123 79.1271L265.466 84.784ZM254.202 92.72L251.207 85.3021L251.181 85.3122L251.156 85.3226L254.202 92.72ZM239.354 87.408C233.414 87.408 228.503 86.2548 224.417 84.1794L217.171 98.4446C223.837 101.831 231.3 103.408 239.354 103.408V87.408ZM224.506 84.2253C220.341 82.0435 217.205 79.1281 214.919 75.4451L201.325 83.8829C205.183 90.0985 210.495 94.9485 217.082 98.3987L224.506 84.2253ZM214.919 75.4451C212.71 71.8859 211.514 67.7013 211.514 62.64H195.514C195.514 70.3787 197.39 77.5435 201.325 83.8829L214.919 75.4451ZM211.514 62.64C211.514 57.6411 212.679 53.5315 214.812 50.0581L201.177 41.6859C197.336 47.9405 195.514 55.0096 195.514 62.64H211.514ZM214.844 50.0053C217.095 46.2752 220.109 43.3789 224.01 41.2337L216.299 27.2143C209.959 30.7011 204.867 35.5701 201.145 41.7387L214.844 50.0053ZM224.049 41.2118C227.96 39.0319 232.445 37.872 237.69 37.872V21.872C229.965 21.872 222.759 23.6134 216.259 27.2362L224.049 41.2118ZM237.69 37.872C242.817 37.872 247.025 38.9694 250.542 40.9439L258.375 26.9921C252.164 23.5053 245.192 21.872 237.69 21.872V37.872ZM250.687 41.0235C254.337 42.9739 257.064 45.6283 259.032 49.0731L272.924 41.1349C269.431 35.0224 264.479 30.2527 258.229 26.9125L250.687 41.0235ZM259.118 49.22C261.11 52.5399 262.202 56.4637 262.202 61.232H278.202C278.202 53.8829 276.478 47.0547 272.838 40.988L259.118 49.22ZM262.202 61.232C262.202 62.1567 262.141 63.1472 262.008 64.2077L277.884 66.1923C278.093 64.5221 278.202 62.8673 278.202 61.232H262.202ZM261.964 64.6679C261.92 65.3349 261.768 66.338 261.417 67.7397L276.939 71.6203C277.442 69.6086 277.802 67.6251 277.929 65.7321L261.964 64.6679ZM269.141 61.6801L213.973 61.9361L214.047 77.9359L269.215 77.6799L269.141 61.6801ZM222.01 69.936V55.6H206.01V69.936H222.01ZM214.077 63.5997L260.413 63.2157L260.28 47.2163L213.944 47.6003L214.077 63.5997ZM256.091 48.4418L246.107 54.7138L254.618 68.2622L264.602 61.9902L256.091 48.4418ZM258.36 61.2929C258.26 57.2052 257.659 53.2578 256.194 49.7949L241.459 56.0291C241.871 57.0036 242.294 58.7734 242.365 61.6831L258.36 61.2929ZM256.235 49.8936C254.789 46.3436 252.49 43.2222 249.168 41.0076L240.293 54.3204C240.555 54.4951 240.986 54.8724 241.418 55.9304L256.235 49.8936ZM249.168 41.0076C245.75 38.7289 241.834 37.872 237.946 37.872V53.872C239.519 53.872 240.127 54.2097 240.293 54.3204L249.168 41.0076ZM237.946 37.872C233.785 37.872 229.757 38.9006 226.213 41.2636L235.088 54.5764C235.639 54.2087 236.475 53.872 237.946 53.872V37.872ZM226.213 41.2636C222.785 43.5487 220.275 46.7027 218.614 50.4075L233.214 56.9524C233.772 55.708 234.42 55.022 235.088 54.5764L226.213 41.2636ZM218.614 50.4076C216.93 54.164 216.25 58.3275 216.25 62.64H232.25C232.25 59.9552 232.68 58.1453 233.214 56.9524L218.614 50.4076ZM216.25 62.64C216.25 67.0891 216.99 71.3751 218.793 75.2391L233.292 68.4729C232.706 67.2169 232.25 65.3589 232.25 62.64H216.25ZM218.838 75.334C220.677 79.1442 223.452 82.2756 227.164 84.4175L235.16 70.5585C234.435 70.1404 233.797 69.5171 233.247 68.378L218.838 75.334ZM227.164 84.4175C230.882 86.562 235.075 87.408 239.354 87.408V71.408C237.148 71.408 235.88 70.974 235.16 70.5585L227.164 84.4175ZM239.354 87.408C243.307 87.408 247.143 86.7491 250.667 85.1825L244.169 70.5615C243.086 71.0429 241.546 71.408 239.354 71.408V87.408ZM250.57 85.2252C254.151 83.6902 257.235 81.363 259.824 78.421L247.813 67.851C246.647 69.1757 245.464 70.0058 244.267 70.5188L250.57 85.2252ZM248.161 78.7929L259.809 90.4409L271.123 79.1271L259.475 67.4791L248.161 78.7929ZM259.455 79.5056C257.231 82.0387 254.519 83.9645 251.207 85.3021L257.198 100.138C262.76 97.8915 267.558 94.5266 271.478 90.0624L259.455 79.5056ZM251.156 85.3226C247.927 86.6524 244.039 87.408 239.354 87.408V103.408C245.762 103.408 251.774 102.372 257.248 100.117L251.156 85.3226ZM281.813 91.056L285.985 84.2297L285.985 84.2297L281.813 91.056ZM270.933 79.536L263.828 83.2114L263.866 83.2852L263.905 83.3582L270.933 79.536ZM270.933 45.872L263.878 42.101L263.852 42.1486L263.828 42.1966L270.933 45.872ZM281.685 34.352L285.82 41.2005L285.839 41.1894L285.857 41.1783L281.685 34.352ZM308.821 32.304L305.692 39.6666L305.771 39.7001L305.85 39.7318L308.821 32.304ZM317.397 38.192L323.344 32.8403L323.344 32.8403L317.397 38.192ZM321.493 46.896H329.493V46.3719L329.425 45.8524L321.493 46.896ZM321.493 77.488L329.425 78.5316L329.493 78.0121V77.488H321.493ZM317.397 86.448L323.512 91.607L323.512 91.607L317.397 86.448ZM308.821 92.976L312.104 100.271L312.179 100.238L312.254 100.202L308.821 92.976ZM308.181 73.904L312.15 80.8499L312.272 80.7802L312.392 80.7061L308.181 73.904ZM312.405 69.424L305.441 65.4875L305.411 65.5401L305.382 65.5932L312.405 69.424ZM312.533 56.112L305.51 59.9428L305.51 59.9428L312.533 56.112ZM308.181 51.632L303.97 58.4341L304.04 58.4775L304.111 58.5194L308.181 51.632ZM295.509 51.632L291.439 44.7446L291.368 44.7865L291.298 44.8299L295.509 51.632ZM291.157 56.24L284.193 52.3035L284.163 52.3561L284.134 52.4092L291.157 56.24ZM291.157 69.296L284.065 72.9965L284.099 73.062L284.134 73.1268L291.157 69.296ZM335.061 94V102H343.061V94H335.061ZM313.173 94H305.173V102H313.173V94ZM313.173 77.232L305.341 75.6004L305.173 76.4075V77.232H313.173ZM316.373 61.872L324.205 63.5036L324.569 61.759L324.157 60.025L316.373 61.872ZM312.789 46.768H304.789V47.7042L305.005 48.615L312.789 46.768ZM312.789 0.687996V-7.312H304.789V0.687996H312.789ZM335.061 0.687996H343.061V-7.312H335.061V0.687996ZM297.813 87.28C293.042 87.28 289.188 86.1874 285.985 84.2297L277.642 97.8823C283.654 101.557 290.467 103.28 297.813 103.28V87.28ZM285.985 84.2297C282.608 82.1659 279.953 79.3756 277.961 75.7138L263.905 83.3582C267.205 89.4244 271.803 94.3141 277.642 97.8823L285.985 84.2297ZM278.039 75.8606C276.133 72.1757 275.093 67.8712 275.093 62.768H259.093C259.093 70.1235 260.613 76.9976 263.828 83.2114L278.039 75.8606ZM275.093 62.768C275.093 57.5603 276.141 53.2171 278.039 49.5474L263.828 42.1966C260.606 48.4255 259.093 55.3464 259.093 62.768H275.093ZM277.989 49.643C279.999 45.8815 282.608 43.1401 285.82 41.2005L277.55 27.5035C271.717 31.0252 267.158 35.9639 263.878 42.101L277.989 49.643ZM285.857 41.1783C289.043 39.2312 292.934 38.128 297.813 38.128V22.128C290.404 22.128 283.544 23.8408 277.514 27.5257L285.857 41.1783ZM297.813 38.128C300.727 38.128 303.325 38.6608 305.692 39.6666L311.95 24.9413C307.49 23.0459 302.75 22.128 297.813 22.128V38.128ZM305.85 39.7318C308.204 40.6735 310.021 41.9552 311.451 43.5437L323.344 32.8403C320.165 29.3088 316.265 26.6652 311.792 24.8762L305.85 39.7318ZM311.451 43.5437C312.734 44.9689 313.357 46.3883 313.562 47.9396L329.425 45.8524C328.776 40.9183 326.669 36.5351 323.344 32.8403L311.451 43.5437ZM313.493 46.896V77.488H329.493V46.896H313.493ZM313.562 76.4444C313.353 78.0302 312.695 79.6157 311.283 81.289L323.512 91.607C326.708 87.8189 328.78 83.4311 329.425 78.5316L313.562 76.4444ZM311.283 81.289C309.757 83.0972 307.832 84.5895 305.389 85.7498L312.254 100.202C316.638 98.1199 320.429 95.2601 323.512 91.607L311.283 81.289ZM305.538 85.6806C303.207 86.7296 300.663 87.28 297.813 87.28V103.28C302.814 103.28 307.609 102.294 312.104 100.271L305.538 85.6806ZM301.781 83.44C305.371 83.44 308.93 82.6903 312.15 80.8499L304.212 66.9581C303.849 67.1657 303.141 67.44 301.781 67.44V83.44ZM312.392 80.7061C315.381 78.8557 317.751 76.3309 319.428 73.2548L305.382 65.5932C305.012 66.2718 304.565 66.7336 303.97 67.1019L312.392 80.7061ZM319.37 73.3605C321.246 70.0417 322.069 66.3896 322.069 62.64H306.069C306.069 64.0104 305.784 64.881 305.441 65.4875L319.37 73.3605ZM322.069 62.64C322.069 59.0388 321.316 55.5067 319.556 52.2812L305.51 59.9428C305.799 60.472 306.069 61.2919 306.069 62.64H322.069ZM319.556 52.2812C317.827 49.1113 315.345 46.5726 312.251 44.7446L304.111 58.5194C304.772 58.91 305.191 59.358 305.51 59.9428L319.556 52.2812ZM312.392 44.8299C309.172 42.8367 305.582 41.968 301.909 41.968V57.968C303.015 57.968 303.606 58.2086 303.97 58.4341L312.392 44.8299ZM301.909 41.968C298.229 41.968 294.666 42.8383 291.439 44.7446L299.579 58.5194C300.108 58.2071 300.81 57.968 301.909 57.968V41.968ZM291.298 44.8299C288.283 46.6968 285.917 49.2534 284.193 52.3035L298.122 60.1765C298.616 59.3013 299.152 58.7859 299.72 58.4341L291.298 44.8299ZM284.134 52.4092C282.397 55.5944 281.621 59.0719 281.621 62.64H297.621C297.621 61.4294 297.87 60.6403 298.18 60.0708L284.134 52.4092ZM281.621 62.64C281.621 66.2492 282.377 69.7623 284.065 72.9965L298.25 65.5955C297.889 64.9044 297.621 63.9801 297.621 62.64H281.621ZM284.134 73.1268C285.863 76.2967 288.346 78.8354 291.439 80.6634L299.579 66.8886C298.918 66.498 298.499 66.05 298.18 65.4652L284.134 73.1268ZM291.439 80.6634C294.62 82.5428 298.13 83.44 301.781 83.44V67.44C300.825 67.44 300.153 67.2278 299.579 66.8886L291.439 80.6634ZM335.061 86H313.173V102H335.061V86ZM321.173 94V77.232H305.173V94H321.173ZM321.005 78.8636L324.205 63.5036L308.541 60.2404L305.341 75.6004L321.005 78.8636ZM324.157 60.025L320.573 44.921L305.005 48.615L308.589 63.719L324.157 60.025ZM320.789 46.768V0.687996H304.789V46.768H320.789ZM312.789 8.688H335.061V-7.312H312.789V8.688ZM327.061 0.687996V94H343.061V0.687996H327.061ZM340.378 94H332.378V102H340.378V94ZM340.378 31.408V23.408H332.378V31.408H340.378ZM362.65 31.408H370.65V23.408H362.65V31.408ZM362.65 94V102H370.65V94H362.65ZM362.65 59.952L357.483 66.0591L370.65 77.2009V59.952H362.65ZM352.666 51.504L345.114 48.8652L343.3 54.058L347.499 57.6111L352.666 51.504ZM362.522 35.504L357.254 29.4834L357.254 29.4834L362.522 35.504ZM386.202 31.28L383.492 38.8071L383.539 38.8238L383.585 38.8399L386.202 31.28ZM391.834 34.864L398.24 39.6564L402.279 34.2572L397.642 29.362L391.834 34.864ZM378.906 52.144L372.927 57.4589L379.44 64.7856L385.312 56.9364L378.906 52.144ZM375.962 50.352L372.811 57.7052L373.117 57.8362L373.432 57.9415L375.962 50.352ZM365.082 52.272L370.882 57.782L370.949 57.7115L371.015 57.6393L365.082 52.272ZM348.378 94V31.408H332.378V94H348.378ZM340.378 39.408H362.65V23.408H340.378V39.408ZM354.65 31.408V94H370.65V31.408H354.65ZM362.65 86H340.378V102H362.65V86ZM367.818 53.8449L357.834 45.3969L347.499 57.6111L357.483 66.0591L367.818 53.8449ZM360.219 54.1427C362.402 47.8944 365.056 43.9173 367.79 41.5246L357.254 29.4834C351.797 34.2587 347.88 40.9483 345.114 48.8652L360.219 54.1427ZM367.79 41.5246C370.14 39.4688 373.469 38.128 378.522 38.128V22.128C370.434 22.128 363.097 24.3712 357.254 29.4834L367.79 41.5246ZM378.522 38.128C380.861 38.128 382.455 38.4336 383.492 38.8071L388.912 23.7529C385.683 22.5904 382.156 22.128 378.522 22.128V38.128ZM383.585 38.8399C384.655 39.2101 385.419 39.7247 386.027 40.3659L397.642 29.362C395.177 26.7606 392.187 24.8859 388.819 23.7201L383.585 38.8399ZM385.429 30.0716L372.501 47.3516L385.312 56.9364L398.24 39.6564L385.429 30.0716ZM384.886 46.8291C383.025 44.7357 380.697 43.4975 378.492 42.7625L373.432 57.9415C373.788 58.0599 373.422 58.0162 372.927 57.4589L384.886 46.8291ZM379.114 42.9988C376.759 41.9898 374.292 41.584 371.866 41.584V57.584C372.513 57.584 372.776 57.6902 372.811 57.7052L379.114 42.9988ZM371.866 41.584C367.198 41.584 362.59 43.1026 359.15 46.9047L371.015 57.6393C371.018 57.6355 371.003 57.6522 370.972 57.6735C370.941 57.6948 370.925 57.6997 370.941 57.6935C370.972 57.6813 371.234 57.584 371.866 57.584V41.584ZM359.282 46.762C355.723 50.5086 354.65 55.405 354.65 59.952H370.65C370.65 57.6723 371.199 57.4487 370.882 57.782L359.282 46.762ZM399.623 91.184L395.728 98.1718L395.796 98.2096L395.864 98.246L399.623 91.184ZM387.207 79.408L380.378 83.5749L380.394 83.601L380.41 83.6269L387.207 79.408ZM387.079 45.872L380.282 41.6531L380.272 41.6695L380.262 41.6859L387.079 45.872ZM399.623 34.224L403.382 41.286L403.426 41.2625L403.47 41.2385L399.623 34.224ZM435.335 34.224L431.44 41.2118L431.508 41.2496L431.576 41.286L435.335 34.224ZM447.879 45.872L441.082 50.0909L441.099 50.1175L441.115 50.1439L447.879 45.872ZM447.879 79.408L441.05 75.2411L441.04 75.2579L441.03 75.2747L447.879 79.408ZM435.463 91.184L439.27 98.2203L439.29 98.2095L439.31 98.1985L435.463 91.184ZM423.943 74.032L427.912 80.9779L427.963 80.949L428.013 80.9194L423.943 74.032ZM428.295 69.424L435.388 73.1245L435.388 73.1245L428.295 69.424ZM428.167 55.984L421.075 59.6845L421.172 59.8719L421.28 60.0538L428.167 55.984ZM423.943 51.504L419.732 58.3061L419.852 58.3802L419.974 58.4499L423.943 51.504ZM406.791 56.112L413.814 59.9428L413.85 59.878L413.884 59.8125L406.791 56.112ZM406.791 69.424L413.884 65.7235L413.884 65.7235L406.791 69.424ZM411.143 74.032L407.073 80.9194L407.192 80.9893L407.312 81.0552L411.143 74.032ZM417.671 87.408C412.075 87.408 407.378 86.2486 403.382 84.122L395.864 98.246C402.45 101.751 409.785 103.408 417.671 103.408V87.408ZM403.518 84.1962C399.471 81.9405 396.343 78.9565 394.004 75.1891L380.41 83.6269C384.216 89.7581 389.365 94.6249 395.728 98.1718L403.518 84.1962ZM394.036 75.2411C391.774 71.5331 390.599 67.3574 390.599 62.512H374.599C374.599 70.1253 376.497 77.2136 380.378 83.5749L394.036 75.2411ZM390.599 62.512C390.599 57.6207 391.753 53.5487 393.897 50.0581L380.262 41.6859C376.432 47.9233 374.599 54.9446 374.599 62.512H390.599ZM393.876 50.0909C396.182 46.3764 399.3 43.4589 403.382 41.286L395.864 27.162C389.366 30.6211 384.121 35.4689 380.282 41.6531L393.876 50.0909ZM403.47 41.2385C407.463 39.0486 412.09 37.872 417.543 37.872V21.872C409.684 21.872 402.365 23.5968 395.777 27.2095L403.47 41.2385ZM417.543 37.872C422.998 37.872 427.56 39.0491 431.44 41.2118L439.23 27.2362C432.7 23.5962 425.4 21.872 417.543 21.872V37.872ZM431.576 41.286C435.659 43.4589 438.777 46.3764 441.082 50.0909L454.676 41.6531C450.838 35.4689 445.593 30.6211 439.094 27.162L431.576 41.286ZM441.115 50.1439C443.313 53.6235 444.487 57.6646 444.487 62.512H460.487C460.487 54.9008 458.59 47.8485 454.643 41.6001L441.115 50.1439ZM444.487 62.512C444.487 67.3574 443.313 71.5331 441.05 75.2411L454.708 83.5749C458.59 77.2136 460.487 70.1253 460.487 62.512H444.487ZM441.03 75.2747C438.805 78.9615 435.726 81.9158 431.617 84.1695L439.31 98.1985C445.782 94.6495 450.98 89.7532 454.729 83.5413L441.03 75.2747ZM431.657 84.1477C427.76 86.2557 423.166 87.408 417.671 87.408V103.408C425.488 103.408 432.756 101.744 439.27 98.2203L431.657 84.1477ZM417.543 83.568C421.133 83.568 424.692 82.8183 427.912 80.9779L419.974 67.0861C419.611 67.2937 418.903 67.568 417.543 67.568V83.568ZM428.013 80.9194C431.196 79.0385 433.684 76.3895 435.388 73.1245L421.203 65.7235C420.858 66.3839 420.445 66.8068 419.873 67.1446L428.013 80.9194ZM435.388 73.1245C437.095 69.8526 437.831 66.2862 437.831 62.64H421.831C421.831 64.1138 421.543 65.0701 421.203 65.7235L435.388 73.1245ZM437.831 62.64C437.831 58.8998 437.01 55.224 435.055 51.9142L421.28 60.0538C421.543 60.4986 421.831 61.2602 421.831 62.64H437.831ZM435.26 52.2835C433.581 49.0652 431.132 46.398 427.912 44.5581L419.974 58.4499C420.338 58.658 420.706 58.9775 421.075 59.6845L435.26 52.2835ZM428.154 44.7019C424.891 42.6818 421.243 41.84 417.543 41.84V57.84C418.793 57.84 419.412 58.1075 419.732 58.3061L428.154 44.7019ZM417.543 41.84C413.863 41.84 410.3 42.7103 407.073 44.6166L415.213 58.3914C415.742 58.0791 416.444 57.84 417.543 57.84V41.84ZM407.073 44.6166C403.89 46.4975 401.402 49.1465 399.699 52.4115L413.884 59.8125C414.228 59.1521 414.641 58.7292 415.213 58.3914L407.073 44.6166ZM399.768 52.2812C397.988 55.5447 397.255 59.1325 397.255 62.768H413.255C413.255 61.2835 413.547 60.4339 413.814 59.9428L399.768 52.2812ZM397.255 62.768C397.255 66.3772 398.011 69.8903 399.699 73.1245L413.884 65.7235C413.523 65.0324 413.255 64.1081 413.255 62.768H397.255ZM399.699 73.1245C401.402 76.3895 403.89 79.0385 407.073 80.9194L415.213 67.1446C414.641 66.8068 414.228 66.3839 413.884 65.7235L399.699 73.1245ZM407.312 81.0552C410.498 82.7925 413.975 83.568 417.543 83.568V67.568C416.333 67.568 415.544 67.3195 414.974 67.0088L407.312 81.0552ZM479.755 93.104L482.884 85.7414L482.884 85.7414L479.755 93.104ZM471.307 87.216L465.262 92.4554L465.306 92.5063L465.351 92.5564L471.307 87.216ZM467.211 78.384H459.211V78.9958L459.304 79.6005L467.211 78.384ZM467.211 47.92L459.304 46.7035L459.211 47.3082V47.92H467.211ZM471.307 38.96L465.193 33.801L465.185 33.8101L465.178 33.8191L471.307 38.96ZM479.755 32.56L483.108 39.8237L483.148 39.8052L483.188 39.7862L479.755 32.56ZM506.891 34.352L502.72 41.1783L502.766 41.2066L502.813 41.2343L506.891 34.352ZM517.643 45.872L510.537 49.5474L510.562 49.5954L510.588 49.643L517.643 45.872ZM517.643 79.536L510.588 75.765L510.576 75.7875L510.564 75.81L517.643 79.536ZM506.891 91.056L502.72 84.2297L502.72 84.2297L506.891 91.056ZM453.643 120.496H445.643V128.496H453.643V120.496ZM453.643 31.408V23.408H445.643V31.408H453.643ZM475.915 31.408H483.915V23.408H475.915V31.408ZM475.915 47.152L483.684 49.0613L483.915 48.1206V47.152H475.915ZM472.203 62.256L464.434 60.3467L463.999 62.1169L464.374 63.9008L472.203 62.256ZM475.403 77.488H483.403V76.6567L483.232 75.8432L475.403 77.488ZM475.403 120.496V128.496H483.403V120.496H475.403ZM493.195 73.776L489.125 66.8886L489.125 66.8886L493.195 73.776ZM497.547 69.296L504.57 73.1268L504.606 73.062L504.64 72.9965L497.547 69.296ZM497.547 56.112L490.524 59.9428L490.524 59.9428L497.547 56.112ZM493.195 51.632L497.265 44.7446L497.265 44.7446L493.195 51.632ZM480.523 51.632L484.354 58.6552L484.475 58.5893L484.593 58.5194L480.523 51.632ZM476.171 56.112L483.194 59.9428L483.23 59.878L483.264 59.8125L476.171 56.112ZM476.171 69.296L469.079 72.9965L469.113 73.062L469.148 73.1268L476.171 69.296ZM480.395 73.776L476.184 80.5781L476.254 80.6215L476.325 80.6634L480.395 73.776ZM490.891 87.28C487.867 87.28 485.23 86.7382 482.884 85.7414L476.626 100.467C481.107 102.371 485.894 103.28 490.891 103.28V87.28ZM482.884 85.7414C480.424 84.6959 478.613 83.3806 477.264 81.8756L465.351 92.5564C468.439 96.0007 472.259 98.6108 476.626 100.467L482.884 85.7414ZM477.353 81.9766C476.115 80.5481 475.4 78.9964 475.118 77.1675L459.304 79.6005C460.047 84.4276 462.062 88.7639 465.262 92.4554L477.353 81.9766ZM475.211 78.384V47.92H459.211V78.384H475.211ZM475.118 49.1365C475.402 47.2926 476.133 45.6551 477.437 44.1009L465.178 33.8191C462.044 37.5555 460.045 41.8914 459.304 46.7035L475.118 49.1365ZM477.422 44.119C478.95 42.3072 480.815 40.8819 483.108 39.8237L476.403 25.2963C472.04 27.3101 468.272 30.1515 465.193 33.801L477.422 44.119ZM483.188 39.7862C485.463 38.7054 487.994 38.128 490.891 38.128V22.128C485.768 22.128 480.874 23.172 476.323 25.3338L483.188 39.7862ZM490.891 38.128C495.662 38.128 499.516 39.2206 502.72 41.1783L511.063 27.5257C505.05 23.8514 498.238 22.128 490.891 22.128V38.128ZM502.813 41.2343C506.078 43.169 508.637 45.8732 510.537 49.5474L524.749 42.1966C521.529 35.9722 516.921 30.9963 510.97 27.4697L502.813 41.2343ZM510.588 49.643C512.539 53.2932 513.611 57.6018 513.611 62.768H529.611C529.611 55.3048 528.038 48.3494 524.699 42.101L510.588 49.643ZM513.611 62.768C513.611 67.8291 512.547 72.0992 510.588 75.765L524.699 83.307C528.03 77.0741 529.611 70.1655 529.611 62.768H513.611ZM510.564 75.81C508.663 79.4212 506.074 82.18 502.72 84.2297L511.063 97.8823C516.925 94.3 521.503 89.3788 524.723 83.262L510.564 75.81ZM502.72 84.2297C499.516 86.1874 495.662 87.28 490.891 87.28V103.28C498.238 103.28 505.05 101.557 511.063 97.8823L502.72 84.2297ZM461.643 120.496V31.408H445.643V120.496H461.643ZM453.643 39.408H475.915V23.408H453.643V39.408ZM467.915 31.408V47.152H483.915V31.408H467.915ZM468.146 45.2427L464.434 60.3467L479.972 64.1653L483.684 49.0613L468.146 45.2427ZM464.374 63.9008L467.574 79.1328L483.232 75.8432L480.032 60.6112L464.374 63.9008ZM467.403 77.488V120.496H483.403V77.488H467.403ZM475.403 112.496H453.643V128.496H475.403V112.496ZM486.667 83.44C490.377 83.44 493.996 82.5952 497.265 80.6634L489.125 66.8886C488.64 67.1755 487.907 67.44 486.667 67.44V83.44ZM497.265 80.6634C500.359 78.8354 502.841 76.2967 504.57 73.1268L490.524 65.4652C490.205 66.05 489.786 66.498 489.125 66.8886L497.265 80.6634ZM504.64 72.9965C506.327 69.7623 507.083 66.2492 507.083 62.64H491.083C491.083 63.9801 490.815 64.9044 490.455 65.5955L504.64 72.9965ZM507.083 62.64C507.083 59.0388 506.33 55.5067 504.57 52.2812L490.524 59.9428C490.813 60.472 491.083 61.2919 491.083 62.64H507.083ZM504.57 52.2812C502.841 49.1113 500.359 46.5726 497.265 44.7446L489.125 58.5194C489.786 58.91 490.205 59.358 490.524 59.9428L504.57 52.2812ZM497.265 44.7446C494.039 42.8383 490.475 41.968 486.795 41.968V57.968C487.894 57.968 488.597 58.2071 489.125 58.5194L497.265 44.7446ZM486.795 41.968C483.144 41.968 479.634 42.8652 476.453 44.7446L484.593 58.5194C485.167 58.1802 485.839 57.968 486.795 57.968V41.968ZM476.692 44.6088C473.371 46.4203 470.809 49.0948 469.079 52.4115L483.264 59.8125C483.581 59.2039 483.92 58.8917 484.354 58.6552L476.692 44.6088ZM469.148 52.2812C467.389 55.5066 466.635 59.0388 466.635 62.64H482.635C482.635 61.2919 482.906 60.472 483.194 59.9428L469.148 52.2812ZM466.635 62.64C466.635 66.2492 467.391 69.7623 469.079 72.9965L483.264 65.5955C482.903 64.9044 482.635 63.9801 482.635 62.64H466.635ZM469.148 73.1268C470.826 76.2029 473.195 78.7277 476.184 80.5781L484.606 66.9739C484.011 66.6056 483.565 66.1438 483.194 65.4652L469.148 73.1268ZM476.325 80.6634C479.506 82.5428 483.016 83.44 486.667 83.44V67.44C485.711 67.44 485.039 67.2278 484.465 66.8886L476.325 80.6634ZM15.4082 192.056L19.5798 185.23L19.5798 185.23L15.4082 192.056ZM4.52824 180.536L-2.5775 184.211L-2.53932 184.285L-2.49963 184.358L4.52824 180.536ZM4.52824 146.872L-2.52721 143.101L-2.55268 143.149L-2.5775 143.197L4.52824 146.872ZM15.2802 135.352L19.4152 142.201L19.4336 142.189L19.4518 142.178L15.2802 135.352ZM42.4162 133.304L39.2871 140.667L39.3658 140.7L39.4451 140.732L42.4162 133.304ZM50.9922 139.192L56.9386 133.84L56.9386 133.84L50.9922 139.192ZM55.0882 147.896H63.0882V147.372L63.0199 146.852L55.0882 147.896ZM55.0882 178.488L63.0199 179.532L63.0882 179.012V178.488H55.0882ZM50.9922 187.448L57.1066 192.607L57.1066 192.607L50.9922 187.448ZM42.4162 193.976L45.6992 201.271L45.7743 201.238L45.8487 201.202L42.4162 193.976ZM41.7762 174.904L45.7454 181.85L45.8675 181.78L45.9871 181.706L41.7762 174.904ZM46.0002 170.424L39.0357 166.488L39.006 166.54L38.9771 166.593L46.0002 170.424ZM46.1282 157.112L39.1051 160.943L39.1051 160.943L46.1282 157.112ZM41.7762 152.632L37.5654 159.434L37.6355 159.477L37.7064 159.519L41.7762 152.632ZM29.1042 152.632L25.0344 145.745L24.9635 145.787L24.8934 145.83L29.1042 152.632ZM24.7522 157.24L17.7877 153.304L17.758 153.356L17.7291 153.409L24.7522 157.24ZM24.7522 170.296L17.6596 173.997L17.6937 174.062L17.7291 174.127L24.7522 170.296ZM68.6562 195V203H76.6562V195H68.6562ZM46.7682 195H38.7682V203H46.7682V195ZM46.7682 178.232L38.9364 176.6L38.7682 177.408V178.232H46.7682ZM49.9682 162.872L57.8001 164.504L58.1636 162.759L57.7521 161.025L49.9682 162.872ZM46.3842 147.768H38.3842V148.704L38.6004 149.615L46.3842 147.768ZM46.3842 101.688V93.688H38.3842V101.688H46.3842ZM68.6562 101.688H76.6562V93.688H68.6562V101.688ZM31.4082 188.28C26.6374 188.28 22.7834 187.187 19.5798 185.23L11.2366 198.882C17.2491 202.557 24.0618 204.28 31.4082 204.28V188.28ZM19.5798 185.23C16.2027 183.166 13.5476 180.376 11.5561 176.714L-2.49963 184.358C0.799555 190.424 5.39781 195.314 11.2366 198.882L19.5798 185.23ZM11.634 176.861C9.72801 173.176 8.68824 168.871 8.68824 163.768H-7.31176C-7.31176 171.123 -5.79152 177.998 -2.5775 184.211L11.634 176.861ZM8.68824 163.768C8.68824 158.56 9.73583 154.217 11.634 150.547L-2.5775 143.197C-5.79934 149.426 -7.31176 156.346 -7.31176 163.768H8.68824ZM11.5837 150.643C13.5942 146.881 16.2027 144.14 19.4152 142.201L11.1453 128.503C5.31247 132.025 0.752972 136.964 -2.52721 143.101L11.5837 150.643ZM19.4518 142.178C22.638 140.231 26.529 139.128 31.4082 139.128V123.128C23.9995 123.128 17.1385 124.841 11.1086 128.526L19.4518 142.178ZM31.4082 139.128C34.3221 139.128 36.9205 139.661 39.2871 140.667L45.5454 125.941C41.0854 124.046 36.3451 123.128 31.4082 123.128V139.128ZM39.4451 140.732C41.7993 141.673 43.6163 142.955 45.0459 144.544L56.9386 133.84C53.7602 130.309 49.8599 127.665 45.3874 125.876L39.4451 140.732ZM45.0459 144.544C46.3285 145.969 46.9525 147.388 47.1566 148.94L63.0199 146.852C62.3707 141.918 60.264 137.535 56.9386 133.84L45.0459 144.544ZM47.0882 147.896V178.488H63.0882V147.896H47.0882ZM47.1566 177.444C46.9479 179.03 46.2897 180.616 44.8779 182.289L57.1066 192.607C60.3027 188.819 62.3752 184.431 63.0199 179.532L47.1566 177.444ZM44.8779 182.289C43.3522 184.097 41.4266 185.589 38.9838 186.75L45.8487 201.202C50.2326 199.12 54.0243 196.26 57.1066 192.607L44.8779 182.289ZM39.1333 186.681C36.8023 187.73 34.2581 188.28 31.4082 188.28V204.28C36.4091 204.28 41.2035 203.294 45.6992 201.271L39.1333 186.681ZM35.3762 184.44C38.966 184.44 42.5248 183.69 45.7454 181.85L37.8071 167.958C37.4437 168.166 36.7359 168.44 35.3762 168.44V184.44ZM45.9871 181.706C48.9762 179.856 51.3455 177.331 53.0234 174.255L38.9771 166.593C38.607 167.272 38.1603 167.734 37.5654 168.102L45.9871 181.706ZM52.9648 174.36C54.8406 171.042 55.6642 167.39 55.6642 163.64H39.6642C39.6642 165.01 39.3786 165.881 39.0357 166.488L52.9648 174.36ZM55.6642 163.64C55.6642 160.039 54.9108 156.507 53.1514 153.281L39.1051 160.943C39.3937 161.472 39.6642 162.292 39.6642 163.64H55.6642ZM53.1514 153.281C51.4224 150.111 48.9397 147.573 45.8461 145.745L37.7064 159.519C38.3674 159.91 38.7861 160.358 39.1051 160.943L53.1514 153.281ZM45.9871 145.83C42.7674 143.837 39.1774 142.968 35.5042 142.968V158.968C36.6097 158.968 37.2011 159.209 37.5654 159.434L45.9871 145.83ZM35.5042 142.968C31.8244 142.968 28.2605 143.838 25.0344 145.745L33.1741 159.519C33.7026 159.207 34.4054 158.968 35.5042 158.968V142.968ZM24.8934 145.83C21.8776 147.697 19.5117 150.253 17.7877 153.304L31.7167 161.176C32.2114 160.301 32.7469 159.786 33.3151 159.434L24.8934 145.83ZM17.7291 153.409C15.9917 156.594 15.2162 160.072 15.2162 163.64H31.2162C31.2162 162.429 31.4648 161.64 31.7754 161.071L17.7291 153.409ZM15.2162 163.64C15.2162 167.249 15.9721 170.762 17.6596 173.997L31.8449 166.595C31.4844 165.904 31.2162 164.98 31.2162 163.64H15.2162ZM17.7291 174.127C19.4581 177.297 21.9408 179.835 25.0344 181.663L33.1741 167.889C32.513 167.498 32.0944 167.05 31.7754 166.465L17.7291 174.127ZM25.0344 181.663C28.215 183.543 31.7248 184.44 35.3762 184.44V168.44C34.4196 168.44 33.7482 168.228 33.1741 167.889L25.0344 181.663ZM68.6562 187H46.7682V203H68.6562V187ZM54.7682 195V178.232H38.7682V195H54.7682ZM54.6001 179.864L57.8001 164.504L42.1364 161.24L38.9364 176.6L54.6001 179.864ZM57.7521 161.025L54.1681 145.921L38.6004 149.615L42.1844 164.719L57.7521 161.025ZM54.3842 147.768V101.688H38.3842V147.768H54.3842ZM46.3842 109.688H68.6562V93.688H46.3842V109.688ZM60.6562 101.688V195H76.6562V101.688H60.6562ZM87.0292 192.312L83.3172 199.399L83.3616 199.422L83.4063 199.445L87.0292 192.312ZM74.3572 180.664L81.1544 176.445L74.3572 180.664ZM74.2292 146.872L81.0466 151.058L81.0628 151.032L81.0787 151.005L74.2292 146.872ZM86.3892 135.224L90.2446 142.234L90.2644 142.223L90.2841 142.212L86.3892 135.224ZM120.693 134.968L116.777 141.944L116.849 141.984L116.922 142.023L120.693 134.968ZM132.213 146.104L125.267 150.073L125.31 150.147L125.353 150.22L132.213 146.104ZM136.181 166.2L128.243 165.208L128.214 165.437L128.199 165.668L136.181 166.2ZM135.413 170.68L135.45 178.68L141.667 178.651L143.174 172.62L135.413 170.68ZM80.2452 170.936H72.2452V178.973L80.2824 178.936L80.2452 170.936ZM80.2452 156.6L80.1789 148.6L72.2452 148.666V156.6H80.2452ZM126.581 156.216L130.837 162.99L154.727 147.982L126.515 148.216L126.581 156.216ZM116.597 162.488L108.6 162.683L108.943 176.744L120.853 169.262L116.597 162.488ZM115.061 153.912L107.653 156.93L107.673 156.98L107.694 157.029L115.061 153.912ZM110.965 148.664L106.528 155.32L106.528 155.32L110.965 148.664ZM96.8852 148.92L92.4476 142.264L92.4476 142.264L96.8852 148.92ZM92.1492 154.68L84.8492 151.408L84.8492 151.408L92.1492 154.68ZM92.2772 172.856L85.0278 176.239L85.05 176.287L85.0728 176.334L92.2772 172.856ZM113.653 178.872L110.502 171.519L110.453 171.54L110.404 171.562L113.653 178.872ZM120.053 174.136L125.71 168.479L119.681 162.45L114.048 168.851L120.053 174.136ZM131.701 185.784L137.713 191.062L142.66 185.429L137.358 180.127L131.701 185.784ZM120.437 193.72L117.442 186.302L117.416 186.312L117.391 186.323L120.437 193.72ZM105.589 188.408C99.6487 188.408 94.7382 187.255 90.6522 185.179L83.4063 199.445C90.0723 202.831 97.5351 204.408 105.589 204.408V188.408ZM90.7413 185.225C86.576 183.044 83.4404 180.128 81.1544 176.445L67.5601 184.883C71.4181 191.099 76.7304 195.948 83.3172 199.399L90.7413 185.225ZM81.1544 176.445C78.9452 172.886 77.7492 168.701 77.7492 163.64H61.7492C61.7492 171.379 63.6253 178.543 67.5601 184.883L81.1544 176.445ZM77.7492 163.64C77.7492 158.641 78.9139 154.531 81.0466 151.058L67.4119 142.686C63.5713 148.941 61.7492 156.01 61.7492 163.64H77.7492ZM81.0787 151.005C83.3297 147.275 86.3443 144.379 90.2446 142.234L82.5339 128.214C76.1941 131.701 71.1022 136.57 67.3797 142.739L81.0787 151.005ZM90.2841 142.212C94.1951 140.032 98.6796 138.872 103.925 138.872V122.872C96.2002 122.872 88.994 124.613 82.4944 128.236L90.2841 142.212ZM103.925 138.872C109.052 138.872 113.26 139.969 116.777 141.944L124.61 127.992C118.399 124.505 111.427 122.872 103.925 122.872V138.872ZM116.922 142.023C120.572 143.974 123.299 146.628 125.267 150.073L139.159 142.135C135.666 136.022 130.714 131.253 124.464 127.913L116.922 142.023ZM125.353 150.22C127.345 153.54 128.437 157.464 128.437 162.232H144.437C144.437 154.883 142.713 148.055 139.073 141.988L125.353 150.22ZM128.437 162.232C128.437 163.157 128.376 164.147 128.243 165.208L144.119 167.192C144.328 165.522 144.437 163.867 144.437 162.232H128.437ZM128.199 165.668C128.154 166.335 128.003 167.338 127.652 168.74L143.174 172.62C143.677 170.609 144.037 168.625 144.164 166.732L128.199 165.668ZM135.376 162.68L80.2081 162.936L80.2824 178.936L135.45 178.68L135.376 162.68ZM88.2452 170.936V156.6H72.2452V170.936H88.2452ZM80.3115 164.6L126.648 164.216L126.515 148.216L80.1789 148.6L80.3115 164.6ZM122.326 149.442L112.342 155.714L120.853 169.262L130.837 162.99L122.326 149.442ZM124.595 162.293C124.495 158.205 123.894 154.258 122.429 150.795L107.694 157.029C108.106 158.004 108.529 159.773 108.6 162.683L124.595 162.293ZM122.47 150.894C121.024 147.344 118.725 144.222 115.403 142.008L106.528 155.32C106.79 155.495 107.221 155.872 107.653 156.93L122.47 150.894ZM115.403 142.008C111.985 139.729 108.069 138.872 104.181 138.872V154.872C105.754 154.872 106.362 155.21 106.528 155.32L115.403 142.008ZM104.181 138.872C100.02 138.872 95.9921 139.901 92.4476 142.264L101.323 155.576C101.874 155.209 102.71 154.872 104.181 154.872V138.872ZM92.4476 142.264C89.02 144.549 86.51 147.703 84.8492 151.408L99.4493 157.952C100.007 156.708 100.654 156.022 101.323 155.576L92.4476 142.264ZM84.8492 151.408C83.1652 155.164 82.4852 159.328 82.4852 163.64H98.4852C98.4852 160.955 98.9146 159.145 99.4493 157.952L84.8492 151.408ZM82.4852 163.64C82.4852 168.089 83.2246 172.375 85.0278 176.239L99.5267 169.473C98.9406 168.217 98.4852 166.359 98.4852 163.64H82.4852ZM85.0728 176.334C86.9123 180.144 89.6869 183.276 93.3995 185.417L101.395 171.559C100.67 171.14 100.032 170.517 99.4817 169.378L85.0728 176.334ZM93.3995 185.417C97.1166 187.562 101.31 188.408 105.589 188.408V172.408C103.383 172.408 102.115 171.974 101.395 171.559L93.3995 185.417ZM105.589 188.408C109.542 188.408 113.378 187.749 116.902 186.182L110.404 171.562C109.321 172.043 107.781 172.408 105.589 172.408V188.408ZM116.805 186.225C120.386 184.69 123.47 182.363 126.059 179.421L114.048 168.851C112.882 170.176 111.699 171.006 110.502 171.519L116.805 186.225ZM114.396 179.793L126.044 191.441L137.358 180.127L125.71 168.479L114.396 179.793ZM125.69 180.506C123.466 183.039 120.754 184.964 117.442 186.302L123.433 201.138C128.995 198.892 133.793 195.527 137.713 191.062L125.69 180.506ZM117.391 186.323C114.162 187.652 110.274 188.408 105.589 188.408V204.408C111.997 204.408 118.009 203.372 123.483 201.117L117.391 186.323ZM149.584 195.256L147.434 202.962L147.457 202.968L147.479 202.974L149.584 195.256ZM139.216 191.16L135.267 198.117L135.378 198.18L135.49 198.239L139.216 191.16ZM131.152 185.016L125.437 179.418L120.001 184.969L125.39 190.565L131.152 185.016ZM143.312 172.6L149.083 167.06L143.37 161.108L137.597 167.002L143.312 172.6ZM150.608 177.592L147.484 184.957L147.523 184.973L147.562 184.989L150.608 177.592ZM164.048 178.616L160.471 171.461L160.343 171.524L160.217 171.593L164.048 178.616ZM163.408 173.368L159.486 180.341L159.739 180.483L160.002 180.607L163.408 173.368ZM157.904 171.448L155.824 179.173L155.996 179.219L156.169 179.257L157.904 171.448ZM150.864 169.4L148.256 176.963L148.374 177.004L148.493 177.041L150.864 169.4ZM138.064 160.312L131.06 164.177L131.11 164.268L131.163 164.358L138.064 160.312ZM139.216 140.344L132.731 135.66L132.719 135.677L132.706 135.694L139.216 140.344ZM148.432 133.176L151.622 140.513L151.689 140.484L151.755 140.454L148.432 133.176ZM177.616 133.304L174.736 140.767L174.793 140.79L174.851 140.811L177.616 133.304ZM189.392 141.496L195.078 147.123L200.132 142.017L195.597 136.446L189.392 141.496ZM177.104 153.912L171.125 159.227L176.791 165.601L182.79 159.539L177.104 153.912ZM170.32 149.176L167.483 156.656L167.597 156.699L167.712 156.739L170.32 149.176ZM159.312 148.664L163.428 155.524L163.669 155.379L163.9 155.218L159.312 148.664ZM160.08 153.528L156.503 160.683L156.588 160.726L156.674 160.767L160.08 153.528ZM165.584 155.448L163.504 163.173L163.676 163.219L163.849 163.257L165.584 155.448ZM172.624 157.496L169.934 165.03L169.975 165.045L170.016 165.059L172.624 157.496ZM179.664 161.08L175.111 167.658L175.254 167.757L175.402 167.85L179.664 161.08ZM185.168 166.968L178.164 170.833L178.214 170.924L178.267 171.014L185.168 166.968ZM180.176 191.416L184.976 197.816L185.013 197.789L185.048 197.761L180.176 191.416ZM160.976 188.792C157.857 188.792 154.767 188.377 151.689 187.538L147.479 202.974C151.911 204.183 156.416 204.792 160.976 204.792V188.792ZM151.735 187.55C148.59 186.673 145.664 185.513 142.942 184.081L135.49 198.239C139.254 200.22 143.24 201.791 147.434 202.962L151.735 187.55ZM143.165 184.203C140.588 182.74 138.533 181.148 136.915 179.467L125.39 190.565C128.208 193.492 131.53 195.996 135.267 198.117L143.165 184.203ZM136.868 190.614L149.028 178.198L137.597 167.002L125.437 179.418L136.868 190.614ZM137.541 178.14C140.365 181.082 143.706 183.354 147.484 184.957L153.733 170.227C151.878 169.441 150.356 168.385 149.083 167.06L137.541 178.14ZM147.562 184.989C151.462 186.595 155.572 187.384 159.824 187.384V171.384C157.591 171.384 155.557 170.978 153.654 170.195L147.562 184.989ZM159.824 187.384C162.167 187.384 165.183 187.11 167.879 185.639L160.217 171.593C160.471 171.454 160.666 171.382 160.768 171.349C160.87 171.315 160.906 171.312 160.857 171.321C160.809 171.33 160.702 171.346 160.523 171.36C160.345 171.374 160.114 171.384 159.824 171.384V187.384ZM167.626 185.771C168.986 185.091 170.53 184.01 171.736 182.301C173.001 180.509 173.584 178.461 173.584 176.44H157.584C157.584 175.357 157.912 174.141 158.664 173.075C159.358 172.091 160.134 171.629 160.471 171.461L167.626 185.771ZM173.584 176.44C173.584 174.254 172.974 172.008 171.568 170.024C170.216 168.115 168.449 166.899 166.815 166.129L160.002 180.607C159.818 180.52 159.139 180.157 158.512 179.272C157.832 178.312 157.584 177.261 157.584 176.44H173.584ZM167.33 166.395C165.029 165.101 162.363 164.244 159.64 163.639L156.169 179.257C158.053 179.676 159.057 180.099 159.486 180.341L167.33 166.395ZM159.984 163.723C157.874 163.155 155.625 162.501 153.235 161.759L148.493 177.041C151.052 177.835 153.497 178.546 155.824 179.173L159.984 163.723ZM153.472 161.837C151.521 161.164 149.624 160.285 147.775 159.19L139.618 172.954C142.377 174.589 145.258 175.929 148.256 176.963L153.472 161.837ZM147.775 159.19C146.719 158.564 145.781 157.657 144.966 156.266L131.163 164.358C133.249 167.916 136.065 170.849 139.618 172.954L147.775 159.19ZM145.069 156.447C144.549 155.505 144.016 153.792 144.016 150.84H128.016C128.016 155.568 128.849 160.17 131.06 164.177L145.069 156.447ZM144.016 150.84C144.016 148.334 144.652 146.497 145.726 144.994L132.706 135.694C129.514 140.164 128.016 145.325 128.016 150.84H144.016ZM145.702 145.028C146.975 143.265 148.839 141.723 151.622 140.513L145.242 125.839C140.175 128.043 135.895 131.279 132.731 135.66L145.702 145.028ZM151.755 140.454C154.429 139.233 157.859 138.488 162.256 138.488V122.488C156.072 122.488 150.286 123.535 145.11 125.898L151.755 140.454ZM162.256 138.488C166.678 138.488 170.819 139.256 174.736 140.767L180.497 125.841C174.685 123.598 168.586 122.488 162.256 122.488V138.488ZM174.851 140.811C178.501 142.156 181.192 144.094 183.188 146.546L195.597 136.446C191.619 131.559 186.459 128.036 180.382 125.797L174.851 140.811ZM183.706 135.869L171.418 148.285L182.79 159.539L195.078 147.123L183.706 135.869ZM183.084 148.597C180.286 145.45 176.914 142.988 172.928 141.613L167.712 156.739C168.675 157.071 169.826 157.766 171.125 159.227L183.084 148.597ZM173.157 141.696C170.028 140.509 166.791 139.768 163.536 139.768V155.768C164.378 155.768 165.663 155.966 167.483 156.656L173.157 141.696ZM163.536 139.768C161.173 139.768 157.669 140.049 154.725 142.11L163.9 155.218C163.526 155.48 163.206 155.629 163.003 155.709C162.801 155.79 162.678 155.816 162.668 155.818C162.657 155.82 162.72 155.806 162.874 155.793C163.027 155.779 163.245 155.768 163.536 155.768V139.768ZM155.196 141.804C152.11 143.656 150.032 146.892 150.032 150.84H166.032C166.032 151.628 165.839 152.644 165.248 153.648C164.669 154.631 163.938 155.218 163.428 155.524L155.196 141.804ZM150.032 150.84C150.032 156.104 153.605 159.235 156.503 160.683L163.658 146.373C163.699 146.393 164.294 146.69 164.908 147.496C165.61 148.418 166.032 149.614 166.032 150.84H150.032ZM156.674 160.767C158.691 161.716 161.008 162.501 163.504 163.173L167.664 147.723C165.723 147.201 164.371 146.706 163.487 146.289L156.674 160.767ZM163.849 163.257C165.806 163.692 167.834 164.28 169.934 165.03L175.315 149.962C172.636 149.005 169.971 148.228 167.32 147.639L163.849 163.257ZM170.016 165.059C171.779 165.667 173.474 166.524 175.111 167.658L184.218 154.502C181.417 152.564 178.418 151.032 175.232 149.933L170.016 165.059ZM175.402 167.85C176.516 168.552 177.426 169.496 178.164 170.833L192.173 163.103C190.18 159.491 187.42 156.51 183.927 154.31L175.402 167.85ZM178.267 171.014C178.781 171.89 179.344 173.562 179.344 176.568H195.344C195.344 171.723 194.457 166.995 192.07 162.922L178.267 171.014ZM179.344 176.568C179.344 180.41 178.034 182.975 175.304 185.071L185.048 197.761C191.876 192.519 195.344 185.185 195.344 176.568H179.344ZM175.376 185.016C172.389 187.257 167.854 188.792 160.976 188.792V204.792C170.141 204.792 178.407 202.743 184.976 197.816L175.376 185.016ZM189.61 195H181.61V203H189.61V195ZM189.61 132.408V124.408H181.61V132.408H189.61ZM212.01 132.408H220.01V124.408H212.01V132.408ZM212.01 195V203H220.01V195H212.01ZM192.426 121.784L186.664 127.333L186.716 127.387L186.769 127.441L192.426 121.784ZM209.194 104.76L203.324 110.195L203.377 110.253L203.432 110.309L209.194 104.76ZM209.194 121.784L203.432 116.235L203.428 116.239L209.194 121.784ZM197.61 195V132.408H181.61V195H197.61ZM189.61 140.408H212.01V124.408H189.61V140.408ZM204.01 132.408V195H220.01V132.408H204.01ZM212.01 187H189.61V203H212.01V187ZM200.746 117.112C199.397 117.112 198.703 116.747 198.083 116.127L186.769 127.441C190.586 131.258 195.439 133.112 200.746 133.112V117.112ZM198.189 116.235C197.508 115.528 197.098 114.705 197.098 113.208H181.098C181.098 118.538 182.907 123.432 186.664 127.333L198.189 116.235ZM197.098 113.208C197.098 111.857 197.469 111.057 198.189 110.309L186.664 99.2109C182.946 103.071 181.098 107.903 181.098 113.208H197.098ZM198.189 110.309C198.832 109.641 199.494 109.304 200.746 109.304V93.304C195.343 93.304 190.458 95.2711 186.664 99.2109L198.189 110.309ZM200.746 109.304C202.299 109.304 202.886 109.723 203.324 110.195L215.064 99.3247C211.235 95.1894 206.191 93.304 200.746 93.304V109.304ZM203.432 110.309C204.152 111.057 204.522 111.857 204.522 113.208H220.522C220.522 107.903 218.674 103.071 214.957 99.2109L203.432 110.309ZM204.522 113.208C204.522 114.705 204.112 115.528 203.432 116.235L214.957 127.333C218.714 123.432 220.522 118.538 220.522 113.208H204.522ZM203.428 116.239C203.014 116.669 202.395 117.112 200.746 117.112V133.112C206.095 133.112 211.108 131.336 214.961 127.329L203.428 116.239ZM225.5 219.832L228.749 212.522L228.722 212.509L228.694 212.497L225.5 219.832ZM213.084 209.976L207.455 204.292L202.663 209.038L206.53 214.564L213.084 209.976ZM226.524 196.664L232.394 191.229L226.773 185.158L220.895 190.98L226.524 196.664ZM233.564 202.04L237.329 194.981L237.236 194.932L237.142 194.885L233.564 202.04ZM253.404 200.76L248.382 194.533L248.272 194.622L248.165 194.714L253.404 200.76ZM257.372 175.16L249.638 173.117L249.372 174.121V175.16H257.372ZM260.956 161.592L268.691 163.635L269.204 161.693L268.739 159.739L260.956 161.592ZM257.756 148.152H249.756V149.091L249.974 150.005L257.756 148.152ZM257.756 132.408V124.408H249.756V132.408H257.756ZM279.644 132.408H287.644V124.408H279.644V132.408ZM274.908 207.928L268.198 203.572L268.154 203.64L268.111 203.709L274.908 207.928ZM262.236 219.32L258.704 212.142L258.659 212.164L258.613 212.187L262.236 219.32ZM227.42 188.728L223.227 195.541L223.304 195.588L223.381 195.634L227.42 188.728ZM216.924 177.592L209.901 181.423L209.901 181.423L216.924 177.592ZM216.924 146.232L223.918 150.117L223.918 150.117L216.924 146.232ZM227.42 135.224L223.285 128.375L223.256 128.393L223.227 128.411L227.42 135.224ZM253.66 133.304L250.393 140.607L250.508 140.658L250.624 140.705L253.66 133.304ZM261.724 139.192L255.477 144.19L255.519 144.241L255.561 144.293L261.724 139.192ZM265.564 147.896H273.564V147.284L273.471 146.68L265.564 147.896ZM265.564 175.928L273.471 177.144L273.564 176.54V175.928H265.564ZM261.596 184.76L255.45 179.639L255.442 179.649L255.433 179.659L261.596 184.76ZM253.66 190.648L256.765 198.021L256.846 197.987L256.927 197.951L253.66 190.648ZM253.148 171.832L257.264 178.692L257.312 178.663L257.359 178.634L253.148 171.832ZM257.244 167.608L264.254 171.463L264.293 171.392L264.331 171.32L257.244 167.608ZM257.244 156.088L250.235 159.943L250.235 159.943L257.244 156.088ZM253.276 151.992L248.916 158.7L249.037 158.778L249.16 158.852L253.276 151.992ZM240.988 151.992L245.104 158.852L245.152 158.823L245.199 158.794L240.988 151.992ZM237.02 156.216L244.03 160.071L244.069 160L244.107 159.928L237.02 156.216ZM237.02 167.48L229.934 171.192L229.971 171.264L230.011 171.335L237.02 167.48ZM240.988 171.704L245.348 164.996L245.348 164.996L240.988 171.704ZM243.932 215.416C237.946 215.416 232.939 214.384 228.749 212.522L222.251 227.142C228.813 230.059 236.094 231.416 243.932 231.416V215.416ZM228.694 212.497C224.605 210.716 221.69 208.32 219.638 205.388L206.53 214.564C210.452 220.166 215.814 224.34 222.306 227.167L228.694 212.497ZM218.714 215.66L232.154 202.348L220.895 190.98L207.455 204.292L218.714 215.66ZM220.654 202.099C223.378 205.041 226.485 207.445 229.987 209.195L237.142 194.885C235.523 194.075 233.937 192.895 232.394 191.229L220.654 202.099ZM229.8 209.099C233.785 211.224 238.266 212.088 242.908 212.088V196.088C240.212 196.088 238.464 195.586 237.329 194.981L229.8 209.099ZM242.908 212.088C248.663 212.088 254.228 210.632 258.644 206.806L248.165 194.714C247.46 195.325 246.028 196.088 242.908 196.088V212.088ZM258.426 206.987C263.345 203.021 265.372 197.381 265.372 191.416H249.372C249.372 193.643 248.754 194.233 248.382 194.533L258.426 206.987ZM265.372 191.416V175.16H249.372V191.416H265.372ZM265.107 177.203L268.691 163.635L253.222 159.549L249.638 173.117L265.107 177.203ZM268.739 159.739L265.539 146.299L249.974 150.005L253.174 163.445L268.739 159.739ZM265.756 148.152V132.408H249.756V148.152H265.756ZM257.756 140.408H279.644V124.408H257.756V140.408ZM271.644 132.408V190.648H287.644V132.408H271.644ZM271.644 190.648C271.644 195.992 270.394 200.189 268.198 203.572L281.618 212.284C285.737 205.939 287.644 198.616 287.644 190.648H271.644ZM268.111 203.709C265.852 207.348 262.777 210.138 258.704 212.142L265.768 226.498C272.448 223.211 277.82 218.407 281.705 212.147L268.111 203.709ZM258.613 212.187C254.5 214.276 249.668 215.416 243.932 215.416V231.416C251.85 231.416 259.22 229.825 265.859 226.453L258.613 212.187ZM242.908 184.696C238.369 184.696 234.628 183.676 231.459 181.822L223.381 195.634C229.258 199.071 235.843 200.696 242.908 200.696V184.696ZM231.613 181.915C228.395 179.934 225.858 177.264 223.947 173.761L209.901 181.423C213.11 187.307 217.571 192.06 223.227 195.541L231.613 181.915ZM223.947 173.761C222.082 170.342 221.084 166.429 221.084 161.848H205.084C205.084 168.872 206.646 175.456 209.901 181.423L223.947 173.761ZM221.084 161.848C221.084 157.265 222.083 153.42 223.918 150.117L209.931 142.347C206.646 148.26 205.084 154.826 205.084 161.848H221.084ZM223.918 150.117C225.819 146.695 228.359 144.04 231.613 142.037L223.227 128.411C217.607 131.87 213.15 136.553 209.931 142.347L223.918 150.117ZM231.555 142.073C234.709 140.168 238.415 139.128 242.908 139.128V123.128C235.796 123.128 229.176 124.819 223.285 128.375L231.555 142.073ZM242.908 139.128C245.827 139.128 248.282 139.662 250.393 140.607L256.927 126.001C252.553 124.045 247.84 123.128 242.908 123.128V139.128ZM250.624 140.705C252.82 141.606 254.359 142.791 255.477 144.19L267.971 134.194C264.994 130.473 261.156 127.732 256.697 125.903L250.624 140.705ZM255.561 144.293C256.642 145.599 257.354 147.141 257.657 149.112L273.471 146.68C272.751 141.995 270.902 137.734 267.887 134.091L255.561 144.293ZM257.564 147.896V175.928H273.564V147.896H257.564ZM257.657 174.712C257.364 176.618 256.642 178.208 255.45 179.639L267.742 189.881C270.817 186.192 272.74 181.894 273.471 177.144L257.657 174.712ZM255.433 179.659C254.249 181.091 252.635 182.343 250.393 183.345L256.927 197.951C261.171 196.052 264.848 193.378 267.759 189.861L255.433 179.659ZM250.556 183.275C248.404 184.181 245.891 184.696 242.908 184.696V200.696C247.776 200.696 252.432 199.846 256.765 198.021L250.556 183.275ZM247.004 181.368C250.552 181.368 254.086 180.599 257.264 178.692L249.032 164.972C248.797 165.113 248.236 165.368 247.004 165.368V181.368ZM257.359 178.634C260.223 176.861 262.598 174.475 264.254 171.463L250.235 163.753C250.014 164.154 249.657 164.584 248.937 165.03L257.359 178.634ZM264.331 171.32C265.877 168.368 266.652 165.172 266.652 161.848H250.652C250.652 162.62 250.489 163.264 250.158 163.896L264.331 171.32ZM266.652 161.848C266.652 158.498 265.903 155.231 264.254 152.233L250.235 159.943C250.463 160.359 250.652 160.931 250.652 161.848H266.652ZM264.254 152.233C262.618 149.258 260.284 146.867 257.392 145.132L249.16 158.852C249.681 159.165 249.993 159.505 250.235 159.943L264.254 152.233ZM257.636 145.284C254.42 143.194 250.795 142.328 247.132 142.328V158.328C248.248 158.328 248.72 158.572 248.916 158.7L257.636 145.284ZM247.132 142.328C243.484 142.328 239.951 143.225 236.777 145.19L245.199 158.794C245.609 158.54 246.172 158.328 247.132 158.328V142.328ZM236.872 145.132C233.883 146.925 231.543 149.432 229.934 152.504L244.107 159.928C244.375 159.416 244.68 159.107 245.104 158.852L236.872 145.132ZM230.011 152.361C228.388 155.31 227.612 158.524 227.612 161.848H243.612C243.612 161.076 243.775 160.535 244.03 160.071L230.011 152.361ZM227.612 161.848C227.612 165.144 228.414 168.291 229.934 171.192L244.107 163.768C243.749 163.085 243.612 162.477 243.612 161.848H227.612ZM230.011 171.335C231.613 174.249 233.869 176.618 236.628 178.412L245.348 164.996C244.695 164.572 244.305 164.124 244.03 163.625L230.011 171.335ZM236.628 178.412C239.798 180.472 243.363 181.368 247.004 181.368V165.368C246.038 165.368 245.591 165.155 245.348 164.996L236.628 178.412ZM325.454 195H317.454V203H325.454V195ZM322.894 152.888L317.237 158.545L317.31 158.617L317.384 158.688L322.894 152.888ZM311.502 151.48L307.759 144.41L307.669 144.457L307.58 144.507L311.502 151.48ZM307.15 159.672L303.744 166.911L315.15 172.278V159.672H307.15ZM298.446 155.576H290.446V160.653L295.04 162.815L298.446 155.576ZM301.774 142.648L308.576 146.859L308.598 146.823L308.62 146.787L301.774 142.648ZM310.862 134.2L314.503 141.323L314.533 141.308L314.563 141.293L310.862 134.2ZM336.206 134.328L332.041 141.158L332.138 141.218L332.237 141.274L336.206 134.328ZM344.654 142.648L337.75 146.689L337.75 146.689L344.654 142.648ZM347.726 195V203H355.726V195H347.726ZM284.878 195H276.878V203H284.878V195ZM284.878 132.408V124.408H276.878V132.408H284.878ZM307.15 132.408H315.15V124.408H307.15V132.408ZM307.15 195V203H315.15V195H307.15ZM333.454 195V159.672H317.454V195H333.454ZM333.454 159.672C333.454 155.123 332.057 150.558 328.404 147.088L317.384 158.688C317.375 158.679 317.355 158.657 317.335 158.628C317.316 158.599 317.317 158.592 317.329 158.624C317.355 158.692 317.454 158.998 317.454 159.672H333.454ZM328.551 147.231C325.193 143.873 320.909 142.328 316.366 142.328V158.328C316.82 158.328 317.019 158.399 317.062 158.416C317.09 158.427 317.137 158.445 317.237 158.545L328.551 147.231ZM316.366 142.328C313.392 142.328 310.467 142.976 307.759 144.41L315.245 158.55C315.439 158.448 315.757 158.328 316.366 158.328V142.328ZM307.58 144.507C304.938 145.994 302.816 148.116 301.33 150.758L315.275 158.602C315.297 158.563 315.313 158.541 315.321 158.53C315.329 158.519 315.333 158.515 315.335 158.513C315.337 158.511 315.341 158.507 315.352 158.499C315.363 158.49 315.386 158.474 315.424 158.453L307.58 144.507ZM301.33 150.758C299.738 153.587 299.15 156.678 299.15 159.672H315.15C315.15 158.741 315.33 158.503 315.275 158.602L301.33 150.758ZM310.557 152.433L301.853 148.337L295.04 162.815L303.744 166.911L310.557 152.433ZM306.446 155.576C306.446 151.737 307.281 148.951 308.576 146.859L294.972 138.437C291.83 143.513 290.446 149.345 290.446 155.576H306.446ZM308.62 146.787C310.064 144.399 311.98 142.613 314.503 141.323L307.221 127.077C302.064 129.712 297.922 133.558 294.928 138.509L308.62 146.787ZM314.563 141.293C317.217 139.908 320.359 139.128 324.174 139.128V123.128C318.09 123.128 312.359 124.396 307.162 127.107L314.563 141.293ZM324.174 139.128C327.385 139.128 329.925 139.868 332.041 141.158L340.371 127.498C335.49 124.521 330.009 123.128 324.174 123.128V139.128ZM332.237 141.274C334.629 142.641 336.423 144.422 337.75 146.689L351.558 138.607C348.79 133.877 344.952 130.111 340.175 127.382L332.237 141.274ZM337.75 146.689C339.014 148.848 339.726 151.397 339.726 154.552H355.726C355.726 148.832 354.391 143.445 351.558 138.607L337.75 146.689ZM339.726 154.552V195H355.726V154.552H339.726ZM347.726 187H325.454V203H347.726V187ZM292.878 195V132.408H276.878V195H292.878ZM284.878 140.408H307.15V124.408H284.878V140.408ZM299.15 132.408V195H315.15V132.408H299.15ZM307.15 187H284.878V203H307.15V187ZM355.663 192.696L349.908 198.253L349.908 198.253L355.663 192.696ZM355.663 174.264L361.418 179.821L361.418 179.821L355.663 174.264ZM373.967 174.264L368.212 179.821L368.212 179.821L373.967 174.264ZM373.967 192.696L368.212 187.139L373.967 192.696ZM364.879 188.408C363.075 188.408 362.154 187.901 361.418 187.139L349.908 198.253C353.951 202.44 359.174 204.408 364.879 204.408V188.408ZM361.418 187.139C360.572 186.262 360.079 185.229 360.079 183.48H344.079C344.079 189.07 345.976 194.181 349.908 198.253L361.418 187.139ZM360.079 183.48C360.079 181.731 360.572 180.698 361.418 179.821L349.908 168.707C345.976 172.779 344.079 177.89 344.079 183.48H360.079ZM361.418 179.821C362.154 179.059 363.075 178.552 364.879 178.552V162.552C359.174 162.552 353.951 164.52 349.908 168.707L361.418 179.821ZM364.879 178.552C366.539 178.552 367.439 179.02 368.212 179.821L379.722 168.707C375.717 164.559 370.558 162.552 364.879 162.552V178.552ZM368.212 179.821C369.059 180.698 369.551 181.731 369.551 183.48H385.551C385.551 177.89 383.654 172.779 379.722 168.707L368.212 179.821ZM369.551 183.48C369.551 185.229 369.059 186.262 368.212 187.139L379.722 198.253C383.654 194.181 385.551 189.07 385.551 183.48H369.551ZM368.212 187.139C367.439 187.94 366.539 188.408 364.879 188.408V204.408C370.558 204.408 375.717 202.401 379.722 198.253L368.212 187.139Z" fill="black" mask="url(#path-1-outside-1_412_24)"/>
</svg>
