<svg width="126" height="19" viewBox="0 0 126 19" fill="black" xmlns="http://www.w3.org/2000/svg">
<path d="M0.916 18V0.912H4.276L5.716 4.512V18H0.916ZM12.676 18L2.764 5.544L4.276 0.912L14.188 13.368L12.676 18ZM12.676 18L11.476 14.208V0.912H16.276V18H12.676ZM25.3915 18.336C24.0475 18.336 22.8075 18.112 21.6715 17.664C20.5515 17.216 19.5675 16.592 18.7195 15.792C17.8875 14.992 17.2395 14.048 16.7755 12.96C16.3115 11.872 16.0795 10.696 16.0795 9.432C16.0795 8.152 16.3035 6.976 16.7515 5.904C17.2155 4.832 17.8635 3.896 18.6955 3.096C19.5275 2.296 20.5035 1.68 21.6235 1.248C22.7595 0.8 23.9995 0.576 25.3435 0.576C26.6875 0.576 27.9195 0.8 29.0395 1.248C30.1755 1.68 31.1595 2.296 31.9915 3.096C32.8235 3.896 33.4635 4.84 33.9115 5.928C34.3755 7 34.6075 8.176 34.6075 9.456C34.6075 10.72 34.3755 11.896 33.9115 12.984C33.4635 14.056 32.8235 15 31.9915 15.816C31.1595 16.616 30.1835 17.24 29.0635 17.688C27.9435 18.12 26.7195 18.336 25.3915 18.336ZM25.3435 14.112C26.2395 14.112 27.0155 13.92 27.6715 13.536C28.3275 13.152 28.8315 12.608 29.1835 11.904C29.5355 11.2 29.7115 10.376 29.7115 9.432C29.7115 8.728 29.6075 8.096 29.3995 7.536C29.2075 6.96 28.9195 6.472 28.5355 6.072C28.1515 5.656 27.6875 5.344 27.1435 5.136C26.6155 4.912 26.0155 4.8 25.3435 4.8C24.4475 4.8 23.6715 4.992 23.0155 5.376C22.3595 5.744 21.8555 6.28 21.5035 6.984C21.1515 7.672 20.9755 8.488 20.9755 9.432C20.9755 10.152 21.0715 10.8 21.2635 11.376C21.4715 11.952 21.7675 12.448 22.1515 12.864C22.5355 13.264 22.9915 13.576 23.5195 13.8C24.0635 14.008 24.6715 14.112 25.3435 14.112ZM37.6401 18V13.92H41.6241C42.5201 13.92 43.2961 13.76 43.9521 13.44C44.6081 13.104 45.1121 12.6 45.4641 11.928C45.8161 11.256 45.9921 10.424 45.9921 9.432C45.9921 8.44 45.8081 7.616 45.4401 6.96C45.0881 6.304 44.5841 5.816 43.9281 5.496C43.2881 5.16 42.5201 4.992 41.6241 4.992H37.4001V0.912H41.6241C42.9681 0.912 44.2001 1.112 45.3201 1.512C46.4561 1.912 47.4401 2.488 48.2721 3.24C49.1041 3.992 49.7441 4.896 50.1921 5.952C50.6561 6.992 50.8881 8.16 50.8881 9.456C50.8881 10.752 50.6561 11.928 50.1921 12.984C49.7441 14.024 49.1041 14.92 48.2721 15.672C47.4401 16.424 46.4641 17 45.3441 17.4C44.2241 17.8 43.0001 18 41.6721 18H37.6401ZM34.4241 18V0.912H39.2241V18H34.4241ZM50.686 18V0.912H55.486V18H50.686ZM54.574 18V14.016H63.742V18H54.574ZM54.574 11.232V7.344H62.854V11.232H54.574ZM54.574 4.896V0.912H63.598V4.896H54.574ZM67.0701 18V13.92H71.0541C71.9501 13.92 72.7261 13.76 73.3821 13.44C74.0381 13.104 74.5421 12.6 74.8941 11.928C75.2461 11.256 75.4221 10.424 75.4221 9.432C75.4221 8.44 75.2381 7.616 74.8701 6.96C74.5181 6.304 74.0141 5.816 73.3581 5.496C72.7181 5.16 71.9501 4.992 71.0541 4.992H66.8301V0.912H71.0541C72.3981 0.912 73.6301 1.112 74.7501 1.512C75.8861 1.912 76.8701 2.488 77.7021 3.24C78.5341 3.992 79.1741 4.896 79.6221 5.952C80.0861 6.992 80.3181 8.16 80.3181 9.456C80.3181 10.752 80.0861 11.928 79.6221 12.984C79.1741 14.024 78.5341 14.92 77.7021 15.672C76.8701 16.424 75.8941 17 74.7741 17.4C73.6541 17.8 72.4301 18 71.1021 18H67.0701ZM63.8541 18V0.912H68.6541V18H63.8541ZM84.004 11.184V7.872H86.908C87.564 7.872 88.06 7.712 88.396 7.392C88.748 7.072 88.924 6.648 88.924 6.12C88.924 5.592 88.748 5.168 88.396 4.848C88.06 4.528 87.564 4.368 86.908 4.368H84.004V0.912H87.676C88.86 0.912 89.9 1.128 90.796 1.56C91.692 1.992 92.396 2.592 92.908 3.36C93.42 4.128 93.676 5.024 93.676 6.048C93.676 7.072 93.412 7.968 92.884 8.736C92.372 9.504 91.652 10.104 90.724 10.536C89.796 10.968 88.7 11.184 87.436 11.184H84.004ZM80.116 18V0.912H84.916V18H80.116ZM89.332 18L84.676 10.704L88.996 9.768L94.78 18H89.332ZM102.295 18.336C100.951 18.336 99.7106 18.112 98.5746 17.664C97.4546 17.216 96.4706 16.592 95.6226 15.792C94.7906 14.992 94.1426 14.048 93.6786 12.96C93.2146 11.872 92.9826 10.696 92.9826 9.432C92.9826 8.152 93.2066 6.976 93.6546 5.904C94.1186 4.832 94.7666 3.896 95.5986 3.096C96.4306 2.296 97.4066 1.68 98.5266 1.248C99.6626 0.8 100.903 0.576 102.247 0.576C103.591 0.576 104.823 0.8 105.943 1.248C107.079 1.68 108.063 2.296 108.895 3.096C109.727 3.896 110.367 4.84 110.815 5.928C111.279 7 111.511 8.176 111.511 9.456C111.511 10.72 111.279 11.896 110.815 12.984C110.367 14.056 109.727 15 108.895 15.816C108.063 16.616 107.087 17.24 105.967 17.688C104.847 18.12 103.623 18.336 102.295 18.336ZM102.247 14.112C103.143 14.112 103.919 13.92 104.575 13.536C105.231 13.152 105.735 12.608 106.087 11.904C106.439 11.2 106.615 10.376 106.615 9.432C106.615 8.728 106.511 8.096 106.303 7.536C106.111 6.96 105.823 6.472 105.439 6.072C105.055 5.656 104.591 5.344 104.047 5.136C103.519 4.912 102.919 4.8 102.247 4.8C101.351 4.8 100.575 4.992 99.9186 5.376C99.2626 5.744 98.7586 6.28 98.4066 6.984C98.0546 7.672 97.8786 8.488 97.8786 9.432C97.8786 10.152 97.9746 10.8 98.1666 11.376C98.3746 11.952 98.6706 12.448 99.0546 12.864C99.4386 13.264 99.8946 13.576 100.423 13.8C100.967 14.008 101.575 14.112 102.247 14.112ZM115.215 12V8.544H118.311C118.679 8.544 119.015 8.472 119.319 8.328C119.639 8.168 119.895 7.936 120.087 7.632C120.279 7.312 120.375 6.92 120.375 6.456C120.375 5.992 120.279 5.608 120.087 5.304C119.895 4.984 119.639 4.752 119.319 4.608C119.015 4.448 118.679 4.368 118.311 4.368H115.215V0.912H119.247C120.351 0.912 121.343 1.136 122.223 1.584C123.119 2.016 123.823 2.648 124.335 3.48C124.863 4.296 125.127 5.288 125.127 6.456C125.127 7.608 124.863 8.6 124.335 9.432C123.823 10.264 123.119 10.904 122.223 11.352C121.343 11.784 120.351 12 119.247 12H115.215ZM111.327 18V0.912H116.127V18H111.327Z" fill="white"/>
</svg>
