<svg width="125" height="19" viewBox="0 0 125 19" fill="none" xmlns="http://www.w3.org/2000/svg">
<path d="M0.416 18V0.912H3.776L5.216 4.512V18H0.416ZM12.176 18L2.264 5.544L3.776 0.912L13.688 13.368L12.176 18ZM12.176 18L10.976 14.208V0.912H15.776V18H12.176ZM24.8915 18.336C23.5475 18.336 22.3075 18.112 21.1715 17.664C20.0515 17.216 19.0675 16.592 18.2195 15.792C17.3875 14.992 16.7395 14.048 16.2755 12.96C15.8115 11.872 15.5795 10.696 15.5795 9.432C15.5795 8.152 15.8035 6.976 16.2515 5.904C16.7155 4.832 17.3635 3.896 18.1955 3.096C19.0275 2.296 20.0035 1.68 21.1235 1.248C22.2595 0.8 23.4995 0.576 24.8435 0.576C26.1875 0.576 27.4195 0.8 28.5395 1.248C29.6755 1.68 30.6595 2.296 31.4915 3.096C32.3235 3.896 32.9635 4.84 33.4115 5.928C33.8755 7 34.1075 8.176 34.1075 9.456C34.1075 10.72 33.8755 11.896 33.4115 12.984C32.9635 14.056 32.3235 15 31.4915 15.816C30.6595 16.616 29.6835 17.24 28.5635 17.688C27.4435 18.12 26.2195 18.336 24.8915 18.336ZM24.8435 14.112C25.7395 14.112 26.5155 13.92 27.1715 13.536C27.8275 13.152 28.3315 12.608 28.6835 11.904C29.0355 11.2 29.2115 10.376 29.2115 9.432C29.2115 8.728 29.1075 8.096 28.8995 7.536C28.7075 6.96 28.4195 6.472 28.0355 6.072C27.6515 5.656 27.1875 5.344 26.6435 5.136C26.1155 4.912 25.5155 4.8 24.8435 4.8C23.9475 4.8 23.1715 4.992 22.5155 5.376C21.8595 5.744 21.3555 6.28 21.0035 6.984C20.6515 7.672 20.4755 8.488 20.4755 9.432C20.4755 10.152 20.5715 10.8 20.7635 11.376C20.9715 11.952 21.2675 12.448 21.6515 12.864C22.0355 13.264 22.4915 13.576 23.0195 13.8C23.5635 14.008 24.1715 14.112 24.8435 14.112ZM37.1401 18V13.92H41.1241C42.0201 13.92 42.7961 13.76 43.4521 13.44C44.1081 13.104 44.6121 12.6 44.9641 11.928C45.3161 11.256 45.4921 10.424 45.4921 9.432C45.4921 8.44 45.3081 7.616 44.9401 6.96C44.5881 6.304 44.0841 5.816 43.4281 5.496C42.7881 5.16 42.0201 4.992 41.1241 4.992H36.9001V0.912H41.1241C42.4681 0.912 43.7001 1.112 44.8201 1.512C45.9561 1.912 46.9401 2.488 47.7721 3.24C48.6041 3.992 49.2441 4.896 49.6921 5.952C50.1561 6.992 50.3881 8.16 50.3881 9.456C50.3881 10.752 50.1561 11.928 49.6921 12.984C49.2441 14.024 48.6041 14.92 47.7721 15.672C46.9401 16.424 45.9641 17 44.8441 17.4C43.7241 17.8 42.5001 18 41.1721 18H37.1401ZM33.9241 18V0.912H38.7241V18H33.9241ZM50.186 18V0.912H54.986V18H50.186ZM54.074 18V14.016H63.242V18H54.074ZM54.074 11.232V7.344H62.354V11.232H54.074ZM54.074 4.896V0.912H63.098V4.896H54.074ZM66.5701 18V13.92H70.5541C71.4501 13.92 72.2261 13.76 72.8821 13.44C73.5381 13.104 74.0421 12.6 74.3941 11.928C74.7461 11.256 74.9221 10.424 74.9221 9.432C74.9221 8.44 74.7381 7.616 74.3701 6.96C74.0181 6.304 73.5141 5.816 72.8581 5.496C72.2181 5.16 71.4501 4.992 70.5541 4.992H66.3301V0.912H70.5541C71.8981 0.912 73.1301 1.112 74.2501 1.512C75.3861 1.912 76.3701 2.488 77.2021 3.24C78.0341 3.992 78.6741 4.896 79.1221 5.952C79.5861 6.992 79.8181 8.16 79.8181 9.456C79.8181 10.752 79.5861 11.928 79.1221 12.984C78.6741 14.024 78.0341 14.92 77.2021 15.672C76.3701 16.424 75.3941 17 74.2741 17.4C73.1541 17.8 71.9301 18 70.6021 18H66.5701ZM63.3541 18V0.912H68.1541V18H63.3541ZM83.504 11.184V7.872H86.408C87.064 7.872 87.56 7.712 87.896 7.392C88.248 7.072 88.424 6.648 88.424 6.12C88.424 5.592 88.248 5.168 87.896 4.848C87.56 4.528 87.064 4.368 86.408 4.368H83.504V0.912H87.176C88.36 0.912 89.4 1.128 90.296 1.56C91.192 1.992 91.896 2.592 92.408 3.36C92.92 4.128 93.176 5.024 93.176 6.048C93.176 7.072 92.912 7.968 92.384 8.736C91.872 9.504 91.152 10.104 90.224 10.536C89.296 10.968 88.2 11.184 86.936 11.184H83.504ZM79.616 18V0.912H84.416V18H79.616ZM88.832 18L84.176 10.704L88.496 9.768L94.28 18H88.832ZM101.795 18.336C100.451 18.336 99.2106 18.112 98.0746 17.664C96.9546 17.216 95.9706 16.592 95.1226 15.792C94.2906 14.992 93.6426 14.048 93.1786 12.96C92.7146 11.872 92.4826 10.696 92.4826 9.432C92.4826 8.152 92.7066 6.976 93.1546 5.904C93.6186 4.832 94.2666 3.896 95.0986 3.096C95.9306 2.296 96.9066 1.68 98.0266 1.248C99.1626 0.8 100.403 0.576 101.747 0.576C103.091 0.576 104.323 0.8 105.443 1.248C106.579 1.68 107.563 2.296 108.395 3.096C109.227 3.896 109.867 4.84 110.315 5.928C110.779 7 111.011 8.176 111.011 9.456C111.011 10.72 110.779 11.896 110.315 12.984C109.867 14.056 109.227 15 108.395 15.816C107.563 16.616 106.587 17.24 105.467 17.688C104.347 18.12 103.123 18.336 101.795 18.336ZM101.747 14.112C102.643 14.112 103.419 13.92 104.075 13.536C104.731 13.152 105.235 12.608 105.587 11.904C105.939 11.2 106.115 10.376 106.115 9.432C106.115 8.728 106.011 8.096 105.803 7.536C105.611 6.96 105.323 6.472 104.939 6.072C104.555 5.656 104.091 5.344 103.547 5.136C103.019 4.912 102.419 4.8 101.747 4.8C100.851 4.8 100.075 4.992 99.4186 5.376C98.7626 5.744 98.2586 6.28 97.9066 6.984C97.5546 7.672 97.3786 8.488 97.3786 9.432C97.3786 10.152 97.4746 10.8 97.6666 11.376C97.8746 11.952 98.1706 12.448 98.5546 12.864C98.9386 13.264 99.3946 13.576 99.9226 13.8C100.467 14.008 101.075 14.112 101.747 14.112ZM114.715 12V8.544H117.811C118.179 8.544 118.515 8.472 118.819 8.328C119.139 8.168 119.395 7.936 119.587 7.632C119.779 7.312 119.875 6.92 119.875 6.456C119.875 5.992 119.779 5.608 119.587 5.304C119.395 4.984 119.139 4.752 118.819 4.608C118.515 4.448 118.179 4.368 117.811 4.368H114.715V0.912H118.747C119.851 0.912 120.843 1.136 121.723 1.584C122.619 2.016 123.323 2.648 123.835 3.48C124.363 4.296 124.627 5.288 124.627 6.456C124.627 7.608 124.363 8.6 123.835 9.432C123.323 10.264 122.619 10.904 121.723 11.352C120.843 11.784 119.851 12 118.747 12H114.715ZM110.827 18V0.912H115.627V18H110.827Z" fill="#090909"/>
</svg>
